<svg width="527" height="212" fill="none" xmlns="http://www.w3.org/2000/svg"><path d="M160.448 169.256h-22.752V209h-54.72v-39.744H.896V128.36L86.432 3.368h51.264v124.416h22.752v41.472zM82.976 103.88v-8.064c.192-3.456.288-6.816.288-10.08.192-3.264.384-6.048.576-8.352.192-2.304.288-3.552.288-3.744h-1.44c-1.92 4.224-3.648 7.68-5.184 10.368-1.344 2.688-3.264 5.952-5.76 9.792l-22.752 33.984h33.984V103.88zm443.772 65.376h-22.752V209h-54.72v-39.744h-82.08V128.36L452.732 3.368h51.264v124.416h22.752v41.472zm-77.472-65.376v-8.064c.192-3.456.288-6.816.288-10.08.192-3.264.384-6.048.576-8.352.192-2.304.288-3.552.288-3.744h-1.44c-1.92 4.224-3.648 7.68-5.184 10.368-1.344 2.688-3.264 5.952-5.76 9.792l-22.752 33.984h33.984V103.88z" fill="#2D77E8"/><path d="M337.838 106.472c0 16.512-1.344 31.296-4.032 44.352-2.496 12.864-6.72 23.904-12.672 33.12-5.76 9.024-13.344 15.936-22.752 20.736-9.408 4.8-21.024 7.2-34.848 7.2-17.088 0-31.2-4.224-42.336-12.672-10.944-8.448-19.008-20.544-24.192-36.288-5.184-15.744-7.776-34.56-7.776-56.448 0-22.272 2.304-41.28 6.912-57.024 4.8-15.744 12.672-27.84 23.616-36.288C230.702 4.712 245.294.488 263.534.488c17.088 0 31.104 4.224 42.048 12.672 10.944 8.256 19.008 20.352 24.192 36.288 5.376 15.744 8.064 34.752 8.064 57.024zm-93.312 0c0 13.44.48 24.672 1.44 33.696 1.152 9.024 3.072 15.84 5.76 20.448 2.688 4.608 6.624 6.912 11.808 6.912s9.12-2.208 11.808-6.624c2.688-4.608 4.512-11.424 5.472-20.448 1.152-9.216 1.728-20.544 1.728-33.984 0-13.632-.576-24.96-1.728-33.984-.96-9.216-2.784-16.128-5.472-20.736-2.688-4.608-6.624-6.912-11.808-6.912s-9.12 2.304-11.808 6.912c-2.688 4.608-4.608 11.52-5.76 20.736-.96 9.024-1.44 20.352-1.44 33.984z" fill="#FF4D00"/></svg>