<svg width="18" height="18" fill="none" xmlns="http://www.w3.org/2000/svg"><path d="M9 17.063c-.45 0-.892-.105-1.252-.308L4.2 14.708c-1.47-.99-1.567-1.17-1.567-2.723v-3.72c0-1.553.097-1.733 1.537-2.7l3.585-2.07c.713-.413 1.785-.413 2.498 0L13.8 5.543c1.47.99 1.568 1.17 1.568 2.722v3.72c0 1.553-.098 1.732-1.538 2.7l-3.585 2.07c-.352.21-.802.308-1.245.308zm0-12.75c-.255 0-.51.052-.69.157L4.763 6.518C3.758 7.2 3.758 7.2 3.758 8.264v3.72c0 1.065 0 1.065 1.042 1.77l3.518 2.025c.36.21 1.012.21 1.372 0l3.548-2.047c1.005-.683 1.005-.683 1.005-1.748v-3.72c0-1.065 0-1.065-1.043-1.77L9.683 4.47c-.173-.105-.428-.157-.683-.157z" fill="#fff"/><path d="M13.125 6.285a.567.567 0 01-.563-.563V3.75c0-1.185-.502-1.688-1.687-1.688h-3.75c-1.185 0-1.688.503-1.688 1.688v1.92a.562.562 0 11-1.125 0V3.75c0-1.815.998-2.813 2.813-2.813h3.75c1.815 0 2.813.998 2.813 2.813v1.973a.567.567 0 01-.563.562zm-2.902 6.938c-.157 0-.322-.03-.487-.098L9 12.84l-.735.293c-.398.157-.803.12-1.103-.098-.3-.217-.457-.592-.435-1.02l.045-.788-.502-.607c-.27-.337-.36-.727-.24-1.087.112-.353.42-.623.832-.728l.765-.195.428-.667c.457-.72 1.44-.72 1.897 0l.428.667.765.195c.412.105.72.375.832.728.113.352.023.75-.247 1.08l-.503.607.045.787c.023.428-.135.796-.435 1.02a1.05 1.05 0 01-.615.196zM7.141 9.9l.502.607c.173.203.27.526.255.788l-.045.787.735-.292a1.2 1.2 0 01.825 0l.735.293-.045-.788a1.21 1.21 0 01.255-.787l.503-.608-.765-.195a1.237 1.237 0 01-.668-.48l-.42-.66-.427.66a1.22 1.22 0 01-.668.488l-.772.187z" fill="#fff"/></svg>