<svg width="22" height="22" fill="none" xmlns="http://www.w3.org/2000/svg"><path d="M14 21.75H8C2.57 21.75.25 19.43.25 14V8C.25 2.57 2.57.25 8 .25h6c5.43 0 7.75 2.32 7.75 7.75v6c0 5.43-2.32 7.75-7.75 7.75zm-6-20C3.39 1.75 1.75 3.39 1.75 8v6c0 4.61 1.64 6.25 6.25 6.25h6c4.61 0 6.25-1.64 6.25-6.25V8c0-4.61-1.64-6.25-6.25-6.25H8z" fill="#292D32"/><path d="M9.58 14.58a.75.75 0 01-.53-.22l-2.83-2.83a.754.754 0 010-1.06c.29-.29.77-.29 1.06 0l2.3 2.3 5.14-5.14c.29-.29.77-.29 1.06 0 .29.29.29.77 0 1.06l-5.67 5.67a.75.75 0 01-.53.22z" fill="#292D32"/></svg>