<svg width="320" height="50" fill="none" xmlns="http://www.w3.org/2000/svg"><path d="M142.4 17.5V8.437h-3.2v9.375c0 1.563-.64 3.125-1.92 4.375-1.28.938-3.2 1.563-5.44 1.563s-3.84-.625-5.44-1.875c-1.28-.938-1.92-2.5-1.92-4.063V8.437h-3.2v8.75c0 2.5.96 5 2.88 6.25 1.6 1.563 4.48 2.188 7.68 2.188 3.2 0 6.08-.625 7.68-2.188 1.92-1.25 2.88-4.062 2.88-6.25v.313zM160 .625v25h3.2v-25H160zm20.8 0v25h3.2v-25h-3.2zm38.4 10.625c-1.92-2.188-4.48-3.125-7.68-3.125-3.2 0-5.44.625-7.36 1.875-.32.625-2.24 1.562-2.24 5.625v9.687h3.2v-9.375c0-3.125.64-3.75 1.6-4.375 1.28-.937 2.56-1.25 4.48-1.25 2.24 0 3.52.313 4.8 1.25.96.938 1.6 1.875 1.6 3.125v10.625h3.2V14.687c0-1.25.32-2.187 1.6-3.125.96-.937 2.56-1.25 4.48-1.25 2.24 0 3.52.313 4.8 1.25.96.938 1.6 1.875 1.6 3.125v10.625h3.2v-9.375c0-3.125-.96-4.687-2.56-5.937s-4.16-1.875-7.04-1.875c-3.2 0-5.76.937-7.68 3.125zm99.2 25.625V15.937c0-2.187-1.28-4.062-3.2-5.625-1.6-1.562-4.16-2.187-7.36-2.187s-6.08.625-8 2.187c-2.24 2.188-2.56 3.438-2.56 5.313v9.687h3.2V15c0-1.25.64-2.5 1.92-3.125a9.769 9.769 0 015.44-1.563c2.24 0 3.84.625 5.44 1.563 1.28.937 1.92 2.187 1.92 3.75v21.25m-214.72-26.25c-2.24-1.563-5.44-2.5-9.28-2.5-10.24 0-13.44 5.625-12.8 10.625v18.125h3.2V22.812c.96.938 5.76 3.125 9.6 3.125a16.288 16.288 0 009.28-2.5c2.24-1.562 3.2-3.75 3.2-6.25 0-3.125-.96-5-3.2-6.562zm-2.24 10.937c-1.6 1.25-4.16 2.188-7.04 2.188-3.2 0-9.6-2.188-9.6-6.25 0-1.563.64-3.75 2.24-5 1.6-1.563 4.16-2.188 7.36-2.188s5.44.625 7.04 1.875c1.6 1.25 2.56 2.813 2.56 4.688 0 2.187-.96 3.75-2.56 4.687zm179.2-9.687c-1.92-2.188-6.4-3.75-10.56-3.75-3.84 0-7.04.937-9.28 2.5-2.24 1.562-3.2 3.75-3.2 6.25 0 2.812.96 5 3.2 6.562 2.56 1.563 4.48 2.5 9.6 2.5 4.48 0 8.32-2.5 9.6-3.437v3.125h2.56V17.5c0-3.125-.64-4.375-1.92-6.25v.625zm-3.52 9.375c-2.24 1.562-5.12 2.5-7.04 2.5-3.2 0-5.44-.625-7.04-2.188-1.6-.937-2.56-2.5-2.56-4.687 0-1.875.96-3.438 2.56-4.688 1.92-1.25 4.16-1.875 7.04-1.875 3.2 0 5.76.625 7.36 2.188 1.6 1.562 2.24 3.125 2.24 5.312 0 1.563-.96 2.813-2.56 3.75v-.312zM93.76 46.875v1.875H96v-5h-2.24v2.187h-3.2V43.75h-1.92v5.312h1.92v-2.187m31.04-2.188v-.937h-6.4V45h2.24v4.062h1.92V45m10.24 2.187h3.52v-1.25h-3.52V45h3.84v-1.25h-6.08v5.312h6.4v-1.25h-4.16m12.16-3.75h-1.92v5h5.76v-1.25h-3.84m51.2-.312l-3.2-3.438h-3.2v5h2.24v-3.437l3.2 3.437h2.56V43.75h-1.92v.312M240 46.875h3.84v-1.25H240v-.938h3.84v-.937h-5.76v5.312h5.76v-1.25H240M293.44 45h2.24v-1.25h-6.72V45h2.24v4.062h2.24m-26.88-5.312c-2.56 0-3.84.312-3.84 2.187v1.25c0 1.875 1.6 2.188 3.84 2.188 1.92 0 3.52 0 3.52-2.188v-1.25c0-1.875-1.6-2.187-3.52-2.187zm1.6 3.125c0 .937 0 1.25-1.6 1.25s-1.6 0-1.6-.938v-1.25c0-.625 0-.937 1.6-.937l1.28.312v.625m14.72.938c.64 0 .64-.625.64-1.25 0-1.563-.96-1.875-2.56-1.875h-4.48v5.312h2.24V47.5h1.92c.96 0 .96.312.96.625v.937h1.92v-.937c0-.625 0-.938-.64-1.25zM280 46.25h-1.6V45h1.92c.96 0 .96 0 .96.625s0 .625-1.28.625zm-74.88-2.5h-3.52v5.312h4.16c2.24 0 3.2-.625 3.2-1.875v-1.25c0-1.875-1.6-2.187-3.2-2.187h-.64zm1.6 3.125c0 .625 0 .937-1.28.937h-2.24V45h1.92c1.28 0 1.6.312 1.6.937v1.25-.312zm24.32 0c.64 0 .64-.625.64-1.25 0-1.563-.96-1.875-2.56-1.875h-4.48v5.312h2.24V47.5h1.92c.96 0 .96.312.96.625v.937h1.92v-.937c0-.625 0-.938-.64-1.25zm-2.56-.625h-1.28V45h1.6c1.28 0 1.28 0 1.28.625s0 .625-1.28.625h-.32zm-47.36 2.5l-2.88-4.688h-2.56l-2.88 4.688v.312h1.92l.64-.625h3.2l.32.625h2.24v-.312zM176 46.875l.96-1.875.96 1.875m-72-3.125c-2.56 0-3.84 0-3.84 1.875v1.25c0 1.875 1.6 2.187 3.84 2.187 1.92 0 3.52 0 3.52-2.187v-1.25c0-1.875-1.6-2.188-3.52-2.188v.313zm1.6 3.125c0 .625 0 .937-1.6.937s-1.6 0-1.6-.937v-1.25c0-.625 0-.938 1.6-.938l1.28.313v.625M158.08 45c0-1.563-1.92-1.563-3.2-1.563-1.92 0-3.84 0-3.84 1.563 0 1.562 1.6 1.562 3.2 1.875h.64l1.28.312c0 .625 0 .625-1.28.625l-1.6-.312h-2.24l.32.937c.64.625 1.92.625 3.2.625 1.6 0 3.52 0 3.52-1.875 0-1.562-1.28-1.562-3.2-1.562-1.6 0-1.92 0-1.92-.625l1.6-.313h1.28m100.8 0c0-1.25-1.6-1.25-3.2-1.25s-3.2 0-3.2 1.563c0 1.562 1.28 1.562 2.88 1.875h.64l1.28.312c0 .625 0 .625-1.6.625l-1.6-.312h-1.92l.32.937c.64.625 1.92.625 3.2.625 1.6 0 3.2 0 3.2-1.875 0-1.562-.96-1.562-3.2-1.562-1.28 0-1.6 0-1.6-.625l1.6-.313h1.28m53.44 0c0-1.25-1.92-1.25-3.2-1.25-1.92 0-3.84 0-3.84 1.563 0 1.562 1.6 1.562 3.2 1.875h.64l1.28.312c0 .625 0 .625-1.28.625l-1.6-.312h-2.56l.32.937c.64.625 1.92.625 3.2.625 1.6 0 3.52 0 3.52-1.875 0-1.562-1.28-1.562-3.2-1.562-1.6 0-1.92 0-1.92-.625l1.6-.313h1.28M44.48 41.562l-1.92-1.875-8.96 8.125a26.059 26.059 0 0010.88-6.25zm-6.4-6.25L23.36 48.75c1.49.126 2.99.126 4.48 0L40 37.5m-6.72-6.563L16 46.875l3.2 1.25 16-15m-6.4-6.25L9.92 43.75l2.88 1.875L30.72 28.75M24 22.5L5.44 39.375l2.24 2.5 18.56-17.5m-7.04-6.25L1.92 33.75l1.6 3.125L21.76 20m-7.04-6.25L.32 26.875c0 1.25.32 2.5.96 3.437l16-15m-6.72-5.937l-9.28 7.812A22.025 22.025 0 00.32 22.5L12.8 11.25m30.08 28.437l8-7.5a22.97 22.97 0 00.96-5.312L40.32 37.5m-2.24-2.188L51.84 22.5a23.243 23.243 0 00-.64-3.75L35.84 33.125m-2.24-2.188l16.64-15.625a23.906 23.906 0 00-1.6-2.812L31.36 28.75m-2.56-2.188L46.72 10a25.053 25.053 0 00-1.92-2.5L26.56 24.375m-2.24-2.188L42.24 5.625a24.045 24.045 0 00-2.88-1.875L22.4 20m-3.2-2.188L36.16 2.187a26.387 26.387 0 00-3.2-.937l-16 14.375m-2.24-2.188L29.12.625c-.96-.05-1.92-.05-2.88 0h-1.6L12.8 10.937m6.08-9.687A26.398 26.398 0 008.32 7.187l2.24 1.875" fill="#B0BAC8"/></svg>