<svg width="174" height="66" fill="none" xmlns="http://www.w3.org/2000/svg"><path d="M171.124 4.017v58.54H3.595V4.017h167.529zM174 1.147H.719v64.28H174V1.146z" fill="#B0BAC8"/><path d="M46.304 17.648v30.13l2.3.287v1.722H36.958v-1.722l2.445-.287V34.004h-15.1v13.774l2.445.287v1.722H15.1v-1.722l2.3-.287v-30.13l-2.3-.287v-1.722h11.504v1.578l-2.3.287v12.913h15.099V17.504l-2.445-.287v-1.721h11.648v1.721l-2.3.287v.144zm16.825.143c0 2.44-1.438 4.018-3.739 4.018-2.157 0-3.739-1.435-3.739-3.874 0-2.152 1.582-3.874 3.739-3.874s3.883 1.722 3.883 3.73h-.144zm-.72 30.13l2.302.288v1.578H53.78v-1.435l2.302-.43V27.404l-2.301-.287v-1.434h8.628v22.239zm6.903.288l2.157-.287V16.357l-2.157-.287v-1.435h8.628v33.287l2.157.287v1.578H69.313v-1.578zm24.015-22.67h5.752v2.296h-5.752v14.348c0 3.874.72 5.021 4.314 5.021 1.15 0 2.301 0 3.308-.287v1.579c-3.164 1.148-5.752 1.578-7.91 1.578-5.032 0-6.183-2.152-6.183-6.457V27.835h-4.458v-2.296h4.746v-5.022l6.183-1.865v6.887zm27.754 12.196c0-7.748-2.301-11.048-6.04-11.048-3.595 0-6.039 3.3-6.039 11.048s2.444 11.048 6.039 11.048c3.883 0 6.04-2.87 6.04-10.905v-.143zm7.19.143c0 7.605-5.321 12.77-13.374 12.77-7.765 0-12.942-3.3-12.942-12.77 0-7.747 5.321-12.913 13.374-12.913 8.053-.143 12.942 4.592 12.942 12.913zm30.486 10.33v1.579h-10.641v-1.435l2.157-.43V34.004c0-3.73-1.438-5.595-4.314-5.595-1.438 0-3.595 1.004-5.177 2.152v17.217l2.301.43v1.436h-10.929v-1.435l2.157-.287V27.548l-2.157-.287v-1.722h8.628v3.157c2.588-2.152 5.32-3.874 8.915-3.874 4.89 0 7.047 2.87 7.047 8.322v14.634l2.157.287-.144.144z" fill="#B0BAC8"/></svg>