<svg width="221" height="56" fill="none" xmlns="http://www.w3.org/2000/svg"><path d="M14.273 26.911c.369-.36.655-.797.841-1.28a3.622 3.622 0 00.233-1.52c0-1.4-.307-2.333-1.228-3.111-.767-.467-1.841-.778-3.376-.778H4.604V28h6.139c1.535 0 2.609-.311 3.53-1.089z" fill="#B0BAC8"/><path d="M42.205 42.311v-11.2h-11.05v11.2h-5.986V14.622h6.14v10.89h10.896v-10.89h4.758A26.906 26.906 0 0037.154 4.36 26.433 26.433 0 0023.558.589c-4.784 0-9.48 1.302-13.597 3.77A26.906 26.906 0 00.153 14.623h11.204c3.53 0 6.139.934 7.98 2.8 1.535 1.556 2.456 3.734 2.303 6.223v.155c0 2.333-.46 4.044-1.535 5.444a9.366 9.366 0 01-4.297 3.112l6.752 9.955h-7.213l-5.832-8.867H4.911v8.867H1.074a26.846 26.846 0 009.656 9.057 26.42 26.42 0 0012.751 3.285c4.454 0 8.838-1.129 12.751-3.285a26.847 26.847 0 009.656-9.057h-3.837.154zm178.488-10.889H60.468v.778h160.225v-.778zM91.776 8.556L95 16.8h-6.752l3.376-8.244h.153zM89.781 2.8l-9.669 23.645h4.298l2.148-5.6h10.13l2.148 5.6h4.604L93.618 2.8h-3.837zm31.462 11.978c0 4.51-2.916 7.466-7.213 7.466h-3.99V7.156h3.99c4.297 0 7.213 3.11 7.213 7.622zM114.03 2.956h-8.288v23.488h8.288c6.753 0 11.664-4.977 11.664-11.822.153-6.689-4.911-11.51-11.664-11.51v-.156zm79.345 11.822c0 4.51-3.069 7.778-7.06 7.778-3.99 0-7.213-3.267-7.213-7.778 0-4.667 3.07-7.934 7.06-7.934 4.144 0 7.213 3.423 7.213 7.778v.156zm-7.06-12.134a11.372 11.372 0 00-4.561.885 11.505 11.505 0 00-3.846 2.64 11.694 11.694 0 00-2.503 3.964 11.82 11.82 0 00-.754 4.645c0 6.844 5.065 12.133 11.511 12.133 6.599 0 11.664-5.289 11.664-12.289s-4.911-11.978-11.511-11.978zm-112.034 8.09c0 2.177-1.689 3.577-4.298 3.577h-5.371V7.156h5.371c2.61 0 4.144 1.244 4.144 3.577h.154zm4.143-.156c0-4.667-3.07-7.622-8.134-7.622h-9.975v23.488h4.297v-7.777h4.45l5.219 7.933h5.064l-5.678-9.022a6.91 6.91 0 003.639-2.647 7.068 7.068 0 001.272-4.353m54.943-7.622h-4.144v23.488h4.144V2.956zm13.198 9.644c-3.99-1.089-4.911-1.711-4.911-3.267 0-1.555 1.382-2.489 3.223-2.489a9.14 9.14 0 015.832 2.334l.154.155 2.302-3.422-.154-.155a11.874 11.874 0 00-7.98-2.956c-4.604 0-7.674 2.8-7.674 7 0 4.356 2.763 5.911 7.367 7.156 3.99.933 4.604 1.71 4.604 3.11 0 1.712-1.228 2.8-3.53 2.8-2.302 0-4.297-.933-6.599-2.955h-.154l-2.609 3.111.154.156a13.104 13.104 0 009.208 3.733c4.758 0 7.981-2.8 7.981-7.155 0-3.578-2.149-5.6-7.214-7m18.724 0c-4.144-1.09-4.911-1.712-4.911-3.423 0-1.555 1.228-2.489 3.223-2.489a9.142 9.142 0 015.832 2.334v.155l2.455-3.422-.153-.155a11.875 11.875 0 00-7.981-2.956c-4.604 0-7.673 2.8-7.673 7 0 4.356 2.762 5.911 7.366 7.156 3.991.933 4.605 1.71 4.605 3.11 0 1.712-1.228 2.8-3.53 2.8-2.456 0-4.451-.933-6.6-2.955h-.153l-2.609 3.111v.156a13.105 13.105 0 009.208 3.733c4.911 0 8.134-2.8 8.134-7.155 0-3.578-2.148-5.6-7.213-7zm50.953-9.645v15.556L205.346 3.11h-3.99v23.334h4.143V10.578l11.511 15.71v.157h3.683V3.11h-4.297z" fill="#B0BAC8"/><path d="M220.693 31.578H60.468v.622h160.225v-.622zm-160.378 5.6h2.762V43.4h7.213v-6.222h2.61v15.4h-2.61v-6.534h-7.213v6.534h-2.762V37.022v.156zm28.852 7.778a7.87 7.87 0 01.52-3.147 7.788 7.788 0 011.722-2.67 7.666 7.666 0 012.634-1.746 7.584 7.584 0 013.105-.526 7.587 7.587 0 012.984.546 7.66 7.66 0 012.541 1.676 7.797 7.797 0 011.704 2.543c.395.954.598 1.978.598 3.012v.156a7.873 7.873 0 01-.566 3.098 7.79 7.79 0 01-1.733 2.617 7.655 7.655 0 01-2.614 1.705 7.582 7.582 0 01-3.068.513 7.582 7.582 0 01-2.983-.546 7.664 7.664 0 01-2.542-1.676 7.783 7.783 0 01-1.703-2.543 7.867 7.867 0 01-.599-3.013zm13.045 0c0-3.112-2.148-5.6-5.218-5.6-3.069 0-4.91 2.644-4.91 5.444 0 3.111 2.148 5.444 5.217 5.444 3.07 0 5.065-2.333 5.065-5.288h-.154zm23.021-5.29h-4.757v-2.488h12.277v2.489h-4.757v12.91h-2.763v-12.91zm25.784-2.488h11.203v2.333h-8.594v4.044h7.673v2.49h-7.673v4.044h8.748v2.489h-11.357V37.022v.156zm31.308 0h2.609v12.91h7.981v2.49h-10.743V37.022l.153.156zm26.858 13.066l1.534-1.866c1.535 1.244 3.07 2.022 4.911 2.022 1.535 0 2.763-.778 2.763-2.022 0-1.09-.614-1.556-3.53-2.334-3.069-.777-5.064-1.866-5.064-4.666 0-2.645 2.148-4.511 5.218-4.511a8.374 8.374 0 015.525 2.022l-1.535 2.022c-1.228-1.089-2.609-1.556-3.99-1.556-1.535 0-2.456.778-2.456 1.712 0 1.244.614 1.866 3.53 2.489 3.223.777 4.911 2.022 4.911 4.666 0 2.8-2.302 4.667-5.372 4.667a9.296 9.296 0 01-6.445-2.645z" fill="#B0BAC8"/></svg>