<svg width="122" height="56" fill="none" xmlns="http://www.w3.org/2000/svg"><g clip-path="url(#clip0_425_4066)"><path d="M33.672 23.86c-3.416 0-6.832-.973-9.76-3.408a11.178 11.178 0 01-1.645-15.559 11.222 11.222 0 014.573-3.432c4.88-1.948 9.76-1.948 14.396 0 2.928 1.46 4.88 3.896 6.1 7.304 1.708 6.574-1.952 12.661-8.784 14.365l-4.636.73h-.244zm-7.32-12.173c0 2.435.732 4.87 1.952 6.33 2.44 3.896 7.32 4.14 10.248.73a9.73 9.73 0 002.44-5.6c0-3.164-.488-6.33-2.928-8.52-2.44-2.68-6.1-2.68-8.784 0-1.952 1.947-2.684 4.382-2.684 6.817l-.244.243zM122 .73v2.435h-12.2c-.976 0-1.464.487-1.464 1.705v4.87H122v2.434h-13.664v6.574c0 .974.488 1.46 1.464 1.46H122v2.436h-17.568c-1.464 0-2.44-.974-2.44-2.435-.022-5.52-.022-11.038 0-16.557 0-1.704.732-2.678 2.44-2.678h17.324L122 .73zM48.8 3.165V.73h23.424v2.435H64.66V22.4h-6.832V4.626c0-1.217 0-.974-.976-.974H48.8v-.487zm25.864 0V.73h23.424v2.435H89.06V22.4h-6.832V4.139c0-.73 0-.974-.732-.974h-6.832zM0 1.217h6.588v17.287c0 1.461.244 1.705 1.708 1.705h10.98v2.678H2.928C.976 22.643 0 21.913 0 19.722V.974v.243zm61 32.627H19.764l.732-.488h80.276l.488.244-.244.243h-40.26H61zm0 20.695h39.772l.732.244-.732.243H20.008l1.22-.487H61zm40.504-6.574h-1.22v-7.304h4.148c1.22 0 1.952.73 2.196 1.704 0 1.218-.244 2.191-1.464 2.678h-.244l1.952 2.922c-.976.244-1.464 0-1.952-.73l-.976-1.461a1.222 1.222 0 00-.732-.244c-1.464 0-1.464 0-1.464.974v1.461h-.244zm0-3.895h2.44c.732 0 1.22-.487 1.22-1.218a1.219 1.219 0 00-1.22-1.217 12.232 12.232 0 00-1.952 0l-.244.487v1.948h-.244zm-88.328 3.895c-2.44 0-3.904-1.704-3.904-3.895 0-2.435 1.708-4.14 3.904-4.14 2.44 0 4.148 1.948 4.148 4.14 0 2.19-1.708 3.895-4.148 3.895zm2.44-3.895c0-1.705-.976-2.679-2.44-2.679s-2.44.974-2.44 2.435a2.43 2.43 0 001.378 2.703c.333.151.696.226 1.062.219 1.464 0 2.44-1.218 2.44-2.678zm78.812 3.895c-2.44 0-4.148-1.704-4.148-3.895 0-2.435 1.708-4.14 4.148-4.14 2.44 0 3.904 1.705 3.904 4.14 0 2.434-1.708 3.895-4.148 3.895h.244zm-2.684-3.895c0 1.46.976 2.434 2.44 2.678 1.708 0 2.684-1.218 2.684-2.678 0-1.461-.976-2.679-2.44-2.679s-2.684.974-2.684 2.435v.244zm-21.96.974l1.952 2.434c-.976.487-1.464.487-1.952-.243l-.732-.974c-.488-1.218-1.22-1.218-2.44-.974v2.435h-1.22v-7.548l4.88.243c.732 0 1.22.974 1.22 1.948s0 1.705-.976 2.435h-.732v.244zm-3.172-3.653v2.435h2.44a1.22 1.22 0 00.976-1.217 1.216 1.216 0 00-1.22-1.218h-2.44.244zm-5.856 5.844l-1.22.73-.976-.974c-1.952 1.218-3.66 1.218-4.636 0-.732-1.217-.244-2.434 1.22-3.408-.732-1.705-.488-2.679.488-3.41 1.22-.486 2.44 0 2.928.731.732.974.244 1.948-1.22 3.166l1.22 1.217.732-1.46.976.486-.976 1.948 1.464.974zm-2.928-1.218L56.364 44.8l-.488-.243-.732.973c-.244.487 0 .974.488 1.218.732.243 1.464 0 2.44-.73h-.244zm-1.952-3.652l.732.73c.488 0 .976-.73.976-.973 0-.73 0-.974-.732-.974s-.976.243-.976 1.217zm-27.328.974h3.904v1.218h-3.66v1.947h4.148v1.218h-5.612v-7.305h5.612v.974h-3.172c-1.22 0-1.22 0-1.22 1.218v.73zm45.872-3.165h5.612v1.217H75.64v1.948h3.904v1.218H75.64v1.947h4.392v1.218H74.42v-7.548zm-74.42 0h1.22v3.165h3.66v-3.165H6.1v7.548H4.88V44.8H1.464v2.922H.244v-7.305L0 40.174zm48.312.974l-.732.73-1.464-.487a2.689 2.689 0 00-1.464 0l-.488.73.488.731 1.22.487 1.464.487c.732.244 1.22.974 1.22 1.704 0 .974-.488 1.705-1.22 2.192-1.464.73-3.66 0-4.88-.974l.732-.974c.488.243.976.73 1.708.73l1.22.244c.488 0 .976-.244.976-.73 0-.731-.244-.974-.732-1.218l-2.44-.487c-.976-.487-1.22-1.46-.976-2.435 0-.974.732-1.46 1.708-1.704a4.157 4.157 0 013.66.974zm34.404 4.87l2.44.73c.732 0 1.22 0 1.22-.73.244-.731-.244-.974-.732-1.218l-2.196-.487c-.732-.487-1.22-.974-1.22-1.948s.488-1.704 1.22-1.948c1.22-.73 3.172-.243 4.148.73l-.732.731-1.464-.487a2.2 2.2 0 00-1.22 0 1.218 1.218 0 00-.488.73c0 .244 0 .731.488.731.488.487 1.22.487 1.952.73 1.22.488 1.952 1.218 1.708 2.435 0 1.218-1.22 1.948-2.44 1.948a4.645 4.645 0 01-3.416-1.217l.732-.974v.243zm33.184.73l.488-.73 2.684.73c.732 0 1.22 0 1.22-.73 0-.731-.244-.974-.732-1.218l-1.952-.487c-1.22-.487-1.464-.974-1.464-2.191 0-.974.732-1.705 1.708-1.948a4.158 4.158 0 013.66.974l-.732.974-.732-.487-1.708-.244-.732.73.488.975 1.952.487c1.464.487 1.952 1.217 1.708 2.434 0 .974-.976 1.705-2.196 1.948-1.464 0-2.44 0-3.66-1.217zm-3.904.974h-1.22v-5.6c0-.487-.244-.73-.732-.73h-1.708v-1.218h6.344v1.217h-2.44v6.33h-.244zm-90.036 0h-1.464v-6.33h-2.44v-1.218H24.4v1.217h-2.44v6.33zm13.908-7.305h1.22v5.844h3.904v1.217h-5.124v-7.304.243z" fill="#B0BAC8"/></g><defs><clipPath id="clip0_425_4066"><path fill="#fff" d="M0 0h122v56H0z"/></clipPath></defs></svg>