<svg width="130" height="61" fill="none" xmlns="http://www.w3.org/2000/svg"><path d="M15.72 59.3c-1.792 0-2.688-.9-2.688-2.7V16.55h8.064c2.24 0 2.688.9 2.688 2.7V59.3H15.72zm0-49.05c-1.792 0-2.688-.9-2.688-2.7V.35h8.064c2.24 0 2.688.9 2.688 2.7v7.2H15.72zm26.88 40.5c2.24.9 4.032.9 5.376.9 7.168 0 9.856-4.5 9.856-13.5s-2.24-13.5-7.168-13.5c-2.688 0-5.376 1.35-7.616 3.6v22.5H42.6zM32.744.35h7.616c1.792 0 2.688.9 2.688 2.7v17.1c2.688-2.7 6.72-4.5 10.752-4.5 11.648 0 15.232 9 15.232 20.7 0 14.4-5.824 23.4-21.504 23.4-4.48 0-8.96-.45-12.544-1.8-2.24-.45-2.688-.9-2.688-2.7V.35h.448zm45.696 58.5c-1.792 0-2.688-.45-2.688-2.25V16.55h8.064c1.792 0 2.688.9 2.688 2.7V59.3H78.44v-.45zm0-48.6c-1.792 0-2.688-.9-2.688-2.7V.35h8.064c1.792 0 2.688.9 2.688 2.7v7.2H78.44zm43.008 36.45c0 8.1-6.272 13.05-15.68 13.05-3.631.1-7.257-.355-10.752-1.35a3.141 3.141 0 01-1.393-1.29 3.161 3.161 0 01-.399-1.86v-5.4l10.752 1.8c4.928 0 6.72-1.35 6.72-4.5 0-6.3-17.92-4.5-17.92-18.9 0-6.75 4.48-12.15 14.336-12.15 4.48 0 7.616.45 10.304 1.35.896.45 1.792 1.8 1.792 3.15V26c-3.136-1.35-7.168-1.8-9.856-1.8-4.928 0-6.272 1.35-6.272 3.6 0 5.4 18.368 4.5 18.368 18.9z" fill="#B0BAC8"/></svg>