<svg width="24" height="24" fill="none" xmlns="http://www.w3.org/2000/svg"><g clip-path="url(#clip0_562_8182)"><path d="M9.629 14.855c-.357.369-.688.706-1 1.05a.637.637 0 00-.12.33.522.522 0 000 .28 1.98 1.98 0 01-.828 2.464c-.502.394-.903.91-1.374 1.349-.121.114-.363.242-.471.19a.77.77 0 01-.319-.457 2.712 2.712 0 01-.114-.783c0-.484-.172-.72-.681-.713a3.855 3.855 0 01-.93-.134c-.4-.089-.508-.394-.228-.68a70.965 70.965 0 012.303-2.285.795.795 0 01.599-.147C8 15.523 8 15.53 9.01 14.415a.758.758 0 01.039-.076c-.077-.089-.16-.197-.255-.293L3.837 9.095a1.368 1.368 0 00-.452-.312 7.446 7.446 0 01-3.074-2.17A1.082 1.082 0 01.362 4.99a1.133 1.133 0 011.636.108 19.2 19.2 0 001.801 1.4.84.84 0 001.031-.083c2.412-1.642 4.964-1.654 7.536-.458a34.58 34.58 0 013.182 1.91 1.222 1.222 0 00.566-1.222c-.2-1.383-.137-2.79.185-4.15.155-.51.393-.993.706-1.426a2.209 2.209 0 012.38-.999 2.546 2.546 0 011.808 2.075c0 .165.044.337.076.56l.586.076a2.45 2.45 0 012.036 1.782 2.221 2.221 0 01-.954 2.419 4.455 4.455 0 01-2.546.872c-.969.05-1.94.05-2.909 0a1.311 1.311 0 00-1.438.68l.566.72a9.547 9.547 0 012.215 6.002 6.62 6.62 0 01-1.273 3.9.77.77 0 00-.095.95c.465.636.961 1.272 1.476 1.909a1.102 1.102 0 01.179 1.412 1.114 1.114 0 01-1.273.497 1.183 1.183 0 01-.395-.236 7.53 7.53 0 01-2.215-3.1 1.044 1.044 0 00-.203-.355l-5.397-5.378zm4.22-5.29a8.796 8.796 0 00-3.73-2.042 4.926 4.926 0 00-3.551.464c-.58.319-1.14.675-1.617.961l4.754 4.761 4.143-4.143zm-3.552 4.704l4.748 4.786c.254-.426.547-.897.808-1.394.229-.39.413-.803.548-1.234.636-2.508-.478-4.455-1.967-6.295l-4.137 4.137zm8.535-7.077c.458-.032.992-.032 1.52-.096a3.685 3.685 0 002.4-.935 1.47 1.47 0 00-.203-2.317 1.954 1.954 0 00-1.426-.337c-.586.064-.694-.05-.637-.636a3.18 3.18 0 000-.694A1.667 1.667 0 0019.264.82a1.387 1.387 0 00-1.559.637c-.264.346-.46.739-.579 1.158a12.092 12.092 0 00-.184 4.194.496.496 0 00.35.312c.464.032.967.038 1.54.07zm-9.7-.566a9.55 9.55 0 011.146.178 9.451 9.451 0 016.46 5.537 5.76 5.76 0 01-.547 6.167 1.908 1.908 0 00-.28 1.7 6.3 6.3 0 001.992 2.901c.235.217.502.153.585-.146.044-.134-.09-.37-.21-.497a6.116 6.116 0 01-1.598-2.284 1.408 1.408 0 01.198-1.369 5.97 5.97 0 001.075-5.028 9.987 9.987 0 00-6.205-7.28c-2.17-.923-4.36-.917-6.364.458A1.827 1.827 0 013.099 7c-.605-.407-1.127-.942-1.712-1.387-.121-.09-.344-.045-.522-.058 0 .178-.095.427 0 .529a6.364 6.364 0 002.711 1.947 2.075 2.075 0 002.037-.337 5.677 5.677 0 013.52-1.07zM6.147 19.354h.14c.355-.394.731-.768 1.127-1.12a1.272 1.272 0 00.433-1.305c-.058-.528-.293-.712-.777-.725-.26 0-.636-.14-.763 0-.573.484-1.082 1.056-1.757 1.737 1.28-.273 1.718.312 1.597 1.388v.025z" fill="#000"/></g><defs><clipPath id="clip0_562_8182"><path fill="#fff" d="M0 0h24v23.987H0z"/></clipPath></defs></svg>