<svg width="24" height="21" fill="none" xmlns="http://www.w3.org/2000/svg"><g clip-path="url(#clip0_562_8183)" fill="#000"><path d="M12 20.99a17.84 17.84 0 01-5.759-.868 5.61 5.61 0 01-2.605-1.737A5.325 5.325 0 012.42 15.56a.542.542 0 00-.136-.337.575.575 0 00-.323-.183 2.778 2.778 0 01-1.405-.974 2.628 2.628 0 01-.537-1.588c0-.572.188-1.128.537-1.589.35-.46.841-.802 1.405-.974a.54.54 0 00.342-.218.506.506 0 00.084-.389 9.2 9.2 0 012.646-6.307A9.819 9.819 0 0111.398.094a9.905 9.905 0 016.718 2.03c1.896 1.468 3.153 3.572 3.52 5.895.067.476.078.953.1 1.44a.346.346 0 00.068.27.366.366 0 00.247.143 2.793 2.793 0 011.466.981 2.64 2.64 0 01.553 1.64 2.643 2.643 0 01-.588 1.628c-.375.466-.897.8-1.488.952-.403.12-.313.4-.358.64a5.19 5.19 0 01-.793 2.112 5.387 5.387 0 01-1.627 1.604 8.82 8.82 0 01-3.855 1.29c-1.154.13-2.252.184-3.36.27zm.168-19.982a4.7 4.7 0 012.073 2.08 2.9 2.9 0 01-.291 3.392 2.729 2.729 0 01-1.23.882 2.822 2.822 0 01-1.527.104 2.365 2.365 0 01-1.176-.539 2.246 2.246 0 01-.695-1.065 1.975 1.975 0 01.194-1.8c.173-.266.408-.489.685-.652.278-.163.59-.262.914-.29.347 0 .616.088.65.445.033.358-.224.455-.527.51-.728.151-1.12.541-1.042 1.083.017.288.124.564.306.792.181.228.43.398.714.487.317.077.648.077.965-.002a1.97 1.97 0 00.846-.448c.239-.216.418-.486.52-.786.103-.3.125-.62.067-.932A3.554 3.554 0 0012.6 2.46a3.75 3.75 0 00-1.877-.974 2.961 2.961 0 00-1.367-.109 8.527 8.527 0 00-4.103 2.649A8.084 8.084 0 003.361 8.43a64.715 64.715 0 00-.067 6.08c.09 2.784 1.289 4.215 4.101 4.93 1.136.261 2.295.421 3.462.477a17.146 17.146 0 006.073-.564 4.665 4.665 0 002.652-1.577 4.394 4.394 0 001.023-2.844c.101-2.07.112-4.15 0-6.209a8.203 8.203 0 00-2.667-5.444 8.75 8.75 0 00-5.77-2.271zm-9.86 9.882a1.653 1.653 0 00-.985.623 1.55 1.55 0 00-.303 1.1c0 .356.128.7.363.974.236.273.563.458.925.521V10.89zm19.395 3.251a1.66 1.66 0 00.998-.642c.239-.326.342-.728.29-1.124a1.498 1.498 0 00-.369-.965 1.592 1.592 0 00-.919-.52v3.251z"/><path d="M11.9 15.918a3.822 3.822 0 01-2.376-.932c-.269-.228-.403-.488-.134-.78.269-.293.515-.163.773 0 .497.462 1.16.72 1.849.72.689 0 1.351-.258 1.848-.72.258-.195.527-.293.773 0 .247.292.124.53-.123.747a3.987 3.987 0 01-2.61.965zm-4.92-2.157a.957.957 0 01-.666-.27.896.896 0 01-.264-.65.918.918 0 01.29-.646.98.98 0 01.674-.265c.25.014.487.118.661.293a.949.949 0 01.28.65.908.908 0 01-.299.638.97.97 0 01-.676.25zm10.05 0a.982.982 0 01-.68-.25.92.92 0 01-.305-.638.949.949 0 01.28-.65c.174-.175.41-.28.661-.293a.982.982 0 01.677.258c.182.168.29.398.298.642a.873.873 0 01-.26.657.931.931 0 01-.67.274z"/></g><defs><clipPath id="clip0_562_8183"><path fill="#fff" d="M0 0h24v21H0z"/></clipPath></defs></svg>