<svg width="24" height="15" fill="none" xmlns="http://www.w3.org/2000/svg"><g clip-path="url(#clip0_562_8179)" fill="#141B31"><path d="M19.671 12.754H1.814a1.182 1.182 0 00-1.026.925c0 .08.207.243.323.246.78.021 1.561 0 2.342.025.165 0 .327.165.489.253-.127.14-.253.394-.387.397-.918.035-1.839.043-2.76 0-.566-.024-1.006-.703-.686-1.16.76-1.08.907-2.37 1.385-3.545A15.743 15.743 0 013.861 5.83a.988.988 0 00.186-.545c.022-.703 0-1.435 0-2.152a1.01 1.01 0 011.073-1.09h.84c.65-.05 1.133.162 1.344.868a15.121 15.121 0 014.649-1.684c2.11-.397 4.24-.703 6.36-1.055.307-.05.623-.06.926-.13.57-.13 1.055-.063 1.406.489.387-.151.746-.296 1.108-.426a.904.904 0 011.276.591c.229.563.444 1.132.654 1.699.26.703.078 1.08-.615 1.36-.186.074-.352.155-.538.225.352 1.084.724 2.139 1.03 3.211.184.676.323 1.363.419 2.057.134.858-.352 1.407-1.238 1.407h-1.734c-.4 0-.57.169-.566.562v2.388c0 .675-.323 1.006-1.005 1.006H2.626c-.256 0-.544 0-.537-.352.007-.351.302-.334.552-.334h16.158c1.02.01 1.097-.07.872-1.17zm.07-.703v-.63c0-1.09.38-1.47 1.456-1.473h1.544c.4 0 .584-.162.531-.566-.021-.155-.025-.313-.053-.464a23.105 23.105 0 00-2.658-7.188c-.433-.788-.872-1.104-1.797-.914-2.272.45-4.59.703-6.854 1.16C6.583 3.08 3.256 6.368 1.712 11.537c-.045.159-.07.32-.112.51l18.141.004zm2.462-8.728a2.79 2.79 0 00.622-.243.499.499 0 00.197-.408 19.735 19.735 0 00-.65-1.691c-.042-.099-.243-.222-.33-.193a9.42 9.42 0 00-.978.38l1.139 2.155zM4.768 4.779c.605-.475 1.147-.88 1.664-1.319a.503.503 0 00.13-.436.489.489 0 00-.352-.278 4.026 4.026 0 00-1.055 0 .542.542 0 00-.352.376c-.06.531-.035 1.059-.035 1.657z"/><path d="M18.764 6.868c.104.324.163.661.176 1.002a1.024 1.024 0 01-.844 1.034 2.462 2.462 0 01-.51.045h-9.55c-.905 0-1.432-.467-1.351-1.22.04-.257.147-.5.31-.703a9.494 9.494 0 015.671-3.446 21.497 21.497 0 013.014-.303 2.16 2.16 0 012.085 1.164c.155.217.28.454.373.704l.626 1.723zm-1.29-1.52c-.447-1.121-1.295-1.487-2.462-1.406-2.866.193-5.384 1.111-7.321 3.327-.084.092-.16.192-.225.298-.197.352-.053.658.323.665.826.021 1.65 0 2.5 0 .12-1.55.254-1.674 1.758-1.674h2.462c1.016 0 1.333.313 1.36 1.34 0 .091 0 .183.026.33.66 0 1.311.029 1.955-.02.133 0 .313-.306.351-.493.04-.186-.116-.457-.102-.682l-.625-1.684zm-2.276 2.867v-.32c0-.563-.038-.602-.615-.605h-3.077c-.352 0-.513.154-.496.499 0 .137 0 .27.021.429l4.167-.003zm3.482 2.328a1.08 1.08 0 01-1.143 1.09 1.129 1.129 0 01-1.094-1.112 1.16 1.16 0 011.14-1.128 1.122 1.122 0 011.097 1.15zm-.798.232a.394.394 0 00-.022-.433.384.384 0 00-.302-.193c-.25-.043-.352.253-.352.351 0 .412.229.394.373.408a.289.289 0 00.303-.151v.018z"/></g><defs><clipPath id="clip0_562_8179"><path fill="#fff" d="M0 0h24v14.629H0z"/></clipPath></defs></svg>