<svg width="25" height="24" fill="none" xmlns="http://www.w3.org/2000/svg"><g clip-path="url(#clip0_562_8164)" fill="#141B31"><path d="M2.423 16.283c0-2.008.104-4.015.164-6.023a.773.773 0 00-.402-.803A4.461 4.461 0 01.133 6.171a5.755 5.755 0 01.982-4.699 3.182 3.182 0 015.383 0 6.112 6.112 0 01-.194 7.272 3.54 3.54 0 01-.921.773.684.684 0 00-.372.729c.104 4.044.223 8.089.312 12.148a1.524 1.524 0 11-3.048 0l.148-6.111zm1.993-.253c0-2.082-.119-4.193-.134-6.26a.714.714 0 01.476-.774 3.57 3.57 0 001.056-.832 5.383 5.383 0 000-6.32 2.483 2.483 0 00-4.194 0 5.085 5.085 0 00-.877 3.985 3.896 3.896 0 002.2 3.242.654.654 0 01.283.55c-.014 2.097-.014 4.163-.014 6.216 0 2.052-.12 4.356-.164 6.527a.803.803 0 00.788.922c.506 0 .848-.357.833-.981l-.253-6.275zm16.461 0c0-2.097-.104-4.193-.163-6.275a.566.566 0 01.446-.67 2.974 2.974 0 002.126-2.973V.803c0-.297-.134-.743.357-.758.49-.015.357.446.357.743v5.77a3.435 3.435 0 01-2.126 2.974.58.58 0 00-.417.669c.12 4.015.228 8.03.327 12.044a1.488 1.488 0 01-1.725 1.696 1.487 1.487 0 01-1.323-1.487v-2.528c.074-3.271.149-6.543.253-9.814a.55.55 0 00-.357-.58 3.554 3.554 0 01-2.2-3.39V.52c0-.268 0-.565.341-.565.342 0 .372.327.372.594v5.428a2.974 2.974 0 002.171 3.048c.416.149.416.417.401.744l-.312 11.539v.966c0 .58.312.952.818.952a.802.802 0 00.818-.937c0-2.111-.104-4.223-.149-6.32l-.015.06zm-7.167-4.223v10.409a1.59 1.59 0 01-1.175 1.724 1.562 1.562 0 01-1.888-1.814c.134-1.888.253-3.777.387-5.65 0-.402 0-.684-.461-.818-.907-.283-1.145-.862-1.086-1.829.172-4.43.943-8.817 2.29-13.04.208-.625.565-.893 1.086-.834a.952.952 0 01.862 1.056V3.54l-.015 8.268zm-.729 0V1.59a3.14 3.14 0 00-.223-.788 2.975 2.975 0 00-.43.654 48.892 48.892 0 00-2.142 12.06c-.074.922.119 1.487 1.056 1.829.08.015.154.057.208.119a1.1 1.1 0 01.283.535c0 .981-.105 1.978-.164 2.974-.06.996-.164 2.29-.238 3.435a.802.802 0 00.788.922.788.788 0 00.863-.788V11.807z"/><path d="M18.171 3.197V.565c0-.253 0-.58.342-.52.342.06.342.342.357.535v5.145c0 .208-.208.55-.342.565-.372 0-.357-.297-.357-.565V3.197zm1.71-.045V.535c0-.178 0-.506.327-.52.327-.015.357.327.357.505v5.25c0 .267 0 .564-.387.52-.386-.045-.312-.327-.312-.506 0-.877.015-1.755.015-2.632zm1.709-.015V.61c0-.268 0-.61.358-.566.148 0 .342.357.342.55V5.74c0 .193-.194.535-.342.55-.149.015-.357-.312-.357-.58V3.137z"/></g><defs><clipPath id="clip0_562_8164"><path fill="#fff" d="M0 0h24.03v24H0z"/></clipPath></defs></svg>