<svg width="18" height="18" fill="none" xmlns="http://www.w3.org/2000/svg"><g clip-path="url(#clip0_595_4553)" fill="#8291A7"><path d="M1.816 12.197c0-1.504.078-3.008.122-4.511a.58.58 0 00-.3-.602A3.342 3.342 0 01.1 4.623a4.31 4.31 0 01.735-3.52 2.384 2.384 0 014.033 0 4.578 4.578 0 01-.145 5.447 2.65 2.65 0 01-.69.579.512.512 0 00-.28.546c.079 3.03.168 6.059.235 9.1a1.142 1.142 0 11-2.284 0l.112-4.578zm1.492-.19c0-1.559-.089-3.14-.1-4.689a.535.535 0 01.356-.58c.3-.155.57-.367.791-.623a4.032 4.032 0 000-4.734 1.86 1.86 0 00-3.14 0 3.81 3.81 0 00-.658 2.985 2.918 2.918 0 001.648 2.429.49.49 0 01.212.412c-.011 1.57-.011 3.119-.011 4.656 0 1.537-.09 3.263-.123 4.89a.601.601 0 00.59.69c.38 0 .636-.267.624-.735l-.189-4.7zm12.331.001c0-1.571-.078-3.142-.123-4.701a.422.422 0 01.334-.501 2.228 2.228 0 001.593-2.228V.602c0-.223-.1-.557.267-.569.368-.01.268.335.268.557v4.322a2.573 2.573 0 01-1.593 2.228.434.434 0 00-.312.501c.09 3.008.17 6.015.245 9.022a1.113 1.113 0 01-1.292 1.27 1.114 1.114 0 01-.991-1.114v-1.893c.055-2.45.111-4.901.189-7.352a.412.412 0 00-.267-.434 2.662 2.662 0 01-1.649-2.54V.39c0-.2 0-.423.256-.423s.279.245.279.445v4.066a2.228 2.228 0 001.626 2.283c.312.112.312.312.3.557l-.233 8.644v.724c0 .434.234.712.613.712a.601.601 0 00.612-.701c0-1.582-.078-3.164-.111-4.734l-.011.045zM10.27 8.844v7.797a1.192 1.192 0 01-.88 1.292 1.17 1.17 0 01-1.415-1.359c.1-1.414.19-2.829.29-4.232 0-.301 0-.513-.345-.613-.68-.212-.858-.646-.814-1.37.13-3.319.706-6.605 1.716-9.769.156-.467.423-.668.813-.623a.713.713 0 01.646.79v1.894l-.011 6.193zm-.546 0V1.192a2.35 2.35 0 00-.167-.59 2.227 2.227 0 00-.323.49 36.623 36.623 0 00-1.604 9.033c-.056.69.089 1.114.79 1.37a.278.278 0 01.157.09c.106.11.18.25.211.4 0 .735-.078 1.482-.122 2.228-.045.746-.123 1.715-.178 2.573a.601.601 0 00.59.69.593.593 0 00.646-.59V8.844z"/><path d="M13.611 2.395V.423c0-.19 0-.434.257-.39.256.045.256.257.267.401v3.854c0 .156-.156.412-.256.424-.279 0-.268-.223-.268-.424V2.395zm1.281-.034V.401c0-.134 0-.379.245-.39.245-.011.268.245.268.379v3.932c0 .2 0 .423-.29.39-.29-.034-.234-.245-.234-.38 0-.656.011-1.313.011-1.97zm1.281-.011V.457c0-.2 0-.457.268-.424.11 0 .256.268.256.413V4.3c0 .144-.145.4-.256.412-.112.01-.268-.234-.268-.435V2.35z"/></g><defs><clipPath id="clip0_595_4553"><path fill="#fff" d="M0 0h18v17.978H0z"/></clipPath></defs></svg>