<svg width="19" height="14" fill="none" xmlns="http://www.w3.org/2000/svg"><g clip-path="url(#clip0_595_4550)" fill="#8291A7"><path d="M15.75 13.386c-.265-.27-.517-.548-.796-.798a.618.618 0 00-.391-.145H4.444a.701.701 0 00-.426.166c-.273.236-.517.513-.776.777.21.374.154.485-.272.485h-.971c-.084 0-.154-.139-.231-.215.07-.07.147-.208.21-.201.761.097.978-.603 1.446-.985H.44c-.3 0-.44-.083-.44-.409V.452C0 .146.105.028.426.028h18.127c.342 0 .44.131.44.45v11.528c0 .354-.119.471-.468.464-.978 0-1.95 0-2.95.035.427.36.616.998 1.35.964.09 0 .195.152.3.235-.105.063-.196.18-.3.188a7.713 7.713 0 01-.895 0c-.44.007-.496-.14-.28-.506zM.497.47v9.961h18V.472h-18zm18.015 10.447H.496v1.06h18.015v-1.06z"/><path d="M10.342 11.23H8.281a.222.222 0 00-.224.221c0 .123.1.222.224.222h2.061a.223.223 0 00.224-.222c0-.122-.1-.221-.224-.221z"/></g><defs><clipPath id="clip0_595_4550"><path fill="#fff" d="M0 0h19v13.885H0z"/></clipPath></defs></svg>