<svg width="27" height="24" fill="none" xmlns="http://www.w3.org/2000/svg"><g clip-path="url(#clip0_562_8180)" fill="#000"><path d="M9.446 24c.662-.128 1.323-.268 1.985-.383 1.46-.25 2.894-.094 4.332.233 1.746.396 3.756-.474 4.746-1.976a4.368 4.368 0 00-.052-4.89c-.317-.455-.74-.837-1.12-1.25-1.043-1.139-1.753-2.486-2.432-3.86-.699-1.412-1.865-2.205-3.433-2.379-1.803-.204-3.524.703-4.311 2.349-.83 1.728-1.807 3.327-3.205 4.671-.441.425-.763 1.055-.951 1.651-.92 2.908 1.3 5.769 4.44 5.834zm.14-1.063c-1.643-.095-2.824-.701-3.462-2.088-.6-1.311-.373-2.553.562-3.65.198-.232.442-.422.653-.643 1.176-1.231 1.975-2.7 2.716-4.218a3.303 3.303 0 012.06-1.74 3.288 3.288 0 012.666.384c.645.398 1.072.977 1.377 1.659a14.433 14.433 0 003.104 4.5c.3.3.534.66.686 1.055.47 1.216.335 2.39-.516 3.396-.916 1.08-2.138 1.531-3.516 1.235-1.528-.326-3.044-.483-4.588-.233-.632.104-1.258.247-1.742.343zM5.978 3.671c-.009 1.474.347 2.64 1.167 3.635 1.324 1.618 3.298 1.414 4.277-.433 1.011-1.912.599-4.632-.924-6.09C9.263-.4 7.662-.228 6.716 1.198a4.476 4.476 0 00-.738 2.472zm1.028.225c-.036-.012.01-.293.017-.44a1.12 1.12 0 01.049-.278c.155-.503.185-.763.433-1.243C8 .972 9.019.796 9.804 1.542c1.21 1.15 1.508 3.61.61 5.026-.572.9-1.672.965-2.383.171-.71-.793-1.018-1.773-1.025-2.843zm13.069.194c.008-1.286-.238-2.275-.901-3.13-.864-1.11-2.271-1.274-3.372-.397-1.905 1.515-2.305 4.982-.795 6.887.861 1.087 2.21 1.243 3.332.383 1.091-.832 1.737-2.31 1.736-3.743zm-1.026.122a3.742 3.742 0 01-1.324 2.794c-.68.568-1.415.46-1.947-.237-1.105-1.448-.79-4.198.61-5.36.695-.575 1.447-.501 1.991.213.513.663.678 1.434.67 2.59zM6.556 11.708c-.082-1.47-.673-2.726-1.849-3.669-.96-.77-2.051-1.108-3.211-.534C.336 8.08-.01 9.14 0 10.354c.015 1.78 1.247 3.632 2.822 4.26 1.73.688 3.435-.306 3.685-2.16.031-.235.031-.475.048-.746zm-1.033.013c-.007.81-.166 1.52-.896 1.91-.758.41-1.458.118-2.072-.354-1-.77-1.51-1.816-1.528-3.073-.01-.724.204-1.403.897-1.762.713-.367 1.399-.156 1.996.29a3.827 3.827 0 011.603 2.989zm13.996.107c0 1.52.756 2.613 2.02 2.935.671.17 1.31.039 1.92-.25 1.8-.845 2.93-3.15 2.512-5.104-.376-1.758-1.977-2.613-3.646-1.94-1.623.643-2.813 2.491-2.806 4.359zm.972-.028c.06-1.488 1.073-2.995 2.352-3.428.93-.315 1.744.083 2.064 1.007.562 1.634-.653 3.909-2.32 4.356-.815.218-1.502-.088-1.826-.866-.14-.335-.182-.711-.27-1.07v.001z"/><path d="M9.966 15.065c-.086.06-.264.135-.373.268-.582.706-1.166 1.412-1.698 2.156a.267.267 0 00-.047.122.541.541 0 00.618.612.216.216 0 00.133-.061 31.443 31.443 0 001.843-2.297c.248-.342.007-.773-.476-.8zm1.179-1.341a.23.23 0 00-.19.087c-.132.166-.305.337-.291.493.012.174.325.484.45.458a.756.756 0 00.495-.488c.027-.127-.161-.306-.298-.467a.224.224 0 00-.166-.083z"/></g><defs><clipPath id="clip0_562_8180"><path fill="#fff" transform="matrix(-1 0 0 1 26.058 0)" d="M0 0h26.057v24H0z"/></clipPath></defs></svg>