<svg width="24" height="21" fill="none" xmlns="http://www.w3.org/2000/svg"><g clip-path="url(#clip0_562_8174)" fill="#141B31"><path d="M23.972 2.93A1.8 1.8 0 0022.573.811l-.186-.084-.224-.094A10.718 10.718 0 0015.997.3c-1.315.289-2.64.597-3.917.932l-1.306.308a4.235 4.235 0 01-3.022-.242C7.089.97 6.362.7 5.672.439L4.944.12c-.244-.1-.42-.11-.513.001-.093.112-.14.215-.14.467v7.35c0 .261 0 .43.14.485.14.056.28 0 .54-.056l1.325-.532c.765-.307 1.52-.615 2.286-.932.212-.095.44-.148.671-.159h.122a19.18 19.18 0 015.046 1.334 1.613 1.613 0 011.026 1.632 21.034 21.034 0 01-.43 5.01 1.8 1.8 0 00.999 2.107.653.653 0 01.42.681v2.584c0 .159 0 .308.102.373a.75.75 0 00.43 0c.102-.056.065-.159.065-.373v-2.966h.102c1.446-.252 1.866-.644 2.22-2.099a19.69 19.69 0 00.42-4.804c0-1.138.41-1.51 1.371-1.865.69-.295 1.358-.641 1.996-1.036l.43-.251a.933.933 0 00.41-.887l-.01-3.255zM8.592 5.726a.625.625 0 01-.318.513c-.802.345-1.604.663-2.453.998l-.877.346V.82l2.341.933c1.287.513 1.315.55 1.315 1.93v.55c0 .495 0 1.018-.009 1.53v-.037zm12.992 1.735l-.26.084-.56.177a2.127 2.127 0 00-1.633 2.183 19.71 19.71 0 01-.485 5.102c-.252.933-.7 1.39-1.502 1.39a3.157 3.157 0 01-.56-.056 1.269 1.269 0 01-.988-1.567c.368-1.674.521-3.389.457-5.102a2.173 2.173 0 00-1.53-2.267c-1.026-.326-2.08-.597-3.106-.867L9.71 6.082c-.14 0-.466-.205-.475-.41V2.396h.093l2.425-.513c1.959-.42 3.983-.858 5.988-1.175a7.92 7.92 0 012.472.14l.933.14a.56.56 0 01.41.457v4.86l.028 1.156zm.821-.466l-.168.075V1.455l.159.056c.802.252.933.383.933 1.138V5.71a1.278 1.278 0 01-.924 1.324v-.037zM1.567 4.132a2.472 2.472 0 00-.485-.168L.849 3.89l-.206.084c-.2.065-.391.156-.569.27a.476.476 0 00-.056.392.48.48 0 00.28.121c.163-.092.346-.14.532-.14.303.018.597.108.858.261a1.138 1.138 0 001.334-.168.466.466 0 00.065-.382.457.457 0 00-.326-.14 1.138 1.138 0 01-1.194-.056zM1.53 1.474a1.24 1.24 0 00-1.362.112.522.522 0 00-.103.429.55.55 0 00.317.121.933.933 0 01.504-.15c.255.018.504.09.728.215.151.064.307.117.466.159l.233.075.196-.075c.197-.067.385-.158.56-.27a.457.457 0 00.074-.364.504.504 0 00-.326-.15 1.166 1.166 0 01-1.287-.102zM3.078 6.93h-.093a.82.82 0 00-.261-.083.98.98 0 01-1.027 0h-.074l-.494-.178-.243-.074-.205.065a2.23 2.23 0 00-.57.243.513.513 0 00-.092.42.576.576 0 00.326.111.933.933 0 01.494-.14c.266.02.525.1.756.233a1.185 1.185 0 001.352-.074.69.69 0 00.112-.317l.019-.205z"/></g><defs><clipPath id="clip0_562_8174"><path fill="#fff" d="M0 0h24v20.483H0z"/></clipPath></defs></svg>