<svg width="24" height="24" fill="none" xmlns="http://www.w3.org/2000/svg"><g clip-path="url(#clip0_562_8181)" fill="#000"><path d="M18.74 22.988H5.256c-.012.17-.012.324-.034.474-.05.338-.233.537-.593.537H.598c-.405 0-.598-.22-.599-.618V.882C-.001.104.106 0 .896 0h22.218c.78 0 .886.108.886.894v22.218c0 .782-.107.889-.89.889h-3.282c-.964-.002-1.008-.04-1.087-1.012zM4.167 22.94V6.18c0-.87.088-.955.97-.955H18.87c.157 0 .34-.045.461.023.191.1.35.25.46.435.08.149.04.366.04.552v16.686h3.093V1.07H1.068v21.87h3.098zm7.268-1.066V6.313h-6.18v15.562h6.18zM18.746 6.3H12.56v15.562h6.187V6.3z"/><path d="M15.096 2.999c.303-.324.485-.54.688-.731.238-.223.511-.253.75-.015.24.237.203.516-.017.75-.32.34-.646.676-.99.992-.253.233-.546.232-.8-.006-.34-.322-.675-.65-.99-.995-.216-.235-.239-.514 0-.75.227-.223.496-.2.713.007.216.207.41.467.646.748zm-6.184.217c-.306.347-.487.584-.702.785-.235.22-.523.238-.75 0-.226-.238-.194-.515.031-.75.325-.336.652-.67.992-.99.256-.24.535-.235.789.012.332.329.696.632.97 1.007a.77.77 0 01.037.696c-.164.281-.498.255-.729.035-.23-.22-.39-.482-.638-.795zm9.011 6.74c.001 0 .003-.01.003-.023 0-.012-.002-.022-.003-.022-.002 0-.003.01-.003.022 0 .013.001.023.003.023zm3.402 1.481a.464.464 0 100-.928.464.464 0 000 .928zm0 1.591a.464.464 0 100-.928.464.464 0 000 .928z"/></g><defs><clipPath id="clip0_562_8181"><path fill="#fff" d="M0 0h24v24H0z"/></clipPath></defs></svg>