<svg width="26" height="19" fill="none" xmlns="http://www.w3.org/2000/svg"><g clip-path="url(#clip0_562_8184)" fill="#000"><path d="M21.553 18.317c-.363-.37-.707-.75-1.09-1.09a.846.846 0 00-.535-.2H6.082a.96.96 0 00-.584.228c-.373.322-.707.702-1.061 1.062.287.512.21.664-.373.664h-1.33c-.114 0-.21-.19-.315-.294.096-.095.201-.285.287-.275 1.042.133 1.339-.825 1.98-1.347H.602c-.41 0-.602-.114-.602-.56V.617C0 .199.143.038.583.038h24.805c.469 0 .602.18.602.617v15.774c0 .484-.162.646-.64.636-1.339 0-2.668 0-4.036.047.584.494.842 1.366 1.846 1.319.124 0 .268.209.411.322-.143.086-.268.247-.411.257a10.59 10.59 0 01-1.224 0c-.602.01-.679-.19-.383-.693zM.68.645v13.631h24.633V.646H.678zM25.33 14.94H.679v1.452H25.33V14.94z"/><path d="M14.152 15.367h-2.82a.305.305 0 00-.307.304c0 .167.137.303.306.303h2.821a.305.305 0 00.306-.303.305.305 0 00-.306-.304z"/></g><defs><clipPath id="clip0_562_8184"><path fill="#fff" d="M0 0h26v19H0z"/></clipPath></defs></svg>