<svg width="14" height="18" fill="none" xmlns="http://www.w3.org/2000/svg"><g clip-path="url(#clip0_595_4560)" fill="#8291A7"><path d="M13.644 8.677v7.025a1.065 1.065 0 01-.48.958.407.407 0 00-.143.31.932.932 0 01-1.089 1.03H1.676A.945.945 0 01.61 16.983a.467.467 0 00-.191-.36A1.006 1.006 0 010 15.787V1.556A1.508 1.508 0 011.556 0h10.508a1.52 1.52 0 011.568 1.58c.012 2.357.012 4.727.012 7.097zM.586 4.368V15.69c0 .419.108.515.563.515h11.31c.538 0 .61-.072.61-.634V4.415L.586 4.368zm12.471-.622V1.975c0-1.041-.299-1.353-1.328-1.353H1.867a2.202 2.202 0 00-.49 0 .802.802 0 00-.755.718v2.394l12.435.012zM1.233 16.767c-.072.515 0 .659.514.659h10.137c.48 0 .587-.132.527-.659H1.233z"/><path d="M11.753 10.233a4.955 4.955 0 11-4.979-4.955 4.943 4.943 0 014.979 4.955zM6.798 5.876a4.368 4.368 0 10.024 0h-.024zM4.189 1.245h1.89c.503 0 .719.227.73.742v.072c0 .873-.143 1.017-1.016 1.017h-3.4c-.646 0-.85-.192-.85-.838v-.347a.587.587 0 01.635-.634l2.01-.012zM6.176 2.44v-.634H2.178v.61h.216l3.782.025zM8.7 1.257a.874.874 0 01.886.921.91.91 0 11-1.807 0 .874.874 0 01.922-.921zm.432.885c-.204-.143-.347-.31-.431-.287-.084.024-.228.192-.335.311.12.096.215.264.347.275.131.012.227-.155.419-.299zm1.125 0a.897.897 0 01.933-.885.885.885 0 01.898.91.945.945 0 01-.934.909.934.934 0 01-.897-.934zm1.364 0c-.204-.143-.347-.323-.443-.299-.096.024-.215.204-.335.311.12.108.216.276.335.276.12 0 .24-.132.443-.276v-.012z"/><path d="M6.822 13.943a3.71 3.71 0 113.71-3.71 3.734 3.734 0 01-3.71 3.71zm3.112-3.71a3.124 3.124 0 10-3.112 3.111 3.135 3.135 0 003.112-3.1v-.011z"/><path d="M6.965 7.707a2.61 2.61 0 012.394 2.394c0 .215 0 .43-.275.443-.275.012-.275-.192-.3-.395a1.879 1.879 0 00-1.807-1.771c-.215 0-.407-.096-.335-.323.072-.228.168-.24.323-.348z"/></g><defs><clipPath id="clip0_595_4560"><path fill="#fff" d="M0 0h13.644v18H0z"/></clipPath></defs></svg>