<svg width="18" height="18" fill="none" xmlns="http://www.w3.org/2000/svg"><g clip-path="url(#clip0_595_4572)" fill="#8291A7"><path d="M.938 16.366c-.685-.116-.906-.368-.906-1.053V4.932c.018-.204.057-.405.115-.6v-.19A6.26 6.26 0 01.032 1.76c0-.39.39-.643.864-.654h1.686V.643a.632.632 0 01.706-.685h3.51c.495 0 .716.232.716.737v.39h3.088V.601a.6.6 0 01.611-.633h3.636a.59.59 0 01.611.601v.516h1.74a.8.8 0 01.832.875v.559c.024.465 0 .93-.073 1.39-.137.486.105.886.095 1.34V15.27c0 .643-.222.907-.907 1.054v.748a.778.778 0 01-.811.823H7.788c-.2 0-.38-.064-.358-.285.02-.221.221-.264.421-.264h8.052c.737 0 .737 0 .737-.737v-.295H1.528v.063c-.053 1.17 0 .97.906.97H9.96c.084 0 .242.168.232.242a.506.506 0 01-.243.274H2.066c-.801 0-1.054-.264-1.054-1.054l-.074-.443zm8.051-.558h7.883c.538 0 .58 0 .58-.57V5.08c0-.517 0-.559-.559-.559H1.085c-.527 0-.558 0-.558.548v10.16c0 .547 0 .579.569.579h7.893zm0-14.122H1.033c-.432 0-.485 0-.485.485v1.296c0 .432 0 .527.516.527h15.808c.474 0 .517 0 .527-.527V2.224c0-.464-.053-.517-.527-.517l-7.883-.02zM3.151 1.17h3.762V.537H3.636c-.548 0-.548 0-.485.633zm11.719 0c.053-.59.053-.59-.506-.59h-3.267v.59h3.773z"/><path d="M15.365 7.409a4.453 4.453 0 000-.654.348.348 0 00-.179-.19 1.053 1.053 0 00-.316 0H5.164a.77.77 0 01-.348 0c-.095 0-.221-.158-.221-.242 0-.084.126-.2.221-.253.095-.052.19 0 .285 0h9.98c.622 0 .811.19.811.822v.306c0 .59-.168.77-.758.811h-.211v5.596c0 .78-.327 1.117-1.054 1.117h-9.6c-.77 0-1.055-.326-1.055-1.106V7.999H2.94c-.495 0-.685-.243-.695-.727 0-1.054 0-1.254 1.19-1.212h2.91c.189 0 .41 0 .42.253.011.253-.231.274-.431.274H3.109c-.4 0-.348.231-.348.474 0 .242 0 .421.327.421h12.12l.157-.073zm-11.73.58v5.585c0 .453.117.558.591.558h9.6c.486 0 .59-.095.59-.59V7.946l-10.78.042zm.127-6.049a.896.896 0 11-.896.905.906.906 0 01.896-.906zm.411.98v-.16c-.147-.105-.284-.284-.421-.274-.137.01-.306.2-.348.337a.295.295 0 00.337.37c.148-.011.285-.17.432-.275zm10.086-.98a.896.896 0 01.906.905.884.884 0 01-.896.886.896.896 0 110-1.792h-.01zm.421.99v-.17c-.137-.105-.274-.263-.421-.284a.306.306 0 00-.348.368c0 .148.21.338.337.348.127.01.285-.168.432-.263zm-8.378-.99a.885.885 0 01.906.905.896.896 0 01-1.791 0 .885.885 0 01.885-.906zm.095.473h-.158c-.095.137-.264.274-.285.432a.306.306 0 00.37.348c.136 0 .336-.21.336-.337 0-.127-.168-.295-.263-.443zm6.197.432a.896.896 0 11-1.792 0 .896.896 0 011.792 0zm-.464.074v-.147c-.148-.106-.285-.285-.432-.285-.148 0-.316.19-.358.327a.305.305 0 00.347.38c.148-.011.295-.18.443-.275z"/><path d="M7.577 9.369a2.133 2.133 0 01-.2.274l-1.486 1.623c-.126.137-.263.253-.443.095-.179-.158-.084-.317.053-.454.506-.547 1.001-1.106 1.518-1.644a.464.464 0 01.358-.115c.063 0 .126.126.2.22zm-1.401-.432a.263.263 0 01.221.41c-.265.324-.55.63-.854.918a.38.38 0 01-.337 0 .295.295 0 010-.306c.274-.327.57-.643.864-.948 0-.064.074-.064.106-.074z"/></g><defs><clipPath id="clip0_595_4572"><path fill="#fff" d="M0 0h18v17.958H0z"/></clipPath></defs></svg>