<svg width="24" height="17" fill="none" xmlns="http://www.w3.org/2000/svg"><g clip-path="url(#clip0_562_8166)" fill="#141B31"><path d="M11.992 10.406H1.586C.396 10.406 0 10.026 0 8.82V1.428C0 .46.428 0 1.396 0h21.208C23.556 0 24 .46 24 1.428v7.344c0 1.3-.349 1.586-1.586 1.586l-10.422.048zm0-9.597H1.586c-.682 0-.745 0-.745.761v7.313c0 .666 0 .73.714.73h20.954c.634 0 .714 0 .714-.682V1.523c0-.666 0-.714-.746-.714H11.992zm.508 13.864c-.223-.222-.35-.397-.524-.54a9.398 9.398 0 01-.936-.824 1.396 1.396 0 01.857-2.079c.11 0 .348 0 .38.16a.588.588 0 010 .49c-.777.857-.777.857.19 1.476a1.38 1.38 0 010 2.538c-.253.143-.491.175-.666-.08-.174-.253 0-.428.207-.586a8.32 8.32 0 00.491-.555zm-4.95-2.681a.412.412 0 01.381.571.54.54 0 01-.127.143c-.809.777-.809.84.143 1.428a1.38 1.38 0 010 2.553c-.254.143-.492.19-.666 0-.175-.19 0-.444.222-.602.682-.46.666-.714 0-1.158l-.46-.333c-1.142-.984-.508-1.999.396-2.475l.111-.127zm8.456 4.315c.1-.112.212-.213.333-.302.587-.444.587-.698 0-1.126a4.756 4.756 0 01-.825-.682 1.396 1.396 0 01.809-2.173.348.348 0 01.349.143.587.587 0 010 .46c-.095.158-.302.27-.444.412a.476.476 0 000 .793c.174.143.396.238.587.365a1.428 1.428 0 01.73 1.285 1.585 1.585 0 01-.937 1.253.427.427 0 01-.602-.428z"/><path d="M12.008 7.202H2.364a1.094 1.094 0 01-.46 0 .54.54 0 01-.286-.365c0-.111.159-.286.286-.35.15-.04.309-.04.46 0h19.288a.761.761 0 00.19 0c.302 0 .556 0 .54.43-.016.427-.27.364-.54.364h-9.834V7.2zm-.064 1.602h-9.93a2.49 2.49 0 01-.428-.397c.122-.138.26-.26.412-.365H21.97c.064 0 .381.238.381.365s-.206.318-.349.397a1.11 1.11 0 01-.46 0h-9.597zm.016-5.187h-1.459a.603.603 0 01-.46-.381c-.079-.317.19-.428.46-.428H13.5c.27 0 .54.11.46.428a.666.666 0 01-.46.38c-.507.032-1.03 0-1.538 0z"/></g><defs><clipPath id="clip0_562_8166"><path fill="#fff" d="M0 0h24v16.814H0z"/></clipPath></defs></svg>