<svg width="11" height="18" fill="none" xmlns="http://www.w3.org/2000/svg"><g clip-path="url(#clip0_595_4568)" fill="#8291A7"><path d="M9.174 17.066v.576c0 .259-.1.378-.378.378h-1.51c-.279 0-.378-.13-.368-.388v-.566H3.34v.606c0 .248-.1.368-.358.358h-1.51c-.3 0-.399-.13-.389-.408v-.556C.17 16.847 0 16.618 0 15.694V7.743c.027-.336.083-.669.169-.994A6.063 6.063 0 010 5.755V1.193A.994.994 0 011.133.04h7.952a.994.994 0 011.172 1.123v4.642a5.682 5.682 0 01-.169.993c.086.363.142.732.17 1.104v7.901c0 .786-.21 1.054-1.084 1.263zm.586-5.298V7.693c0-.547-.129-.676-.685-.676H1.123c-.546 0-.676.13-.676.686v8.11c0 .567.14.706.696.706h7.872c.557 0 .696-.14.696-.706l.05-4.045zM5.09 6.51h4.045c.477 0 .626-.149.626-.626V1.163c0-.497-.159-.656-.646-.656H1.163c-.487 0-.646.159-.646.656v4.671c0 .527.139.666.666.666l3.906.01zM1.6 17.443h1.223v-.377H1.6v.377zm5.835 0h1.212v-.487H7.435v.487z"/><path d="M7.444 9.631V8.26c0-.259.11-.358.358-.358 1.233 0 .994-.11 1.054.994v2.067c0 .288-.12.408-.398.398-1.212 0-.994.109-.994-.994-.03-.259-.02-.487-.02-.736zm.507-1.212v2.405h.428V8.419H7.95zm.895-4.91V4.84c0 .269-.11.388-.378.378h-.735c-.2 0-.298-.1-.298-.308V2.097a.288.288 0 01.318-.328c1.262 0 1.093-.129 1.093.994v.746zM8.379 4.71V2.296H8v2.415h.378z"/></g><defs><clipPath id="clip0_595_4568"><path fill="#fff" d="M0 0h10.257v18H0z"/></clipPath></defs></svg>