<svg width="20" height="13" fill="none" xmlns="http://www.w3.org/2000/svg"><g clip-path="url(#clip0_595_4581)" fill="#8291A7"><path d="M16.393 10.629H1.513a.984.984 0 00-.857.77c0 .068.173.202.27.205.65.018 1.301 0 1.952.02.137 0 .272.139.407.212-.106.117-.211.328-.322.331a27.36 27.36 0 01-2.3 0c-.473-.02-.839-.586-.572-.967.633-.9.756-1.975 1.154-2.954A13.12 13.12 0 013.218 4.86a.823.823 0 00.155-.455c.017-.586 0-1.195 0-1.793a.841.841 0 01.894-.908h.7c.542-.041.944.134 1.12.723A12.601 12.601 0 019.96 1.023c1.759-.331 3.534-.586 5.301-.88.256-.04.52-.05.771-.108.475-.108.88-.053 1.172.407.323-.126.622-.246.924-.354A.753.753 0 0119.19.58c.19.47.37.944.545 1.416.217.586.065.9-.513 1.134-.155.061-.293.129-.448.187.293.903.604 1.782.859 2.676.152.563.269 1.136.348 1.714.112.715-.293 1.172-1.031 1.172h-1.445c-.334 0-.474.14-.472.469v1.99c0 .562-.27.838-.838.838H2.19c-.214 0-.454 0-.448-.293.006-.293.252-.279.46-.279h13.465c.85.01.914-.058.727-.975zm.058-.586v-.525c0-.909.317-1.225 1.213-1.228h1.287c.334 0 .486-.135.442-.472-.017-.129-.02-.26-.044-.387a19.253 19.253 0 00-2.215-5.99c-.36-.656-.727-.92-1.497-.761-1.893.375-3.825.586-5.712.967-4.44.92-7.211 3.66-8.498 7.968-.038.131-.059.266-.094.425l15.118.003zm2.052-7.274c.18-.046.354-.114.518-.202a.415.415 0 00.164-.34 16.418 16.418 0 00-.542-1.41c-.035-.081-.202-.184-.275-.16a8.2 8.2 0 00-.815.316l.95 1.796zM3.973 3.982c.505-.395.956-.732 1.387-1.099a.419.419 0 00.108-.363.407.407 0 00-.293-.231 3.355 3.355 0 00-.879 0 .451.451 0 00-.293.313c-.05.443-.03.882-.03 1.38z"/><path d="M15.637 5.723c.086.27.136.551.146.835a.853.853 0 01-.703.862 2.05 2.05 0 01-.425.038H6.696c-.753 0-1.193-.39-1.125-1.017.034-.214.123-.416.258-.586a7.912 7.912 0 014.726-2.872c.83-.143 1.67-.227 2.512-.252a1.8 1.8 0 011.737.97c.13.181.234.378.311.586l.522 1.436zM14.56 4.457c-.372-.935-1.078-1.24-2.051-1.172-2.388.161-4.487.926-6.101 2.772a1.65 1.65 0 00-.188.25c-.164.292-.044.547.27.553.689.018 1.374 0 2.083 0 .1-1.292.211-1.395 1.466-1.395h2.05c.848 0 1.111.261 1.135 1.117 0 .076 0 .152.02.275.551 0 1.094.024 1.63-.017.111 0 .26-.255.293-.41.032-.156-.097-.382-.085-.57l-.522-1.403zm-1.896 2.388V6.58c0-.47-.032-.501-.513-.504H9.588c-.293 0-.428.129-.413.416 0 .114 0 .226.018.357l3.472-.003zm2.902 1.94a.897.897 0 01-.952.909.94.94 0 01-.912-.926.967.967 0 01.95-.94.935.935 0 01.914.957zm-.665.194a.327.327 0 00-.018-.36.32.32 0 00-.251-.162c-.209-.035-.294.211-.294.293 0 .343.19.328.311.34a.24.24 0 00.252-.126v.015z"/></g><defs><clipPath id="clip0_595_4581"><path fill="#fff" d="M0 0h20v12.191H0z"/></clipPath></defs></svg>