<svg width="18" height="18" fill="none" xmlns="http://www.w3.org/2000/svg"><path d="M4.155 14.64a1.72 1.72 0 01-1.192-.45c-.39-.367-.578-.922-.51-1.522l.277-2.43c.053-.458.33-1.065.653-1.395L9.54 2.325C11.078.698 12.683.653 14.31 2.19c1.628 1.538 1.673 3.143.135 4.77l-6.157 6.517c-.315.338-.9.653-1.358.728l-2.415.412c-.127.008-.24.023-.36.023zm7.793-12.457c-.578 0-1.08.36-1.59.9L4.2 9.608c-.15.157-.322.532-.352.75l-.278 2.43c-.03.247.03.45.165.577.135.127.338.172.585.135l2.415-.412c.218-.038.578-.233.728-.39L13.62 6.18c.93-.99 1.268-1.905-.09-3.18-.6-.577-1.117-.817-1.582-.817z" fill="#2D77E8"/><path d="M13.005 8.213h-.052A5.144 5.144 0 018.37 3.878a.571.571 0 01.473-.645.571.571 0 01.645.472 4.03 4.03 0 003.585 3.39c.307.03.532.308.502.615a.58.58 0 01-.57.503z" fill="#2D77E8"/></svg>