<svg width="18" height="18" fill="none" xmlns="http://www.w3.org/2000/svg"><path d="M9 17.063C4.553 17.063.937 13.447.937 9 .938 4.553 4.553.937 9 .937c4.447 0 8.063 3.615 8.063 8.063 0 4.447-3.615 8.063-8.063 8.063zm0-15A6.946 6.946 0 002.062 9 6.946 6.946 0 009 15.938 6.946 6.946 0 0015.938 9 6.946 6.946 0 009 2.062z" fill="#2D77E8"/><path d="M11.783 11.947a.502.502 0 01-.285-.082l-2.325-1.388c-.578-.345-1.005-1.102-1.005-1.77V5.634c0-.308.255-.563.562-.563.308 0 .563.255.563.563v3.075c0 .27.225.667.457.802l2.325 1.388c.27.157.353.502.196.772a.578.578 0 01-.488.277z" fill="#2D77E8"/></svg>