<svg width="18" height="18" fill="none" xmlns="http://www.w3.org/2000/svg"><path d="M6 4.313a.567.567 0 01-.563-.563V1.5c0-.308.255-.563.563-.563.308 0 .563.255.563.563v2.25A.567.567 0 016 4.313zm6 0a.567.567 0 01-.563-.563V1.5c0-.308.256-.563.563-.563.307 0 .563.255.563.563v2.25a.567.567 0 01-.563.563z" fill="#2D77E8"/><path d="M12 17.063H6c-2.737 0-4.313-1.575-4.313-4.313V6.375c0-2.737 1.576-4.313 4.313-4.313h6c2.738 0 4.313 1.576 4.313 4.313v6.375c0 2.738-1.575 4.313-4.313 4.313zM6 3.188c-2.145 0-3.188 1.042-3.188 3.187v6.375c0 2.145 1.043 3.188 3.188 3.188h6c2.145 0 3.188-1.043 3.188-3.188V6.375c0-2.145-1.043-3.188-3.188-3.188H6z" fill="#2D77E8"/><path d="M12 8.813H6a.567.567 0 01-.563-.563c0-.308.255-.563.563-.563h6c.307 0 .563.255.563.563a.567.567 0 01-.563.563zm-3 3.75H6A.567.567 0 015.437 12c0-.307.255-.563.563-.563h3c.307 0 .563.256.563.563a.567.567 0 01-.563.563z" fill="#2D77E8"/></svg>