<svg width="18" height="18" fill="none" xmlns="http://www.w3.org/2000/svg"><path d="M9 16.238c-.232 0-.457-.03-.645-.098C5.49 15.158.937 11.67.937 6.517c0-2.625 2.123-4.755 4.733-4.755A4.66 4.66 0 019 3.142a4.66 4.66 0 013.33-1.38c2.61 0 4.732 2.138 4.732 4.755 0 5.16-4.552 8.64-7.417 9.623a1.941 1.941 0 01-.645.098zM5.67 2.888c-1.987 0-3.607 1.627-3.607 3.63 0 5.122 4.927 7.972 6.66 8.564.134.045.427.045.562 0 1.725-.592 6.66-3.434 6.66-8.565 0-2.002-1.62-3.63-3.607-3.63-1.14 0-2.198.533-2.88 1.455-.21.285-.69.285-.9 0A3.578 3.578 0 005.67 2.887z" fill="#292D32"/></svg>