<svg width="18" height="18" fill="none" xmlns="http://www.w3.org/2000/svg"><path d="M9 10.627A2.898 2.898 0 119 4.83a2.898 2.898 0 110 5.798zm0-4.672a1.776 1.776 0 10-.002 3.557A1.776 1.776 0 009 5.955z" fill="#292D32"/><path d="M9 17.07c-1.11 0-2.227-.42-3.097-1.252-2.213-2.13-4.658-5.528-3.735-9.57C3 2.58 6.203.938 9 .938h.008c2.797 0 6 1.642 6.832 5.317.915 4.042-1.53 7.433-3.742 9.563A4.478 4.478 0 019 17.07zM9 2.062c-2.182 0-4.987 1.163-5.73 4.433-.81 3.532 1.41 6.577 3.42 8.505a3.32 3.32 0 004.628 0c2.002-1.928 4.222-4.973 3.427-8.505-.75-3.27-3.562-4.433-5.745-4.433z" fill="#292D32"/></svg>