<svg width="178" height="42" fill="none" xmlns="http://www.w3.org/2000/svg"><path d="M144.799 41.985a14.052 14.052 0 01-5.461-.887 13.998 13.998 0 01-4.687-2.924 2.266 2.266 0 01-.731-1.65 2.241 2.241 0 01.715-1.657 2.28 2.28 0 013.318.218 9.528 9.528 0 006.574 2.38c2.726-.165 5.24-1.777 7.497-4.82a2.27 2.27 0 012.414-.952 2.277 2.277 0 011.441 1.059 2.245 2.245 0 01-.205 2.574c-3.029 4.173-6.74 6.403-10.875 6.659z" fill="#FF4D00"/><path d="M25.517 10.484a8.48 8.48 0 00-.713-3.473 8.443 8.443 0 00-1.932-2.829 8.81 8.81 0 00-2.875-1.909 8.64 8.64 0 00-3.496-.713H8.842c-.399 0-.774.077-1.127.23a2.706 2.706 0 00-.897.598c-.26.245-.468.537-.621.874a2.888 2.888 0 00-.207 1.104v23.828c0 .399.069.767.207 1.104.153.337.36.636.621.897.26.245.56.445.897.598.353.138.728.207 1.127.207.383 0 .751-.069 1.104-.207a2.87 2.87 0 00.897-.598c.26-.26.468-.56.621-.897a2.64 2.64 0 00.23-1.104v-8.855h2.645l5.773 10.235c.2.337.445.621.736.851.291.215.606.376.943.483.353.092.713.115 1.081.069a3.178 3.178 0 001.081-.345c.337-.184.621-.422.851-.713.245-.291.414-.613.506-.966.107-.353.146-.713.115-1.081a2.626 2.626 0 00-.345-1.081l-4.692-8.303a9.185 9.185 0 002.07-1.334 8.54 8.54 0 001.633-1.863 8.84 8.84 0 001.035-2.254 8.33 8.33 0 00.391-2.553zm-8.993-3.289c.43 0 .843.084 1.242.253.399.153.744.376 1.035.667.307.276.552.606.736.989.184.383.276.79.276 1.219 0 .43-.092.843-.276 1.242-.184.399-.43.751-.736 1.058a3.344 3.344 0 01-1.035.736 2.932 2.932 0 01-1.242.276h-4.83v-6.44h4.83zm16.731 13.11c0-.736.138-1.418.414-2.047a5.372 5.372 0 011.127-1.656 5.057 5.057 0 011.656-1.104 5.142 5.142 0 012.047-.414c.736 0 1.418.138 2.047.414.644.26 1.196.629 1.656 1.104a5.374 5.374 0 011.127 1.656c.276.629.414 1.311.414 2.047 0 .72-.138 1.403-.414 2.047a5.374 5.374 0 01-1.127 1.656 5.035 5.035 0 01-1.656 1.127 5.291 5.291 0 01-2.047.391 5.4 5.4 0 01-2.047-.391 5.374 5.374 0 01-2.783-2.783 5.142 5.142 0 01-.414-2.047zm-5.727 0c0 1.503.291 2.921.874 4.255a11.273 11.273 0 002.37 3.496 11.562 11.562 0 003.472 2.346c1.334.567 2.752.851 4.255.851 1.518 0 2.936-.284 4.255-.851a11.193 11.193 0 003.473-2.346 10.956 10.956 0 002.346-3.496c.583-1.334.874-2.752.874-4.255 0-1.518-.291-2.936-.874-4.255a10.956 10.956 0 00-2.346-3.496 10.687 10.687 0 00-3.473-2.346c-1.319-.583-2.737-.874-4.255-.874-1.503 0-2.92.291-4.255.874a11.022 11.022 0 00-3.473 2.346 11.273 11.273 0 00-2.369 3.496c-.583 1.319-.874 2.737-.874 4.255zm29.626 0c0-.736.137-1.418.413-2.047a5.374 5.374 0 011.127-1.656 5.057 5.057 0 011.656-1.104 5.142 5.142 0 012.047-.414c.736 0 1.419.138 2.048.414.644.26 1.196.629 1.656 1.104a5.374 5.374 0 011.127 1.656c.276.629.413 1.311.413 2.047a5.16 5.16 0 01-.413 2.047 5.374 5.374 0 01-1.127 1.656 5.035 5.035 0 01-1.656 1.127 5.291 5.291 0 01-2.047.391c-.721 0-1.404-.13-2.048-.391a5.374 5.374 0 01-2.782-2.783 5.142 5.142 0 01-.414-2.047zm-5.728 0c0 1.503.292 2.921.874 4.255a11.275 11.275 0 002.37 3.496 11.563 11.563 0 003.472 2.346c1.334.567 2.753.851 4.255.851 1.519 0 2.937-.284 4.256-.851a11.192 11.192 0 003.472-2.346 10.953 10.953 0 002.347-3.496c.582-1.334.874-2.752.874-4.255 0-1.518-.292-2.936-.874-4.255a10.953 10.953 0 00-2.346-3.496 10.686 10.686 0 00-3.474-2.346c-1.318-.583-2.736-.874-4.255-.874-1.502 0-2.92.291-4.255.874a11.023 11.023 0 00-3.473 2.346 11.275 11.275 0 00-2.368 3.496c-.583 1.319-.875 2.737-.875 4.255zm54.949-2.139c0-1.211-.184-2.354-.552-3.427-.353-1.089-.874-2.032-1.564-2.829a7.106 7.106 0 00-2.484-1.909c-.981-.475-2.093-.713-3.335-.713a9.497 9.497 0 00-3.427.644c-1.12.43-2.14 1.02-3.06 1.771a7.742 7.742 0 00-2.483-1.771c-.95-.43-2.016-.644-3.197-.644-.813 0-1.572.146-2.277.437-.705.291-1.35.69-1.932 1.196a2.634 2.634 0 00-.99-1.173 2.708 2.708 0 00-1.517-.437c-.399 0-.782.077-1.15.23-.353.138-.66.337-.92.598-.26.26-.468.567-.621.92-.153.337-.23.698-.23 1.081v16.031c0 .399.077.767.23 1.104a3.036 3.036 0 001.518 1.518c.353.138.728.207 1.127.207.383 0 .744-.069 1.08-.207.354-.153.66-.36.92-.621a2.7 2.7 0 00.599-.897 2.64 2.64 0 00.23-1.104v-9.66a.797.797 0 00.023-.322 1.786 1.786 0 01-.023-.161v-.115c.015-.414.13-.797.345-1.15a3.787 3.787 0 011.978-1.518c.43-.153.85-.23 1.265-.23.89 0 1.556.284 2 .851.446.552.683 1.273.714 2.162v10.189c0 .399.077.767.23 1.104.169.337.383.629.644.874.26.245.567.445.92.598.353.138.728.207 1.127.207.383 0 .744-.069 1.08-.207.338-.153.63-.353.875-.598.26-.245.46-.537.598-.874a2.64 2.64 0 00.23-1.104V18.074c0-.414.107-.805.322-1.173.215-.383.49-.713.828-.989a4.16 4.16 0 011.173-.644 3.5 3.5 0 011.288-.253c.874 0 1.533.284 1.978.851.46.552.705 1.273.736 2.162v10.189c0 .399.077.767.23 1.104.169.337.383.629.644.874s.567.445.92.598c.353.138.728.207 1.127.207.383 0 .744-.069 1.081-.207.337-.153.629-.353.874-.598.261-.245.46-.537.598-.874a2.64 2.64 0 00.23-1.104V18.166zm8.728 2.139c0-.736.138-1.418.414-2.047a5.362 5.362 0 011.127-1.656 5.051 5.051 0 011.656-1.104 5.14 5.14 0 012.047-.414c.736 0 1.418.138 2.047.414.644.26 1.196.629 1.656 1.104a5.38 5.38 0 011.127 1.656c.276.629.414 1.311.414 2.047 0 .72-.138 1.403-.414 2.047a5.38 5.38 0 01-1.127 1.656 5.035 5.035 0 01-1.656 1.127 5.292 5.292 0 01-2.047.391c-.721 0-1.403-.13-2.047-.391a5.367 5.367 0 01-2.783-2.783 5.142 5.142 0 01-.414-2.047zm-5.727 0c0 1.503.291 2.921.874 4.255a11.257 11.257 0 002.369 3.496 11.551 11.551 0 003.473 2.346c1.334.567 2.752.851 4.255.851 1.518 0 2.936-.284 4.255-.851a11.2 11.2 0 003.473-2.346 10.976 10.976 0 002.346-3.496c.582-1.334.874-2.752.874-4.255 0-1.518-.292-2.936-.874-4.255a10.976 10.976 0 00-2.346-3.496 10.693 10.693 0 00-3.473-2.346c-1.319-.583-2.737-.874-4.255-.874-1.503 0-2.921.291-4.255.874a11.011 11.011 0 00-3.473 2.346 11.257 11.257 0 00-2.369 3.496c-.583 1.319-.874 2.737-.874 4.255z" fill="#2D77E8"/><path d="M139.001 20.305c0-.736.138-1.418.414-2.047a5.38 5.38 0 011.127-1.656 5.051 5.051 0 011.656-1.104 5.14 5.14 0 012.047-.414c.736 0 1.418.138 2.047.414.644.26 1.196.629 1.656 1.104a5.38 5.38 0 011.127 1.656c.276.629.414 1.311.414 2.047 0 .72-.138 1.403-.414 2.047a5.38 5.38 0 01-1.127 1.656 5.035 5.035 0 01-1.656 1.127 5.292 5.292 0 01-2.047.391c-.721 0-1.403-.13-2.047-.391a5.367 5.367 0 01-2.783-2.783 5.142 5.142 0 01-.414-2.047zm-5.727 0c0 1.503.291 2.921.874 4.255a11.275 11.275 0 002.369 3.496 11.563 11.563 0 003.473 2.346c1.334.567 2.752.851 4.255.851 1.518 0 2.936-.284 4.255-.851a11.189 11.189 0 003.473-2.346 10.943 10.943 0 002.346-3.496c.583-1.334.874-2.752.874-4.255 0-1.518-.291-2.936-.874-4.255a10.943 10.943 0 00-2.346-3.496 10.683 10.683 0 00-3.473-2.346c-1.319-.583-2.737-.874-4.255-.874-1.503 0-2.921.291-4.255.874a11.023 11.023 0 00-3.473 2.346 11.275 11.275 0 00-2.369 3.496c-.583 1.319-.874 2.737-.874 4.255zm41.839-5.842c.276-.26.483-.56.621-.897a2.48 2.48 0 00.23-1.035c0-.368-.069-.72-.207-1.058a2.729 2.729 0 00-.621-.943v-.023a3.127 3.127 0 00-.92-.644 2.596 2.596 0 00-1.012-.253 2.362 2.362 0 00-1.012.184 2.501 2.501 0 00-.92.598l-7.084 6.992V4.343c0-.383-.077-.744-.23-1.081a2.435 2.435 0 00-.598-.897 2.59 2.59 0 00-.897-.575 2.585 2.585 0 00-1.081-.23c-.399 0-.775.077-1.127.23a3.19 3.19 0 00-.92.575 2.674 2.674 0 00-.621.897c-.154.337-.23.698-.23 1.081v23.874c0 .399.076.767.23 1.104.153.337.36.629.621.874.276.245.582.445.92.598.352.138.728.207 1.127.207a2.83 2.83 0 001.081-.207 2.96 2.96 0 00.874-.598c.26-.245.46-.537.598-.874a2.64 2.64 0 00.23-1.104v-3.358l2.323-2.208 4.646 7.061c.199.322.452.59.759.805.322.2.659.337 1.012.414.352.077.713.084 1.081.023a2.928 2.928 0 001.035-.437c.322-.2.59-.452.805-.759.214-.322.36-.66.437-1.012.076-.368.084-.736.023-1.104a2.652 2.652 0 00-.437-1.081l-5.129-7.912 4.393-4.186z" fill="#FF4D00"/></svg>