<svg width="440" height="194" fill="none" xmlns="http://www.w3.org/2000/svg"><mask id="a" style="mask-type:alpha" maskUnits="userSpaceOnUse" x="0" y="0" width="440" height="194"><rect width="440" height="194" rx="27" fill="#FDF0D0"/></mask><g mask="url(#a)" fill="#fff" fill-opacity=".38"><path d="M249.786 220c-24.094 0-42.629-8.799-55.603-26.396C181.394 175.821 175 150.722 175 118.305c0-21.858 2.873-40.196 8.618-55.015 5.746-15.004 14.179-26.303 25.3-33.898C220.039 21.797 233.661 18 249.786 18c24.28 0 42.815 8.52 55.604 25.563 12.788 17.041 19.183 41.863 19.183 74.465 0 21.672-2.873 40.103-8.619 55.292-5.745 15.19-14.179 26.767-25.299 34.732C279.534 216.017 265.911 220 249.786 220zm0-40.567c8.897 0 15.477-4.816 19.739-14.448 4.449-9.818 6.673-25.47 6.673-46.957 0-21.303-2.224-36.492-6.673-45.569-4.262-9.261-10.842-13.892-19.739-13.892-8.896 0-15.569 4.63-20.017 13.892-4.263 9.077-6.394 24.266-6.394 45.569 0 21.487 2.131 37.139 6.394 46.957 4.448 9.632 11.121 14.448 20.017 14.448zm126.945 37.511c-6.858 0-12.14-1.76-15.847-5.28-3.521-3.704-5.282-8.891-5.282-15.559 0-6.669 1.761-11.763 5.282-15.282 3.707-3.52 8.989-5.28 15.847-5.28h25.022V61.901h23.353L384.794 86.63c-4.819 2.964-9.36 4.168-13.623 3.612-4.263-.74-7.877-2.593-10.843-5.557-2.965-2.964-4.911-6.576-5.838-10.836-.927-4.26-.556-8.521 1.112-12.782 1.668-4.26 5.004-7.872 10.008-10.836l38.367-23.895c4.077-2.594 8.247-4.539 12.51-5.835 4.449-1.297 9.082-1.945 13.901-1.945 7.043 0 12.511 1.852 16.403 5.557 3.892 3.52 5.838 8.706 5.838 15.56v135.87h22.242c6.858 0 12.047 1.76 15.569 5.28 3.707 3.519 5.56 8.613 5.56 15.282 0 6.668-1.853 11.855-5.56 15.559-3.522 3.52-8.711 5.28-15.569 5.28h-98.14z"/></g></svg>