<svg width="440" height="214" fill="none" xmlns="http://www.w3.org/2000/svg"><mask id="a" style="mask-type:alpha" maskUnits="userSpaceOnUse" x="0" y="0" width="440" height="214"><rect width="440" height="214" rx="27" fill="#FDF0D0"/></mask><g mask="url(#a)" fill="#fff" fill-opacity=".38"><path d="M248.367 210c-23.637 0-41.82-8.624-54.548-25.873C181.273 166.696 175 142.094 175 110.319c0-21.425 2.818-39.4 8.455-53.926 5.637-14.707 13.91-25.782 24.819-33.227C219.184 15.722 232.548 12 248.367 12c23.82 0 42.002 8.352 54.549 25.056 12.546 16.705 18.819 41.035 18.819 72.991 0 21.243-2.819 39.309-8.455 54.198-5.637 14.888-13.91 26.236-24.82 34.044C277.551 206.096 264.186 210 248.367 210zm0-39.763c8.728 0 15.183-4.721 19.365-14.163 4.364-9.623 6.546-24.965 6.546-46.027 0-20.88-2.182-35.77-6.546-44.666-4.182-9.078-10.637-13.618-19.365-13.618-8.727 0-15.273 4.54-19.637 13.618-4.182 8.897-6.273 23.785-6.273 44.666 0 21.062 2.091 36.404 6.273 46.027 4.364 9.442 10.91 14.163 19.637 14.163zm120.991 36.767c-8.001 0-13.819-1.816-17.456-5.447-3.454-3.813-5.182-9.351-5.182-16.613 0-5.084 1.091-9.623 3.273-13.618 2.364-3.994 5.364-7.898 9.001-11.711l47.729-49.841c7.092-7.625 12.092-14.162 15.001-19.609 3.091-5.447 4.637-10.894 4.637-16.341 0-6.9-2.273-12.074-6.819-15.524-4.546-3.45-11.091-5.175-19.637-5.175-4.364 0-9.001.636-13.91 1.907-4.909 1.089-10.182 3.086-15.819 5.991-4.909 2.18-9.364 2.815-13.364 1.907-3.819-.908-7.092-2.905-9.819-5.992-2.546-3.087-4.182-6.627-4.909-10.622-.546-3.994.091-7.898 1.909-11.71 1.818-3.995 5.091-7.264 9.819-9.806 8.364-4.539 17-7.807 25.91-9.804C388.813 12.999 397.905 12 406.996 12c14.91 0 27.365 2.179 37.366 6.536 10.182 4.358 17.91 10.713 23.183 19.065 5.273 8.17 7.909 18.339 7.909 30.504 0 7.625-1.182 15.07-3.546 22.332-2.182 7.263-5.818 14.526-10.909 21.789-4.91 7.262-11.546 14.979-19.91 23.15l-44.184 43.576v-12.528h67.367c6.727 0 11.818 1.725 15.273 5.174 3.637 3.45 5.455 8.443 5.455 14.98 0 6.536-1.818 11.62-5.455 15.251-3.455 3.45-8.546 5.175-15.273 5.175h-94.914z"/></g></svg>