<svg width="18" height="18" fill="none" xmlns="http://www.w3.org/2000/svg"><path d="M9 17.063a2.908 2.908 0 01-1.462-.39L3.083 14.1a2.945 2.945 0 01-1.463-2.535v-5.13c0-1.043.563-2.01 1.463-2.535l4.455-2.573a2.913 2.913 0 012.925 0L14.918 3.9a2.945 2.945 0 011.462 2.535v5.13c0 1.042-.562 2.01-1.462 2.535l-4.455 2.572c-.45.263-.96.39-1.463.39zm0-15c-.307 0-.622.082-.9.24L3.645 4.874c-.555.322-.9.915-.9 1.56v5.13c0 .637.345 1.238.9 1.56L8.1 15.697a1.795 1.795 0 001.8 0l4.455-2.572c.555-.322.9-.915.9-1.56v-5.13c0-.638-.345-1.238-.9-1.56L9.9 2.302a1.838 1.838 0 00-.9-.24z" fill="#292D32"/><path d="M9 8.813a2.311 2.311 0 010-4.62 2.311 2.311 0 010 4.62zm0-3.495c-.653 0-1.186.532-1.186 1.185 0 .652.533 1.185 1.185 1.185.653 0 1.185-.533 1.185-1.185 0-.653-.532-1.185-1.185-1.185zm3 7.739a.567.567 0 01-.563-.562c0-1.035-1.095-1.882-2.437-1.882-1.343 0-2.438.847-2.438 1.882a.567.567 0 01-.562.563.567.567 0 01-.563-.563c0-1.657 1.598-3.007 3.563-3.007s3.563 1.35 3.563 3.007a.567.567 0 01-.563.563z" fill="#292D32"/></svg>