<svg width="18" height="18" fill="none" xmlns="http://www.w3.org/2000/svg"><path d="M13.245 17.003c-.397 0-.907-.128-1.545-.503l-2.242-1.328c-.233-.135-.683-.135-.908 0L6.3 16.5c-1.327.788-2.107.473-2.46.218-.345-.256-.885-.908-.532-2.408l.532-2.303c.06-.24-.06-.652-.24-.832l-1.86-1.86C.81 8.385.885 7.59 1.013 7.2c.127-.39.532-1.08 1.822-1.298l2.393-.397c.225-.038.547-.278.645-.48L7.2 2.377C7.8 1.17 8.588.99 9 .99c.413 0 1.2.18 1.8 1.387l1.32 2.64c.105.203.428.443.653.48l2.392.398c1.298.217 1.703.907 1.823 1.297.12.39.195 1.185-.728 2.115l-1.86 1.868c-.18.18-.292.585-.24.832l.533 2.303c.345 1.5-.188 2.152-.533 2.408a1.534 1.534 0 01-.915.285zM9 13.943c.368 0 .735.09 1.028.262l2.242 1.328c.653.39 1.065.39 1.223.277.157-.113.27-.51.105-1.245l-.533-2.303c-.142-.622.09-1.425.54-1.882l1.86-1.86c.368-.368.533-.728.458-.975-.083-.248-.428-.45-.938-.533l-2.392-.397c-.578-.098-1.208-.563-1.47-1.088l-1.32-2.64c-.24-.48-.54-.765-.803-.765-.262 0-.562.285-.795.765l-1.327 2.64c-.263.525-.893.99-1.47 1.088l-2.385.397c-.51.083-.855.285-.938.533-.082.247.09.615.458.975l1.86 1.86c.45.45.682 1.26.54 1.882l-.533 2.303c-.172.742-.052 1.133.105 1.245.158.112.563.105 1.223-.277l2.242-1.328A2.005 2.005 0 019 13.943z" fill="#292D32"/></svg>