<svg width="18" height="18" fill="none" xmlns="http://www.w3.org/2000/svg"><path d="M9 12.563c-.3 0-.6-.023-.885-.075a5.81 5.81 0 01-3.953-2.505A5.822 5.822 0 019 .938a5.822 5.822 0 014.838 9.044 5.85 5.85 0 01-3.975 2.513 5.225 5.225 0 01-.863.068zm0-10.5A4.69 4.69 0 004.312 6.75c0 .938.27 1.838.78 2.602a4.69 4.69 0 003.196 2.018c.48.083.952.083 1.394 0A4.696 4.696 0 0012.9 9.345c.51-.765.78-1.665.78-2.603.008-2.58-2.092-4.68-4.68-4.68z" fill="#292D32"/><path d="M4.852 16.942c-.105 0-.202-.015-.307-.037a1.294 1.294 0 01-.975-.975l-.263-1.102a.196.196 0 00-.142-.143l-1.238-.293a1.305 1.305 0 01-.96-.915c-.127-.457 0-.952.338-1.29L4.23 9.262c.12-.12.285-.18.45-.165a.562.562 0 01.412.248 4.699 4.699 0 003.203 2.025c.48.083.952.083 1.395 0a4.696 4.696 0 003.218-2.025.55.55 0 01.412-.248.565.565 0 01.45.165l2.925 2.925c.337.338.465.833.337 1.29-.127.458-.502.81-.96.915l-1.237.293a.196.196 0 00-.143.143l-.262 1.102a1.294 1.294 0 01-.975.975c-.488.12-.99-.053-1.305-.435L9 12.848l-3.15 3.63a1.3 1.3 0 01-.998.464zm-.285-6.42L2.1 12.99a.176.176 0 00-.045.188.167.167 0 00.135.127l1.237.293c.488.112.863.487.975.974l.263 1.103c.022.098.097.127.142.143.045.007.12.014.188-.06l2.872-3.308a5.826 5.826 0 01-3.3-1.927zm5.566 1.92l2.872 3.3c.067.083.15.083.195.068.045-.008.113-.045.143-.143l.262-1.102c.112-.487.487-.862.975-.975l1.238-.293a.177.177 0 00.135-.127.178.178 0 00-.045-.188l-2.468-2.467a5.845 5.845 0 01-3.307 1.928z" fill="#292D32"/><path d="M10.417 9.667c-.195 0-.427-.052-.705-.217L9 9.022l-.713.42c-.652.39-1.08.165-1.237.053-.158-.113-.495-.45-.323-1.193l.18-.772-.6-.555c-.33-.33-.45-.728-.337-1.088.112-.36.442-.615.907-.69l.803-.135.382-.84c.218-.427.555-.667.938-.667.382 0 .727.247.937.675l.443.885.742.09c.458.075.788.33.908.69.112.36-.008.757-.338 1.087l-.622.623.195.697c.172.743-.165 1.08-.323 1.193a.835.835 0 01-.525.172zm-3.21-3.375l.518.518c.24.24.36.645.285.975l-.143.6.6-.353a1.093 1.093 0 011.073 0l.6.353-.135-.6a1.1 1.1 0 01.277-.975l.518-.518-.653-.112a1.115 1.115 0 01-.772-.57L9 4.875l-.375.75a1.11 1.11 0 01-.765.57l-.653.097z" fill="#292D32"/></svg>