<svg width="18" height="18" fill="none" xmlns="http://www.w3.org/2000/svg"><path d="M11.25 17.063h-4.5c-4.072 0-5.813-1.74-5.813-5.813v-4.5C.938 2.678 2.678.937 6.75.937h4.5c4.072 0 5.813 1.74 5.813 5.813v4.5c0 4.072-1.74 5.813-5.813 5.813zm-4.5-15c-3.458 0-4.688 1.23-4.688 4.687v4.5c0 3.457 1.23 4.688 4.688 4.688h4.5c3.457 0 4.688-1.23 4.688-4.688v-4.5c0-3.458-1.23-4.688-4.688-4.688h-4.5z" fill="#292D32"/><path d="M8.069 12.277a1.73 1.73 0 01-.87-.224c-.6-.346-.945-1.05-.945-1.943V7.89c0-.885.345-1.598.945-1.943s1.38-.292 2.152.158l1.928 1.11c.765.442 1.207 1.095 1.207 1.785s-.442 1.342-1.207 1.785l-1.928 1.11c-.435.255-.877.383-1.282.383zm.007-5.43a.567.567 0 00-.307.075c-.24.143-.383.495-.383.968v2.22c0 .473.135.825.383.968.24.142.615.082 1.027-.158l1.928-1.11c.412-.24.645-.533.645-.81 0-.278-.233-.578-.645-.81L8.796 7.08c-.27-.158-.517-.233-.72-.233z" fill="#292D32"/></svg>