<svg width="28" height="28" fill="none" xmlns="http://www.w3.org/2000/svg"><path d="M26 5h-8V2a2.006 2.006 0 00-2-2H2a2.005 2.005 0 00-2 2v24a2.005 2.005 0 002 2h24a2.004 2.004 0 002-2V7a2.006 2.006 0 00-2-2zM11 26H7v-5h4v5zm5 0h-3v-5a2.002 2.002 0 00-2-2H7a2.006 2.006 0 00-2 2v5H2L1.999 2H16v24zm10 0h-8V7h8v19zm-3-12a1.002 1.002 0 01-1.195.981 1.003 1.003 0 01-.729-1.364A1.001 1.001 0 0123 14zm-2-4a1.002 1.002 0 011.195-.981 1.003 1.003 0 01.729 1.364A1.001 1.001 0 0121 10zm-8 4a1.002 1.002 0 01-1.195.981 1.003 1.003 0 01-.729-1.364A1.001 1.001 0 0113 14zm0-4a1.002 1.002 0 01-1.195.981 1.003 1.003 0 01-.729-1.364A1.001 1.001 0 0113 10zm0-4a1.002 1.002 0 01-1.195.981 1.003 1.003 0 01-.729-1.364A1.001 1.001 0 0113 6zm-6 8a1.002 1.002 0 01-1.195.981 1.003 1.003 0 01-.729-1.364A1.001 1.001 0 017 14zm0-4a1.002 1.002 0 01-1.195.981 1.003 1.003 0 01-.729-1.364A1.001 1.001 0 017 10zm0-4a1.002 1.002 0 01-1.195.981 1.003 1.003 0 01-.729-1.364A1.001 1.001 0 017 6z" fill="#141B31"/></svg>