<svg width="31" height="24" fill="none" xmlns="http://www.w3.org/2000/svg"><path d="M13.388 19.147a2.016 2.016 0 114.033 0 2.016 2.016 0 01-4.033 0zm6.046 0a4.03 4.03 0 10-8.06 0 4.03 4.03 0 008.06 0z" fill="#141B31"/><path d="M23.509 15.073a9.066 9.066 0 00-8.105-4.995 9.069 9.069 0 00-8.105 4.995l1.525 1.525a7.058 7.058 0 0113.16 0l1.525-1.525z" fill="#141B31"/><path d="M27.19 11.391A14.093 14.093 0 0015.404 5.04c-4.927 0-9.263 2.526-11.787 6.352l1.461 1.46a12.086 12.086 0 0110.326-5.796c4.373 0 8.203 2.32 10.327 5.797l1.46-1.46z" fill="#141B31"/><path d="M30.808 7.774C27.32 3.06 21.718 0 15.404 0 9.089 0 3.487 3.06 0 7.774l1.444 1.441c3.105-4.357 8.2-7.199 13.96-7.199 5.76 0 10.855 2.842 13.96 7.2l1.444-1.442z" fill="#141B31"/></svg>