<svg width="30" height="31" fill="none" xmlns="http://www.w3.org/2000/svg"><path d="M0 7.5A7 7 0 016.76.504L7 .5h2a7.005 7.005 0 016.983 6.517l.013.24.01.42a3 3 0 002.818 2.818L19 10.5h3c2.078 0 4.075.809 5.568 2.255a8.005 8.005 0 012.428 5.495l.004.25v8a.998.998 0 01-.883.993L29 27.5h-1v3h-2v-3H4v3H2v-3H1a.998.998 0 01-.993-.883L0 26.5v-19zm4 12H2v6h26v-6h-2m-18 0H6h2zm4 0h-2 2zm4 0h-2 2zm4 0h-2 2zm4 0h-2 2zM9 2.5H7a5.003 5.003 0 00-4.995 4.783L2 7.5v10h25.915l-.016-.102a6.004 6.004 0 00-5.425-4.88l-.25-.014L22 12.5h-3c-2.689 0-4.882-2.122-4.995-4.766l-.008-.422A5.002 5.002 0 009 2.5z" fill="#3C3C3C"/><path d="M6 23.5H3.994v-5.566H6V23.5zm4 0H7.994v-5.566H10V23.5zm4 0h-2.006v-5.566H14V23.5zm4 0h-2.006v-5.566H18V23.5zm4 0h-2.006v-5.566H22V23.5zm4 0h-2.006v-5.566H26V23.5z" fill="#3C3C3C"/></svg>