<svg width="31" height="29" fill="none" xmlns="http://www.w3.org/2000/svg"><path d="M17.155.781l.175.164 13.072 12.842L29 15.213l-1.8-1.768V27a2 2 0 01-1.85 1.994L25.2 29h-20a2.001 2.001 0 01-1.994-1.851L3.2 27V13.446l-1.798 1.767L0 13.787 13.058.958a3 3 0 014.097-.177zm-2.586 1.504l-.096.087L5.2 11.481V27l5-.001V17c0-1.054.817-1.918 1.852-1.995L12.2 15h6c1.054 0 1.918.816 1.995 1.851L20.2 17l-.001 9.999 5 .001V11.48l-9.3-9.136a1.001 1.001 0 00-1.331-.059zM18.2 17h-6l-.001 9.999h6V17z" fill="#141B31"/></svg>