<svg width="30" height="38" fill="none" xmlns="http://www.w3.org/2000/svg"><path d="M3 20.5h24v15a1 1 0 01-1 1H4a1 1 0 01-1-1v-15zm27 0h-3m-24 0H0" stroke="#3C3C3C" stroke-width="2"/><path d="M8.5 8.5A4.505 4.505 0 004 13c0 2.137 1.5 3.923 3.5 4.38v-2.091A2.503 2.503 0 016 13c0-1.378 1.122-2.5 2.5-2.5S11 11.622 11 13a2.503 2.503 0 01-1.5 2.289v2.091c2-.457 3.5-2.243 3.5-4.38 0-2.481-2.019-4.5-4.5-4.5z" fill="#3C3C3C"/><path d="M3 20.5a4 4 0 014-4h-.263.697m2.168 0h.74a4 4 0 012.83 1.171L21 25.5" stroke="#3C3C3C" stroke-width="2"/><path d="M26.869-14.375c.005 4.833-3.994 6.083-3.994 11s3.999 6.167 3.994 11c-.005 4.833-3.994 6.167-3.994 11m3.994-55.066c.005 4.833-3.994 6.083-3.994 11s3.999 6.167 3.994 11v.066c.005 4.833-3.994 6.083-3.994 11s3.999 6.167 3.994 11c-.005 4.833-3.994 6.167-3.994 11m-.206-34.2c.005 4.833-3.994 6.083-3.994 11s3.999 6.167 3.994 11c-.005 4.833-3.994 6.167-3.994 11m3.994-55.066c.005 4.833-3.994 6.083-3.994 11s3.999 6.167 3.994 11v.066c.005 4.833-3.994 6.083-3.994 11s3.999 6.167 3.994 11c-.005 4.833-3.994 6.167-3.994 11" stroke="#3C3C3C" stroke-width="2" stroke-linejoin="round"/></svg>