<svg width="28" height="28" fill="none" xmlns="http://www.w3.org/2000/svg"><g clip-path="url(#clip0_863_20149)" fill="#141B31"><path d="M12.284 13.012l.776 4.565c.14.83.287 1.662.418 2.496.203 1.292-.259 2.314-1.324 3.031-.306.206-.353.37-.253.703a3.6 3.6 0 001.44 1.95 3.56 3.56 0 002.342.585c1.601-.142 3.004-1.515 3.137-3.174.085-1.059.034-2.129.06-3.195.035-1.465.875-2.516 2.224-2.811 1.6-.35 3.2.8 3.294 2.457.079 1.355.034 2.717.04 4.077 0 1.102.006 2.204 0 3.306-.006.628-.296.977-.787.991-.513.014-.827-.348-.83-1.003-.006-1.93 0-3.857 0-5.788 0-.367.006-.735 0-1.102-.017-.848-.474-1.375-1.175-1.363-.682.012-1.124.525-1.137 1.345-.018 1.029.023 2.06-.04 3.085-.155 2.513-2.213 4.61-4.676 4.816-2.553.22-4.891-1.44-5.493-3.912-.082-.338-.2-.51-.561-.618-1.144-.339-1.86-1.127-2.079-2.314-.408-2.236-.816-4.474-1.16-6.721-.082-.542-.319-.661-.774-.754-2.856-.61-4.772-2.299-5.508-5.17C-.767 4.67 1.858.754 5.725.095 7.097-.14 8.41.132 9.735.367c3.944.697 7.885 1.406 11.83 2.094.232.026.467-.003.685-.084 1.49-.486 2.971-.992 4.458-1.484.849-.283 1.3.048 1.3.952v10.087c0 .911-.437 1.235-1.299.953-1.227-.401-2.468-.771-3.674-1.234a4.294 4.294 0 00-2.444-.188c-2.647.506-5.303.96-7.956 1.433-.12.03-.236.07-.35.116zm8.78-6.126c0-.771-.023-1.543.01-2.314.018-.424-.135-.558-.538-.627-3.228-.558-6.454-1.153-9.676-1.71-1.343-.233-2.694-.551-4.047-.572-3.02-.055-5.457 2.717-5.171 5.721.282 2.97 3.172 5.204 6.103 4.694 4.302-.747 8.6-1.52 12.907-2.269.323-.056.426-.184.42-.5-.02-.803-.007-1.615-.007-2.423zm5.285-4.142c-1.155.382-2.26.736-3.354 1.124a.562.562 0 00-.294.425 210.25 210.25 0 000 5.171c0 .147.11.382.227.423 1.124.396 2.26.761 3.424 1.146l-.003-8.29zM8.022 13.729c.134.791.26 1.543.39 2.297.268 1.57.524 3.14.81 4.707.156.86.836 1.338 1.607 1.181.744-.15 1.176-.85 1.034-1.67-.057-.324-.11-.65-.164-.975l-1.025-5.962c-.153.001-.306.01-.458.029l-2.194.393z"/><path d="M7.015 9.469a2.553 2.553 0 01-1.431-.418 2.58 2.58 0 01-.96-1.148 2.603 2.603 0 01.522-2.824 2.549 2.549 0 012.79-.595c.47.19.876.516 1.163.938.287.422.443.92.45 1.43a2.585 2.585 0 01-.725 1.842 2.55 2.55 0 01-1.809.775zM6.99 5.943a.93.93 0 00-.857.6.95.95 0 00-.064.363.94.94 0 00.277.66.926.926 0 001.315-.01.94.94 0 00.267-.665.95.95 0 00-.579-.874.93.93 0 00-.36-.071v-.003z"/></g><defs><clipPath id="clip0_863_20149"><path fill="#fff" d="M0 0h28v28H0z"/></clipPath></defs></svg>