<svg width="20" height="31" fill="none" xmlns="http://www.w3.org/2000/svg"><path d="M11 8.5h1a1 1 0 01.993.883L13 9.5v2h1v-2c0-.473.329-.87.771-.974l.112-.019L15 8.5h4a1 1 0 01.993.883L20 9.5v5a1 1 0 01-.108.453l-.06.102L18 17.802V29.5c0 .473-.329.87-.771.974l-.112.019L17 30.5H3a1 1 0 01-.993-.883L2 29.5V17.804L.168 15.055a.992.992 0 01-.14-.322l-.021-.115L0 14.5v-5a1 1 0 01.883-.993L1 8.5h4a1 1 0 01.993.883L6 9.5v2h1v-2c0-.473.329-.87.771-.974l.112-.019L8 8.5h3zm-7 2H2v3.697l1.832 2.748a.992.992 0 01.14.322l.021.115L4 17.5v11h2v-4a4 4 0 013.8-3.995l.2-.005a4 4 0 013.995 3.8l.005.2v4h2v-8h-2v-2h2v-1c0-.118.021-.235.062-.345l.046-.108.06-.102L18 14.196V10.5h-2v2c0 .473-.329.87-.771.974l-.112.019L15 13.5h-3a1 1 0 01-.993-.883L11 12.5v-2H9v2c0 .473-.329.87-.771.974l-.112.019L8 13.5H5a1 1 0 01-.993-.883L4 12.5v-2zm6 12a2.001 2.001 0 00-1.995 1.851L8 24.5v4h4v-4a2 2 0 00-1.697-1.977l-.154-.018L10 22.5zm4-5h-3v-2h3v2z" fill="#141B31"/><path d="M10.25 9.25V1.563m5.135 3.941h-5.01V1.498h5.01v4.006z" stroke="#141B31" stroke-width="2" stroke-linecap="round" stroke-linejoin="round"/></svg>