<svg width="33" height="28" fill="none" xmlns="http://www.w3.org/2000/svg"><g clip-path="url(#clip0_863_20430)" fill="#141B31"><path d="M30.037 25.485H2.547v1.093c-.012.863-.524 1.428-1.285 1.422-.76-.006-1.26-.569-1.26-1.445V1.364C.002.601.472.07 1.148.005A1.273 1.273 0 012.51.998c.033.23.042.464.03.697v16.08h27.49V1.647a3.88 3.88 0 01.014-.572 1.272 1.272 0 012.518.012c.017.169.021.34.013.509V26.79a1.273 1.273 0 01-2.535 0c-.022-.421-.003-.836-.003-1.306zM2.578 22.867h27.407v-2.471H2.578v2.471z"/><path d="M16.26 5.092H6.204c-.738 0-1.262-.433-1.36-1.08a1.261 1.261 0 01.863-1.389c.203-.055.414-.08.625-.071h19.914c.927 0 1.496.488 1.496 1.272s-.57 1.273-1.495 1.273c-3.33 0-6.66-.003-9.989-.005zM4.837 11.446V9.028c.008-.83.51-1.38 1.242-1.4.764-.016 1.296.543 1.3 1.4.007 1.612.007 3.224 0 4.836 0 .829-.51 1.381-1.242 1.4-.764.017-1.292-.544-1.3-1.4-.006-.8 0-1.607 0-2.418zm7.636.062c0 .805.01 1.61 0 2.418-.009.806-.55 1.36-1.29 1.349-.714-.012-1.244-.553-1.249-1.327a322.55 322.55 0 010-4.963c0-.81.548-1.36 1.29-1.348.716.012 1.237.55 1.25 1.325.012.849 0 1.697 0 2.546zm2.546-.062c0-.805-.007-1.61 0-2.418.007-.83.509-1.38 1.242-1.4.763-.016 1.295.543 1.3 1.4a506.25 506.25 0 010 4.836c0 .829-.51 1.381-1.243 1.4-.764.017-1.292-.544-1.3-1.4-.006-.8 0-1.607 0-2.418zm5.091.008c0-.806-.007-1.611 0-2.418.007-.832.5-1.382 1.24-1.4.764-.018 1.297.542 1.301 1.4a487.23 487.23 0 010 4.836c0 .857-.538 1.42-1.303 1.4-.737-.02-1.23-.57-1.238-1.4-.007-.807 0-1.612 0-2.418zm7.635.016v2.417c0 .807-.518 1.377-1.26 1.386-.763.01-1.285-.552-1.289-1.415a660.687 660.687 0 010-4.836c0-.826.51-1.376 1.253-1.386.763-.01 1.281.549 1.289 1.414.013.808.008 1.614.008 2.42z"/></g><defs><clipPath id="clip0_863_20430"><path fill="#fff" d="M0 0h32.584v28H0z"/></clipPath></defs></svg>