<svg width="28" height="28" fill="none" xmlns="http://www.w3.org/2000/svg"><path d="M2 5h8V2a2.006 2.006 0 012-2h14a2.005 2.005 0 012 2v24a2.005 2.005 0 01-2 2H2a2.004 2.004 0 01-2-2V7a2.006 2.006 0 012-2zm15 21h4v-5h-4v5zm-5 0h3v-5a2.002 2.002 0 012-2h4a2.006 2.006 0 012 2v5h3l.001-24H12v24zM2 26h8V7H2v19zm13-12a1.002 1.002 0 001.195.981 1.003 1.003 0 00.729-1.364A1.001 1.001 0 0015 14zm0-4a1.002 1.002 0 001.195.981 1.003 1.003 0 00.729-1.364A1.001 1.001 0 0015 10zm0-4a1.002 1.002 0 001.195.981 1.003 1.003 0 00.729-1.364A1.001 1.001 0 0015 6zm6 8a1.002 1.002 0 001.195.981 1.003 1.003 0 00.729-1.364A1.001 1.001 0 0021 14zm0-4a1.002 1.002 0 001.195.981 1.003 1.003 0 00.729-1.364A1.001 1.001 0 0021 10zm0-4a1.002 1.002 0 001.195.981 1.003 1.003 0 00.729-1.364A1.001 1.001 0 0021 6z" fill="#3C3C3C"/></svg>