<svg width="30" height="27" fill="none" xmlns="http://www.w3.org/2000/svg"><path d="M11.862 22.521h5.931v1.977h-5.93v-1.977zm-3.954 1.977v1.977h13.84v-1.977H19.77v-1.977l1.07-.003.215-.006c2.63-.112 2.487-1.194-.171-1.194l-12.405.01c-2.631.111-2.489 1.194.17 1.194h1.236v1.977H7.908z" fill="#141B31"/><path d="M4.942 2.752h19.77l.175.005a2.966 2.966 0 012.791 2.96v11.862l-.005.174a2.966 2.966 0 01-2.96 2.791H4.942l-.174-.005a2.966 2.966 0 01-2.792-2.96V5.717l.005-.174a2.966 2.966 0 012.96-2.791zm14.828 19.77h4.942l.215-.004a4.942 4.942 0 004.728-4.939V5.717l-.004-.215A4.942 4.942 0 0024.712.775H4.942l-.214.003A4.942 4.942 0 000 5.717v11.862l.004.215a4.942 4.942 0 004.939 4.727H19.77z" fill="#141B31"/></svg>