<svg width="28" height="27" fill="none" xmlns="http://www.w3.org/2000/svg"><g clip-path="url(#clip0_863_20130)" fill="#141B31"><path d="M13.971 27H2.656C1.016 27 .001 26.016 0 24.436V2.563C0 .98 1.021.002 2.66.002h22.684c1.64 0 2.655.983 2.655 2.563V24.44c0 1.58-1.021 2.56-2.658 2.56-3.79.002-7.58.002-11.37 0zM1.661 8.025c-.009.14-.019.242-.019.343v16.083c0 .701.31.962 1.112.962H25.23c.869 0 1.128-.256 1.128-1.107V8.025H1.66zm24.697-1.603V2.54c0-.668-.306-.954-1.01-.954H2.655c-.723 0-1.01.29-1.012 1.005a447.93 447.93 0 000 3.427c0 .133.026.266.04.405h24.675z"/><path d="M14.016 9.597h9.563c.888 0 1.139.24 1.139 1.087v12.068c0 .843-.253 1.082-1.143 1.082H4.392c-.85 0-1.11-.247-1.11-1.061V10.65c0-.808.26-1.054 1.116-1.054l9.618.001zm-7.404 8.412c.022-.223.037-.413.06-.602.15-1.283.584-2.456 1.473-3.445 1.054-1.173 2.455-1.476 3.943-.9.195.06.406.05.595-.026a3.304 3.304 0 012.596-.016c.222.082.467.086.69.01 1.167-.469 2.246-.334 3.25.375.9.632 1.454 1.52 1.769 2.53.207.664.313 1.358.47 2.069h1.582v-6.786H4.95v6.791h1.663zm8.243 0h4.82c.049-1.074-.41-2.329-1.093-3.032-.805-.825-1.773-.85-2.566-.025-.818.845-1.121 1.888-1.161 3.052v.005zm-.027 1.64c.4.707.656 1.35 1.084 1.878.793.989 1.93.998 2.722.017.437-.537.7-1.197 1.093-1.898l-4.899.002zm-9.87 0v2.56h2.71l-1.036-2.57-1.673.01zm16.418 0l-1.056 2.585h2.718v-2.598l-1.662.012zM9.839 18.015c.131-.662.201-1.29.388-1.886.187-.596.49-1.153.742-1.722-1.394-.254-2.923 1.844-2.6 3.61l1.47-.002zm4.483-3.613c-1.474-.21-2.843 1.65-2.703 3.594h1.582a6.767 6.767 0 011.117-3.589l.004-.005zm-5.86 5.238c.11 1.219 1.348 2.93 2.481 2.558l-1.03-2.558h-1.45zm5.82 2.547c-.205-.411-.431-.809-.6-1.227-.17-.419-.283-.861-.425-1.304h-1.53c.394 1.727 1.405 2.728 2.555 2.53zm-9.4-17.4a6.882 6.882 0 01-.874-.006c-.456-.06-.725-.337-.721-.785 0-.421.258-.723.691-.75a13.382 13.382 0 011.907.006c.437.033.675.347.667.768-.008.42-.257.7-.691.753a7.8 7.8 0 01-.984.009l.005.005zm4.921.017c-.237 0-.475.011-.71 0-.556-.035-.896-.35-.889-.807.008-.437.336-.753.86-.777a17.648 17.648 0 011.585 0c.527.025.842.36.835.8-.008.44-.335.743-.862.778-.271.018-.547 0-.82 0v.006z"/></g><defs><clipPath id="clip0_863_20130"><path fill="#fff" d="M0 0h28v27H0z"/></clipPath></defs></svg>