<svg width="45" height="45" fill="none" xmlns="http://www.w3.org/2000/svg"><g clip-path="url(#clip0_863_20369)"><path d="M26.496 18.771c-.125-3.27-2.927-6.078-8.214-8.514l-.782-.353-.782.353C11.308 12.75 8.5 15.632 8.5 19v1l2-.001h14l2 .001v-1l-.004-.229zM10.635 18l.02-.071.062-.195c.651-1.888 2.775-3.734 6.477-5.492l.306-.143.306.143.377.182c3.593 1.764 5.613 3.615 6.162 5.505l.019.071H10.635z" fill="#141B31"/><path d="M23.5 24.997H11.494v-5.998H23.5v5.998z" stroke="#141B31" stroke-width="2" stroke-linecap="round" stroke-linejoin="round"/><path d="M18.5 24.75h-2V22h2v2.75zm13.454-11.561c.376 1.394.546 2.934.546 4.811 0 2.346-.598 4.682-1.783 7l-2.28-.001C29.817 22.646 30.5 20.316 30.5 18c0-1.925-.19-3.413-.607-4.741.919-1.759 1.607-1.759 2.061-.07z" fill="#141B31"/><path d="M31.6 11.04c2.134.284-1.29 3.547-1.707 2.219a2.501 2.501 0 00-1.388 2.077l-.005.164h-2c0-1.95 1.24-3.609 2.974-4.235-.149-.686 2.383-.808 2.126-.225z" fill="#141B31"/><path d="M31.6 11.04a4.5 4.5 0 013.895 4.248l.005.212h-2a2.5 2.5 0 00-1.546-2.311c-.646-.473-1.159-.736-2.48-1.924-.149-.686 2.383-.808 2.126-.225z" fill="#141B31"/><path d="M31.6 11.04c-.192.09-1.289.521-2.126.225C29.325 10.579 28.526 10 27.5 10c-1.084 0-1.913.646-1.994 1.383l-.006.117h-2c0-1.977 1.827-3.5 4-3.5 1.182 0 2.262.451 3.001 1.18.738-.73 1.356 1.277 1.099 1.86z" fill="#141B31"/><path d="M33.5 8c2.103 0 3.882 1.426 3.994 3.31l.006.19h-2c0-.784-.859-1.5-2-1.5-.91 0-1.643.457-1.9 1.04-.088.136-.869.145-2.126.225-.149-.686.288-2.814 1.027-2.085.738-.73 1.817-1.18 3-1.18z" fill="#141B31"/><mask id="a" style="mask-type:alpha" maskUnits="userSpaceOnUse" x="-17" y="-18" width="80" height="81"><path d="M63-17.5h-80v80h80v-80z" fill="#F2DDBB"/></mask><g mask="url(#a)" fill="#141B31"><path d="M31.556 28a4.402 4.402 0 013.016 1.176c.39.365.9.584 1.444.628l.206.008v2a4.402 4.402 0 01-3.017-1.176 2.405 2.405 0 00-1.65-.636c-.62 0-1.211.225-1.65.636a4.402 4.402 0 01-3.016 1.176 4.413 4.413 0 01-2.838-1.017l-.18-.159a2.407 2.407 0 00-1.65-.636 2.4 2.4 0 00-1.648.636 4.404 4.404 0 01-3.018 1.176 4.402 4.402 0 01-3.017-1.176 2.403 2.403 0 00-1.65-.636c-.62 0-1.21.225-1.65.636a4.391 4.391 0 01-2.777 1.17l-.24.006v-2c.552 0 1.08-.178 1.499-.506l.152-.13A4.407 4.407 0 0112.889 28a4.407 4.407 0 013.017 1.176 2.403 2.403 0 001.649.636c.62 0 1.21-.224 1.65-.636A4.411 4.411 0 0122.222 28a4.407 4.407 0 013.017 1.176c.439.411 1.03.636 1.65.636.62 0 1.21-.225 1.649-.636A4.407 4.407 0 0131.556 28z"/><path d="M59.209 28a4.402 4.402 0 013.016 1.176c.39.365.901.584 1.444.628l.206.008v2a4.402 4.402 0 01-3.017-1.176A2.405 2.405 0 0059.209 30c-.62 0-1.212.225-1.65.636a4.402 4.402 0 01-3.017 1.176 4.413 4.413 0 01-2.838-1.017l-.179-.159a2.407 2.407 0 00-1.65-.636c-.62 0-1.211.225-1.649.636a4.404 4.404 0 01-3.018 1.176 4.402 4.402 0 01-3.017-1.176A2.403 2.403 0 0040.542 30c-.62 0-1.211.225-1.65.636a4.391 4.391 0 01-2.778 1.17l-.239.006v-2c.551 0 1.079-.178 1.498-.506l.152-.13A4.407 4.407 0 0140.542 28a4.407 4.407 0 013.017 1.176 2.403 2.403 0 001.649.636c.62 0 1.211-.224 1.65-.636A4.411 4.411 0 0149.875 28a4.407 4.407 0 013.017 1.176c.439.411 1.03.636 1.65.636.62 0 1.211-.225 1.649-.636A4.407 4.407 0 0159.209 28zm-55.5 0a4.402 4.402 0 013.016 1.176c.39.365.901.584 1.444.628l.206.008v2a4.402 4.402 0 01-3.017-1.176A2.405 2.405 0 003.709 30c-.62 0-1.212.225-1.65.636a4.402 4.402 0 01-3.017 1.176 4.413 4.413 0 01-2.838-1.017l-.179-.159A2.407 2.407 0 00-5.625 30c-.62 0-1.211.225-1.649.636a4.404 4.404 0 01-3.018 1.176 4.402 4.402 0 01-3.017-1.176A2.403 2.403 0 00-14.958 30c-.62 0-1.211.225-1.65.636a4.391 4.391 0 01-2.778 1.17l-.239.006v-2c.551 0 1.079-.178 1.498-.506l.152-.13A4.407 4.407 0 01-14.958 28a4.407 4.407 0 013.017 1.176 2.403 2.403 0 001.649.636c.62 0 1.211-.224 1.65-.636A4.411 4.411 0 01-5.625 28a4.407 4.407 0 013.017 1.176c.439.411 1.03.636 1.65.636.62 0 1.211-.225 1.649-.636A4.407 4.407 0 013.709 28z"/></g><mask id="b" style="mask-type:alpha" maskUnits="userSpaceOnUse" x="-17" y="-18" width="80" height="81"><path d="M63-17.5h-80v80h80v-80z" fill="#F2DDBB"/></mask><g mask="url(#b)" fill="#141B31"><path d="M31.556 33a4.402 4.402 0 013.016 1.176c.39.365.9.584 1.444.628l.206.008v2a4.402 4.402 0 01-3.017-1.176 2.405 2.405 0 00-1.65-.636c-.62 0-1.211.225-1.65.636a4.402 4.402 0 01-3.016 1.176 4.413 4.413 0 01-2.838-1.017l-.18-.159a2.407 2.407 0 00-1.65-.636 2.4 2.4 0 00-1.648.636 4.404 4.404 0 01-3.018 1.176 4.402 4.402 0 01-3.017-1.176 2.403 2.403 0 00-1.65-.636c-.62 0-1.21.225-1.65.636a4.391 4.391 0 01-2.777 1.17l-.24.006v-2c.552 0 1.08-.178 1.499-.506l.152-.13A4.407 4.407 0 0112.889 33a4.407 4.407 0 013.017 1.176 2.403 2.403 0 001.649.636c.62 0 1.21-.224 1.65-.636A4.411 4.411 0 0122.222 33a4.407 4.407 0 013.017 1.176c.439.411 1.03.636 1.65.636.62 0 1.21-.225 1.649-.636A4.407 4.407 0 0131.556 33z"/><path d="M59.209 33a4.402 4.402 0 013.016 1.176c.39.365.901.584 1.444.628l.206.008v2a4.402 4.402 0 01-3.017-1.176A2.405 2.405 0 0059.209 35c-.62 0-1.212.225-1.65.636a4.402 4.402 0 01-3.017 1.176 4.413 4.413 0 01-2.838-1.017l-.179-.159a2.407 2.407 0 00-1.65-.636c-.62 0-1.211.225-1.649.636a4.404 4.404 0 01-3.018 1.176 4.402 4.402 0 01-3.017-1.176A2.403 2.403 0 0040.542 35c-.62 0-1.211.225-1.65.636a4.391 4.391 0 01-2.778 1.17l-.239.006v-2c.551 0 1.079-.178 1.498-.506l.152-.13A4.407 4.407 0 0140.542 33a4.407 4.407 0 013.017 1.176 2.403 2.403 0 001.649.636c.62 0 1.211-.224 1.65-.636A4.411 4.411 0 0149.875 33a4.407 4.407 0 013.017 1.176c.439.411 1.03.636 1.65.636.62 0 1.211-.225 1.649-.636A4.407 4.407 0 0159.209 33zm-55.5 0a4.402 4.402 0 013.016 1.176c.39.365.901.584 1.444.628l.206.008v2a4.402 4.402 0 01-3.017-1.176A2.405 2.405 0 003.709 35c-.62 0-1.212.225-1.65.636a4.402 4.402 0 01-3.017 1.176 4.413 4.413 0 01-2.838-1.017l-.179-.159A2.407 2.407 0 00-5.625 35c-.62 0-1.211.225-1.649.636a4.404 4.404 0 01-3.018 1.176 4.402 4.402 0 01-3.017-1.176A2.403 2.403 0 00-14.958 35c-.62 0-1.211.225-1.65.636a4.391 4.391 0 01-2.778 1.17l-.239.006v-2c.551 0 1.079-.178 1.498-.506l.152-.13A4.407 4.407 0 01-14.958 33a4.407 4.407 0 013.017 1.176 2.403 2.403 0 001.649.636c.62 0 1.211-.224 1.65-.636A4.411 4.411 0 01-5.625 33a4.407 4.407 0 013.017 1.176c.439.411 1.03.636 1.65.636.62 0 1.211-.225 1.649-.636A4.407 4.407 0 013.709 33z"/></g></g><defs><clipPath id="clip0_863_20369"><path fill="#fff" d="M0 0h45v45H0z"/></clipPath></defs></svg>