<svg width="30" height="29" fill="none" xmlns="http://www.w3.org/2000/svg"><path d="M28 .5a2.001 2.001 0 011.995 1.85L30 2.5v2a2.001 2.001 0 01-1.85 1.995L28 6.5v9h2v2h-2v9a2.001 2.001 0 01-1.85 1.995L26 28.5H4a1.997 1.997 0 01-1.995-1.85L2 26.5v-9H0v-2h2v-9l-.15-.005A2.002 2.002 0 01.006 4.657L0 4.5v-2A2.001 2.001 0 011.85.505L2 .5h26zm-2 17H4v9h2v-3a4.002 4.002 0 013.9-3.999 4.003 4.003 0 014.095 3.799l.005.2v3h2v-3a4.002 4.002 0 013.9-3.999 4.003 4.003 0 014.095 3.799l.005.2v3h2v-9zm-16 4a2.001 2.001 0 00-1.995 1.85L8 23.5v3h4v-3a2 2 0 00-2-2zm10 0a2.001 2.001 0 00-1.995 1.85L18 23.5v3h4v-3a2 2 0 00-2-2zm6-15H4v9h2v-3a4.002 4.002 0 013.9-3.999 4.003 4.003 0 014.095 3.799l.005.2v3h2v-3a4.002 4.002 0 013.9-3.999 4.003 4.003 0 014.095 3.799l.005.2v3h2v-9zm-16 4a2.001 2.001 0 00-1.995 1.85L8 12.5v3h4v-3a2 2 0 00-2-2zm10 0a2.001 2.001 0 00-1.995 1.85L18 12.5v3h4v-3a2 2 0 00-2-2zm8-8H2v2h26v-2z" fill="#141B31"/></svg>