<svg width="35" height="35" fill="none" xmlns="http://www.w3.org/2000/svg"><g clip-path="url(#clip0_863_20239)" fill="#141B31"><path d="M17.5 35a17.5 17.5 0 1117.502-17.5A17.521 17.521 0 0117.5 35zm0-32.59A15.09 15.09 0 1032.593 17.5 15.106 15.106 0 0017.5 2.41z"/><path d="M14.289 25.506c-.667 0-1.179-.185-1.534-.555-.356-.369-.534-.88-.534-1.535V11.699c0-.681.182-1.198.546-1.549.364-.351.88-.53 1.549-.534h5.471c1.763 0 3.126.456 4.09 1.367.964.912 1.446 2.168 1.446 3.769 0 1.6-.482 2.857-1.446 3.768-.964.911-2.327 1.37-4.09 1.377h-3.469v3.535c0 .652-.172 1.163-.516 1.535-.345.372-.861.539-1.513.539zm2.024-8.76h2.734c.787 0 1.38-.166 1.78-.5.4-.334.599-.834.599-1.501 0-.667-.2-1.167-.6-1.5-.399-.332-.992-.5-1.78-.5h-2.733v4.002z"/></g><defs><clipPath id="clip0_863_20239"><path fill="#fff" d="M0 0h35v35H0z"/></clipPath></defs></svg>