<svg width="28" height="38" fill="none" xmlns="http://www.w3.org/2000/svg"><path d="M10 25.875l-5 11m13-11l5 11m-9 0v-11m-11-10c0 6.075 4.925 11 11 11s11-4.925 11-11m-4 16H7m-3-13H0m28 0h-4m-13.295-4H2m24 0h-5.473" stroke="#3C3C3C" stroke-width="2" stroke-linejoin="round"/><path d="M21.994-13.125C21.999-8.292 18-7.042 18-2.125s3.999 6.167 3.994 11c-.005 4.833-3.994 6.167-3.994 11m-1.006-33C16.999-8.292 13-7.042 13-2.125s3.999 6.167 3.994 11c-.005 4.833-3.994 6.167-3.994 11m-1.006-33C11.999-8.292 8-7.042 8-2.125s3.999 6.167 3.994 11C11.989 13.708 8 15.042 8 19.875m13.994-55.066c.005 4.833-3.994 6.083-3.994 11s3.999 6.167 3.994 11v.066C21.999-8.292 18-7.042 18-2.125s3.999 6.167 3.994 11c-.005 4.833-3.994 6.167-3.994 11m-1.006-55.066c.005 4.833-3.994 6.083-3.994 11s3.999 6.167 3.994 11v.066C16.999-8.292 13-7.042 13-2.125s3.999 6.167 3.994 11c-.005 4.833-3.994 6.167-3.994 11m-1.006-55.066c.005 4.833-3.994 6.083-3.994 11s3.999 6.167 3.994 11v.066C11.999-8.292 8-7.042 8-2.125s3.999 6.167 3.994 11C11.989 13.708 8 15.042 8 19.875" stroke="#3C3C3C" stroke-width="2" stroke-linejoin="round"/></svg>