<svg width="29" height="31" fill="none" xmlns="http://www.w3.org/2000/svg"><path d="M15.026.548v4.03l4.026-2.325 1 1.733-5.026 2.901v6.928l6-3.464V4.548h2v4.648l3.491-2.014 1 1.732-3.491 2.015 4.026 2.324-1 1.733-5.026-2.903-6 3.464 6.001 3.465 5.025-2.902 1 1.732-4.026 2.324 3.491 2.016-1 1.732-3.491-2.015v4.65h-2v-5.805l-6-3.465v6.93l5.026 2.901-1 1.732-4.026-2.325v4.031h-2v-4.03L9 28.841 8 27.11l5.026-2.902V17.28l-6 3.464v5.805h-2v-4.65l-3.49 2.016-1-1.732 3.489-2.016L0 17.842l1-1.732 5.025 2.901 6-3.464-5.999-3.464L1 14.986l-1-1.733 4.026-2.324-3.49-2.015 1-1.732 3.49 2.014V4.548h2v5.803l6 3.464V6.887L8 3.987l1-1.734 4.026 2.325V.548h2z" fill="#141B31"/></svg>