<svg width="28" height="25" fill="none" xmlns="http://www.w3.org/2000/svg"><path d="M23 19.626h4v3a1 1 0 01-1 1h-2a1 1 0 01-1-1v-3zm-22 0h4v3a1 1 0 01-1 1H2a1 1 0 01-1-1v-3zm4-10h18a4 4 0 014 4v5a1 1 0 01-1 1H2a1 1 0 01-1-1v-5a4 4 0 014-4z" stroke="#141B31" stroke-width="2"/><path d="M23 13.626a1 1 0 110 2 1 1 0 010-2zm-18 0a1 1 0 110 2 1 1 0 010-2z" fill="#141B31"/><path d="M6.693 1.626h14.614a1 1 0 01.936.649L25 9.625H3l2.757-7.35a1 1 0 01.936-.65z" stroke="#141B31" stroke-width="2"/><path d="M0 6.626h3v2H0v-2zm25 0h3v2h-3v-2z" fill="#141B31"/><path d="M8 14.626h12" stroke="#141B31" stroke-width="2"/></svg>