<svg width="28" height="29" fill="none" xmlns="http://www.w3.org/2000/svg"><path d="M26 .5c1.054 0 1.918.816 1.995 1.851L28 2.5v24a2 2 0 01-1.851 1.994L26 28.5H2a2.001 2.001 0 01-1.995-1.851L0 26.5v-24C0 1.446.816.582 1.851.505L2 .5h24zM14 5.415L10.914 8.5H2v18h8v-5c0-1.054.816-1.918 1.851-1.995L12 19.5h4c1.054 0 1.918.816 1.995 1.851L18 21.5v5h8v-18h-8.914L14 5.415zM16 21.5h-4v5h4v-5zm6-2a1 1 0 110 2 1 1 0 010-2zm-16 0a1 1 0 110 2 1 1 0 010-2zm16-4a1 1 0 110 2 1 1 0 010-2zm-16 0a1 1 0 110 2 1 1 0 010-2zm16-4a1 1 0 110 2 1 1 0 010-2zm-8 0a1 1 0 110 2 1 1 0 010-2zm-8 0a1 1 0 110 2 1 1 0 010-2zm20-5v-4H2v4h8.084L12.586 4a2 2 0 012.701-.117l.127.117 2.501 2.5H26z" fill="#141B31"/></svg>