<svg width="28" height="28" fill="none" xmlns="http://www.w3.org/2000/svg"><g clip-path="url(#clip0_863_20277)" fill="#000"><path d="M8.078 22.218l2.085-3.12c-.536-.427-1.093-.804-1.574-1.264a6.535 6.535 0 014.98-11.19 6.58 6.58 0 015.963 4.826 6.57 6.57 0 01.161 2.704c-.028.293.043.586.202.833a2351.15 2351.15 0 007.716 11.327c.107.146.205.3.292.46.273.552-.048 1.128-.665 1.202a3.44 3.44 0 01-.383 0H.888C.11 27.956-.26 27.282.2 26.658a541.15 541.15 0 014.921-6.55c.388-.511.984-.488 1.387.026.514.657 1.008 1.336 1.569 2.084zm9.256-8.009a.866.866 0 00-.151.128c-.912 1.361-1.83 2.716-2.716 4.094-.087.136-.034.451.068.607 1.525 2.33 3.073 4.643 4.6 6.97a.687.687 0 00.657.355c1.784-.015 3.57 0 5.358-.01.149-.008.297-.024.444-.047l-8.26-12.097zm.596-2.112c-.28-2.06-2.332-3.744-4.603-3.826-2.386-.08-4.438 1.543-4.96 3.927-.477 2.178.752 4.59 2.713 5.371.34-.36.615-.816 1.019-1.03.535-.284.904.153 1.203.635 1.06-1.59 2.098-3.15 3.14-4.7.452-.681.737-.756 1.488-.377zM5.799 21.934l-3.28 4.372h14.848c-1.684-2.54-3.327-5.015-5.005-7.542-1.173 1.762-2.288 3.444-3.413 5.122-.514.765-1.093.777-1.64.044-.494-.643-.982-1.29-1.51-1.995v-.001zm-3.327-8.751c-.51 0-1.02.014-1.53 0-.598-.02-.949-.35-.937-.843.012-.469.354-.79.921-.8a92.317 92.317 0 013.113 0c.604.01.942.34.93.842-.011.48-.336.78-.914.801-.526.014-1.054 0-1.583 0zm21.416-1.649c.51 0 1.02-.018 1.531 0 .569.024.892.344.885.828-.007.484-.328.8-.903.81a80.66 80.66 0 01-3.111 0c-.568-.012-.89-.343-.885-.827.005-.485.328-.775.903-.816h1.584l-.004.005zM4.45 2.722c.3.187.539.286.712.453.721.696 1.429 1.407 2.129 2.124.427.437.45.898.094 1.256-.356.357-.838.318-1.258-.092-.73-.714-1.476-1.414-2.148-2.186-.195-.219-.26-.673-.194-.976.049-.218.412-.37.666-.58zm15.027 4.136c-.194-.151-.512-.278-.6-.497-.098-.244-.101-.677.053-.847.796-.874 1.64-1.71 2.503-2.514.317-.297.732-.218 1.035.094.303.313.362.726.067 1.04-.81.861-1.662 1.686-2.516 2.514-.1.096-.288.113-.542.21zm-5.47-4.383c0 .528.008 1.057 0 1.584-.01.547-.328.902-.808.908-.48.005-.822-.343-.828-.887-.01-1.057-.01-2.114 0-3.17 0-.546.336-.902.807-.909.471-.006.816.351.828.889.012.537.001 1.056.001 1.585z"/></g><defs><clipPath id="clip0_863_20277"><path fill="#fff" d="M0 0h28v28H0z"/></clipPath></defs></svg>