<svg width="29" height="27" fill="none" xmlns="http://www.w3.org/2000/svg"><g clip-path="url(#clip0_841_18577)"><path d="M26.563 21.386c-.35.087-.704.18-1.046.271-.408.108-.83.219-1.245.32a32.15 32.15 0 01-1.15.25l-.38.078-.128-.588c-.321-1.482-.655-3.015-.974-4.524a.712.712 0 01.02-.339c.848-2.816 1.723-5.724 2.497-8.29 0-.01.007-.02.011-.03l.223.127c.281.164.547.313.82.464.522.297 1.138.39 1.725.259 1.016-.217 1.694-.847 1.96-1.823.273-1.004 0-1.897-.791-2.58A365.85 365.85 0 0022.99.625c-1.14-.949-2.745-.806-3.735.328a14.662 14.662 0 00-2.511 3.974c-.343.826-.653 1.64-.983 2.511-.13.346-.263.693-.398 1.043H9.13a4.44 4.44 0 00-1.825.378c-.152.068-.194.06-.304-.055a2.56 2.56 0 00-2.838-.63 2.653 2.653 0 00-1.22.96 2.632 2.632 0 00-.472 1.475v.492c-.005.666-.009 1.354.004 2.032.034 1.685-.399 3.134-1.324 4.429a.808.808 0 00-.065.72c.094.197.4.338.614.343.868.02 1.69-.258 2.449-.827a4.055 4.055 0 001.354-1.804c.412.51.593 1.012.557 1.564-.035.4-.092.798-.172 1.191l-.016.09a380.06 380.06 0 01-.616 3.262.388.388 0 01-.048-.009c-.318-.08-.636-.162-.954-.246-.595-.154-1.21-.313-1.814-.46-1.072-.26-2.094.34-2.368 1.394-.27 1.036.316 2.05 1.362 2.354a46.462 46.462 0 0013.042 1.864c1.791 0 3.581-.102 5.36-.308a48.175 48.175 0 007.588-1.516c.264-.07.515-.183.742-.332.783-.537 1.045-1.528.638-2.41-.4-.86-1.3-1.281-2.24-1.047zm-22.77-9.628c0-.343-.006-.698 0-1.046.006-.71.434-1.235 1.117-1.37a1.2 1.2 0 01.238-.025c.295 0 .568.115.842.352-.799.715-1.267 1.511-1.429 2.43a8.13 8.13 0 00-.09 1.195c-.004.205-.009.416-.023.62-.008.126-.013.252-.019.379 0 .342-.038.684-.111 1.018a2.56 2.56 0 01-1.261 1.628l.043-.11c.154-.362.281-.735.38-1.116.16-.673.26-1.36.298-2.05a34.25 34.25 0 00.015-1.905zm11.473.034c-.029.36-.346.615-.772.622-.825.014-1.65.014-2.46 0a.814.814 0 01-.768-.496.801.801 0 01-.062-.315c-.012-.442-.01-.88-.006-1.343v-.45h4.08c0 .164.005.329.008.484.01.49.02 1-.02 1.495v.003zM1.343 23.146a.614.614 0 01.272-.4.658.658 0 01.34-.082c.09 0 .177.012.263.034.34.084.68.17 1.02.256.948.24 1.928.488 2.902.688 2.042.418 3.889.649 5.647.704h.066c1.59.05 3.235.103 4.85.036a42.416 42.416 0 0010.011-1.667c.362-.105.587-.068.774.128a.596.596 0 01.16.574.63.63 0 01-.466.432l-.468.13c-.933.258-1.897.526-2.857.703a74.71 74.71 0 01-5.16.786c-.97.11-1.966.151-2.93.191a100.1 100.1 0 00-1.303.061 48.124 48.124 0 01-12.536-1.822c-.45-.125-.67-.411-.585-.752zm8.54-12.748c.004.165 0 .329 0 .493-.016.406.008.813.07 1.214.18.952 1.028 1.618 2.059 1.622h2.474a2.138 2.138 0 001.517-.616 2.116 2.116 0 00.627-1.504v-1.81h1.507c.747 0 .907-.136 1.02-.86.188-1.202.509-2.763 1.344-4.168a9.826 9.826 0 012.233-2.625l.759.646 1.034.88c.882.752 1.795 1.529 2.688 2.297.403.348.535.774.39 1.267-.144.493-.494.802-.972.85a1.688 1.688 0 01-.85-.169 12.85 12.85 0 01-1.06-.586 26.565 26.565 0 00-.511-.299c-.263-.148-.495-.184-.692-.106-.197.079-.335.258-.419.536l-.26.86a1639.79 1639.79 0 00-2.525 8.4c-.073.246-.03.529.027.798.242 1.148.495 2.307.742 3.43l.334 1.535a.451.451 0 01.007.066l-1.61.233-.115-.395-.348-1.189c-.13-.452-.26-.905-.388-1.358l-.427-1.495c-.36-1.25-1.354-1.997-2.658-1.998h-3.828c-1.202 0-2.199.73-2.538 1.857-.31 1.029-.61 2.078-.9 3.094l-.39 1.356-1.649-.28.027-.154c.04-.225.083-.446.119-.666.069-.373.139-.744.21-1.115.152-.809.31-1.645.444-2.472.16-.992-.115-1.928-.817-2.782-.737-.894-.968-2.004-.635-3.045a3.334 3.334 0 012.263-2.176c.388-.107.801-.14 1.237-.176.15-.012.303-.024.46-.04v.119c-.004.193-.005.36 0 .531zm6.948-1.927l.063-.203c.093-.299.182-.58.282-.862.836-2.353 1.803-4.11 3.042-5.527.4-.46.871-.629 1.374-.493-2.067 1.857-3.308 4.24-3.693 7.088l-1.069-.003zm-6.218 10.681c.048-.164.096-.333.146-.5.189-.626.66-.989 1.296-.993 1.249-.01 2.556-.01 3.886 0 .615.004 1.1.352 1.265.906.318 1.066.627 2.157.927 3.21l.33 1.15a41.854 41.854 0 01-8.903-.107l1.053-3.666z" fill="#000"/></g><defs><clipPath id="clip0_841_18577"><path fill="#fff" d="M0 0h29v27H0z"/></clipPath></defs></svg>