<svg width="30" height="29" fill="none" xmlns="http://www.w3.org/2000/svg"><path d="M7 12v15H3V5h24v22h-4V12a1 1 0 00-1-1H8a1 1 0 00-1 1z" stroke="#3C3C3C" stroke-width="2"/><path d="M0 5h30M0 1h30" stroke="#3C3C3C" stroke-width="2" stroke-linejoin="round"/><path d="M15 16.27c2.667 2.303 4 4.546 4 6.728a4 4 0 01-4 4c-2.209 0-4-1.818-4-4s1.333-4.425 4-6.728z" stroke="#3C3C3C" stroke-width="2"/><path d="M15 22.75a2.25 2.25 0 110 4.5 2.25 2.25 0 010-4.5z" stroke="#3C3C3C" stroke-width="2" stroke-linejoin="round"/></svg>