<svg width="45" height="37" fill="none" xmlns="http://www.w3.org/2000/svg"><path d="M55.814 51.875v-17c0-3.095.412-6.958.618-10.366.206-3.408.205-6.36-.618-7.634-.066-.1-.739-.1-1.435-.076-.695.025-1.413.076-1.565.076-4.11 0-4.799-1.704-7-3-2.33-1.373-3.15-2.046-6-2-5.88.095-8.235 5.101-13 5-4.843-.102-8.674-6.143-13-6-3.922.13-7.625 5.977-12 6-5.182.028-7.762-6.019-12-4 1.727 13.384-2.503 25.713 0 32 .52 1.306 3.21 2.806 5 4 2.526 1.685 4.387 3.008 7 3 4.611-.014 7.557-6.058 13-6 3.878.041 8.521 6.108 13 6 5.362-.13 7.153-6.185 13-6 5.665.18 7.721 7.992 15 6z" stroke="#141B31" stroke-width="2"/><path d="M10.814 1.875h24a1 1 0 011 1v24a1 1 0 01-1 1h-24a1 1 0 01-1-1v-24a1 1 0 011-1z" stroke="#141B31" stroke-width="2"/><path d="M22.814 6.875a8 8 0 110 16 8 8 0 010-16z" stroke="#141B31" stroke-width="2"/><path d="M13.814 4.875a1 1 0 110 2 1 1 0 010-2z" fill="#141B31"/></svg>