<svg width="31" height="31" fill="none" xmlns="http://www.w3.org/2000/svg"><g clip-path="url(#clip0_837_18595)" stroke="#141B31" stroke-width="2" stroke-linecap="round" stroke-linejoin="round"><path d="M28.37 29.958H2.682a1.582 1.582 0 01-1.14-.473 1.629 1.629 0 01-.473-1.154V13.613a1.668 1.668 0 01.513-1.22L13.78 1.7a2.609 2.609 0 011.721-.65c.632 0 1.243.23 1.721.65l12.197 10.695a1.645 1.645 0 01.555 1.23v14.718c-.003.43-.173.84-.474 1.143a1.59 1.59 0 01-1.13.473z"/><path d="M24.434 23.318a3.604 3.604 0 001.015-1.657 3.646 3.646 0 00.013-1.95 3.598 3.598 0 00-.949-1.68 3.521 3.521 0 00-1.672-.936 3.536 3.536 0 00-3.059.677c-.426.34-.771.774-1.008 1.268a3.68 3.68 0 00-.361 1.588 3.68 3.68 0 00.372 1.598c.242.497.593.93 1.025 1.269a6.822 6.822 0 00-3.106 2.54 6.97 6.97 0 00-1.168 3.87h13.656a6.967 6.967 0 00-1.315-4.084 6.806 6.806 0 00-3.443-2.503zm-13.717 0a3.635 3.635 0 001.01-1.658c.18-.636.187-1.31.017-1.949a3.629 3.629 0 00-.956-1.68 3.552 3.552 0 00-1.674-.936 3.536 3.536 0 00-3.06.677c-.426.34-.77.774-1.008 1.268a3.68 3.68 0 00-.36 1.588 3.66 3.66 0 00.374 1.6c.244.497.597.93 1.033 1.267a6.832 6.832 0 00-3.11 2.54 6.982 6.982 0 00-1.175 3.87h13.646a6.958 6.958 0 00-1.305-4.08 6.797 6.797 0 00-3.432-2.507z"/></g><defs><clipPath id="clip0_837_18595"><path fill="#fff" d="M0 0h31v31H0z"/></clipPath></defs></svg>