<svg width="29" height="29" fill="none" xmlns="http://www.w3.org/2000/svg"><path d="M21.75 9.558h-.157c-2.284-.073-3.988-1.837-3.988-4.012a4.03 4.03 0 014.024-4.024 4.038 4.038 0 014.024 4.024 4.02 4.02 0 01-3.891 4.024c0-.012 0-.012-.012-.012zm-.121-6.235c-1.22 0-2.211.99-2.211 2.211 0 1.196.93 2.163 2.126 2.211.012-.012.11-.012.218 0 1.172-.06 2.078-1.027 2.09-2.21 0-1.221-.99-2.212-2.223-2.212zm.133 15.141c-.471 0-.942-.037-1.414-.121a.906.906 0 01-.737-1.052.906.906 0 011.052-.737c1.486.254 3.057-.024 4.108-.724.568-.375.87-.846.87-1.318 0-.47-.314-.93-.87-1.305-1.051-.7-2.646-.978-4.145-.713a.898.898 0 01-1.05-.737.906.906 0 01.736-1.05c1.97-.351 4.012.023 5.462.99 1.063.713 1.68 1.728 1.68 2.815 0 1.076-.605 2.103-1.68 2.828-1.1.725-2.526 1.124-4.012 1.124zM7.214 9.558H7.19a4.017 4.017 0 01-3.891-4.011c0-2.224 1.812-4.036 4.024-4.036a4.038 4.038 0 014.023 4.023 4.001 4.001 0 01-3.878 4.024l-.254-.906.084.906h-.084zm.12-1.812c.073 0 .134 0 .206.012 1.076-.049 2.018-1.015 2.018-2.211a2.212 2.212 0 10-2.332 2.21c.012-.011.06-.011.109-.011zm-.132 10.718c-1.487 0-2.912-.4-4.012-1.124-1.063-.713-1.68-1.74-1.68-2.828 0-1.075.617-2.102 1.68-2.815 1.45-.967 3.492-1.341 5.462-.99a.906.906 0 01.737 1.05.898.898 0 01-1.051.737c-1.499-.265-3.082.013-4.145.713-.568.375-.87.834-.87 1.305 0 .472.314.943.87 1.317 1.051.701 2.622.98 4.108.725a.915.915 0 011.052.738.906.906 0 01-.737 1.05 7.952 7.952 0 01-1.414.122zm7.298.12h-.157c-2.284-.072-3.988-1.836-3.988-4.011a4.03 4.03 0 014.024-4.024 4.038 4.038 0 014.024 4.024 4.02 4.02 0 01-3.891 4.023c0-.012 0-.012-.012-.012zm-.121-6.235c-1.22 0-2.211.991-2.211 2.211 0 1.197.93 2.163 2.126 2.212.012-.012.11-.012.218 0 1.172-.06 2.078-1.027 2.09-2.211 0-1.209-.99-2.212-2.223-2.212zm.121 15.153c-1.45 0-2.9-.374-4.024-1.136-1.063-.713-1.68-1.728-1.68-2.815 0-1.075.605-2.115 1.68-2.828 2.26-1.498 5.8-1.498 8.047 0 1.064.713 1.68 1.728 1.68 2.816 0 1.075-.604 2.114-1.68 2.827-1.123.75-2.573 1.136-4.023 1.136zm-3.021-5.256c-.568.375-.87.846-.87 1.317s.314.93.87 1.305c1.631 1.1 4.398 1.1 6.03 0 .567-.375.87-.846.87-1.317s-.315-.93-.87-1.305c-1.62-1.1-4.387-1.088-6.03 0z" fill="#141B31"/></svg>