<svg width="35" height="21" fill="none" xmlns="http://www.w3.org/2000/svg"><g clip-path="url(#clip0_863_20152)" fill="#141B31"><path d="M17.422 20.994H1.632a5.05 5.05 0 01-.615-.01c-.802-.09-1.192-.69-.942-1.47.383-1.2.79-2.394 1.188-3.591.19-.566.57-.896 1.178-.837.458.046.59-.173.738-.577C5.925 7.063 11.184 2.459 18.791.589c3.336-.821 6.752-.574 10.138-.492 1.82.042 3.076 1.292 3.365 3.139.484 3.109.89 6.23 1.329 9.346.06.432.097.869.174 1.297.102.576.017 1.229.808 1.482.2.063.357.573.369.885.042 1.171.023 2.348.014 3.52 0 .793-.38 1.186-1.161 1.222-.432.019-.866 0-1.3 0l-15.105.006zm14.464-5.938c-.155-1.105-.303-2.126-.444-3.148-.377-2.73-.747-5.46-1.13-8.187-.138-.985-.685-1.57-1.61-1.56-2.661.027-5.356-.125-7.975.248-6.95.984-11.954 4.82-15.002 11.216-.213.447-.377.918-.585 1.426l26.746.005zm1.025 2.13H3.02l-.546 1.687H32.91v-1.686z"/><path d="M20.704 9.991h-6.486c-1.166 0-1.608-.751-1.036-1.766 1.713-3.053 4.31-4.648 7.786-4.721 1.798-.039 3.596-.012 5.394 0 1.39.007 2.167.779 2.188 2.164.01 1.013.01 2.026 0 3.039-.01.928-.368 1.291-1.285 1.292-2.192.002-4.376-.008-6.561-.008zm5.743-4.306c-2.265 0-4.448-.098-6.62.033-1.52.091-2.799.892-3.87 2.154h10.49V5.685zm.064 6.945a1.045 1.045 0 01-.636.995 1.017 1.017 0 01-1.145-.256 1.041 1.041 0 01.77-1.74c.264.004.516.11.704.296.188.187.298.44.307.705zm3.809-.033a1.12 1.12 0 01-.309.74c-.19.2-.447.32-.72.339a1.04 1.04 0 01-.705-.287 1.061 1.061 0 01-.326-.694 1.002 1.002 0 01.248-.758.981.981 0 01.722-.327 1.03 1.03 0 01.745.267c.204.185.328.444.344.72z"/></g><defs><clipPath id="clip0_863_20152"><path fill="#fff" d="M0 0h35v21H0z"/></clipPath></defs></svg>