<svg width="38" height="24" fill="none" xmlns="http://www.w3.org/2000/svg"><g clip-path="url(#clip0_862_20112)" fill="#141B31"><path d="M19.006 0h15.518c2.266 0 3.455 1.078 3.465 3.176.015 3.406.015 6.81 0 10.214-.01 2.072-1.237 3.195-3.476 3.197H3.473c-2.189 0-3.446-1.124-3.458-3.122a832.847 832.847 0 010-10.389C.03 1.088 1.242.002 3.39 0 8.596-.003 13.8-.003 19.006 0zm.047 1.932H3.632c-1.256 0-1.464.175-1.467 1.3v10.123c0 1.048.255 1.282 1.406 1.282h30.843c1.156 0 1.416-.232 1.42-1.272.007-3.378.007-6.752 0-10.123 0-1.126-.212-1.308-1.456-1.31-5.107-.002-10.215-.002-15.325 0zm-2.801 18.345c-.097.984-.19 1.906-.28 2.828-.066.638-.486.937-1.143.89-.658-.047-.964-.456-.934-1.01.053-.984.156-1.965.282-2.942.08-.617.505-.928 1.19-.842.683.085.885.555.885 1.076zm7.832 2.285c.025.233-.014.469-.114.685a1.41 1.41 0 01-.458.55c-.149.073-.31.12-.478.142-.324.061-.953-.196-1.012-.832-.099-.952-.217-1.902-.276-2.856-.034-.545.23-.972.884-1.049.654-.076 1.109.217 1.191.84.101.776.17 1.561.263 2.52zm8.056-1.214c.06.21.059.43-.005.64a1.208 1.208 0 01-.357.55.59.59 0 01-.335.164c-.396.026-1.07-.241-1.19-.533a13.755 13.755 0 01-.87-3.101c-.047-.304.31-.863.669-.99.423-.153 1.143.24 1.25.523.333.902.613 1.818.839 2.747zM8.12 18.222c.201.149.352.348.432.573.08.226.088.468.021.697a21.75 21.75 0 01-.823 2.661c-.124.297-.84.655-1.168.545-.625-.21-.783-.669-.738-.978.138-.996.394-1.976.762-2.921.11-.28.848-.774 1.19-.715a.76.76 0 01.323.138z"/><path d="M18.992 10.918H31.95c.349 0 .762-.077 1.027.066.356.196.846.589.823.873-.028.35-.472.713-.825.97-.181.133-.55.061-.837.061H5.843c-.284 0-.653.072-.836-.063-.35-.256-.795-.622-.823-.97-.021-.275.47-.656.823-.873.228-.136.615-.063.932-.063 4.358-.003 8.71-.004 13.054-.001zm15.024-2.567c-.061.598-.271 1.09-1.035 1.116-.764.027-1.065-.39-1.092-1.029-.025-.667.257-1.161 1.042-1.17.734-.004 1.016.472 1.085 1.083zm-.002-3.646c-.06.6-.284 1.092-1.056 1.106-.772.014-1.057-.427-1.069-1.07-.011-.642.252-1.105 1.014-1.12.762-.013 1.042.453 1.11 1.084z"/></g><defs><clipPath id="clip0_862_20112"><path fill="#fff" d="M0 0h38v24H0z"/></clipPath></defs></svg>