<svg width="29" height="29" fill="none" xmlns="http://www.w3.org/2000/svg"><g clip-path="url(#clip0_841_18558)" fill="#141B31"><path d="M28.563 12.02a.224.224 0 01-.043-.12 9.395 9.395 0 010-.582 5.98 5.98 0 00-.056-1.14c-.635-3.527-3.805-5.811-7.374-5.314-2.767.385-5.052 2.68-5.431 5.453a.385.385 0 01-.146.207c-.421.293-.625.675-.623 1.165v4.207c0 .48.201.853.586 1.08.08.047.1.074.1.206a1827.51 1827.51 0 00-.014 6.856 4.954 4.954 0 003.393 4.708c.218.074.442.124.658.175.098.022.195.045.293.07l.027.007h1.24l.037-.014.057-.023a.343.343 0 01.059-.022c2.036-.396 3.373-1.57 3.972-3.49.17-.545.307-1.107.432-1.66l.17-.718c.313-1.318.962-4.06 1.092-4.567a.256.256 0 01.057-.1c.493-.15.806-.49.93-1.007l.827-3.457.149-.622c.123-.498-.01-.935-.392-1.297zm-8.11 15.695a3.699 3.699 0 01-3.602-3.682c-.005-1.46.005-2.945.015-4.38.006-.863.01-1.724.014-2.585 0-.02 0-.04.005-.059a.223.223 0 01.05-.019 11.446 11.446 0 012.437-.435 11.033 11.033 0 015.877 1.227c.236.121.44.223.47.294.032.07-.018.263-.085.536v.01c-.095.383-.549 2.278-.876 3.653-.01.03-.02.064-.029.1-.213.88-.4 1.667-.572 2.406-.415 1.758-1.969 2.997-3.704 2.934zm3.128-12.01l.778-4.55.136.056c.414.175.806.34 1.191.514a.132.132 0 01.01.017c-.292 1.297-.597 2.614-.89 3.888l-.106.464-1.12-.389zm-2.716-.475l.32-4.652 1.915.223-.788 4.6-1.447-.171zm-2.437.104v-4.49l1.453-.215-.317 4.595-1.136.11zm9.256-2.29c-.317 1.354-.65 2.732-.962 4.021l-.016.058a.749.749 0 01-.05-.026c-.205-.117-.405-.235-.617-.36l-.137-.08.977-4.26.02.014c.272.197.53.384.779.58a.178.178 0 01.006.053zM17.078 9.878c.36-1.297 1.1-2.296 2.205-2.974 1.819-1.117 3.654-1.14 5.457-.075 1.571.934 2.4 2.334 2.524 4.27-2.067-1.2-4.175-1.796-6.366-1.796-1.294.007-2.58.2-3.82.575zm-.04 5.74c-.174.062-.35.11-.539.162-.093.026-.187.052-.28.08a.35.35 0 01-.044.01.412.412 0 010-.053l.003-.887c0-1.059.007-2.154.019-3.228a.214.214 0 01.044-.089c.272-.128.55-.24.843-.357l.019-.008v2.783a35.1 35.1 0 01-.035 1.543.173.173 0 01-.03.044zm-3.436-9.763c-.203-.113-.246-.248-.298-.553C12.674 1.847 9.357-.492 5.9.09a6.516 6.516 0 00-4.21 2.576C.733 3.97.296 5.61.484 7.161a.163.163 0 01-.027.071 8.964 8.964 0 01-.298.405l-.121.16-.044.06v.663l.074.262c.206.869.843 3.487.944 3.886.119.469.406.788.809.898.12.032.149.065.184.231.143.608.285 1.216.425 1.824.368 1.583.745 3.22 1.154 4.824.478 1.891 1.727 3.145 3.611 3.625.436.113.883.171 1.333.172 1.346 0 2.573-.56 3.597-1.66.857-.918 1.29-2.084 1.287-3.46a651.779 651.779 0 010-3.425v-3.29c0-.109.01-.129.093-.176a1.164 1.164 0 00.605-1.043c.005-1.36.005-2.79 0-4.375-.007-.432-.19-.777-.508-.958zm-1.5 9.196v4.24a3.676 3.676 0 01-3.682 3.653 3.68 3.68 0 01-3.575-2.801c-.305-1.266-.61-2.548-.905-3.791l-.711-2.985a.23.23 0 01-.012-.08.212.212 0 01.064-.047c2.085-1.184 4.325-1.66 6.66-1.415.473.06.944.144 1.408.255.228.05.463.1.698.148a.248.248 0 01.052.014c.009.03.012.06.01.09-.006.904-.006 1.826-.006 2.72zM5.906 6.03l1.915-.227.312 4.658-1.451.169-.776-4.6zM3.3 6.932a.306.306 0 01.033-.016c.373-.149.73-.297 1.113-.456l.2-.083.767 4.548-1.118.386-.049-.207c-.074-.328-.155-.658-.23-.989l-.23-1.034c-.15-.682-.31-1.388-.472-2.08a.43.43 0 01-.012-.072l-.002.003zm7.299 3.538v.104l-1.17-.118-.303-4.601.128.02c.446.075.868.143 1.287.224a.267.267 0 01.015.068c.02 1.15.03 2.319.041 3.45v.11c.006.246.006.492.005.743h-.003zm1.316-.063l-.035-3.092-.01-.807v-.034l.031.013c.312.13.608.254.894.39a.312.312 0 01.016.08c.006 1.219.007 2.51.003 4.065 0 .028 0 .057-.003.085a.794.794 0 01-.089-.022c-.064-.019-.128-.04-.192-.061-.064-.021-.136-.046-.207-.067-.18-.053-.349-.104-.373-.14-.023-.035-.029-.219-.032-.41h-.003zM1.75 6.297c-.023-1.136.581-2.724 1.76-3.705 1.049-.872 2.165-1.31 3.338-1.31a5.5 5.5 0 012.13.458c1.501.628 2.47 1.735 2.95 3.377-1.783-.53-3.536-.7-5.218-.507-1.682.194-3.353.762-4.96 1.688zm1.332 5.573l-.14.084a106.287 106.287 0 01-.662.38c0-.008-.005-.016-.007-.027-.074-.324-.494-2.04-.766-3.149a.914.914 0 00-.021-.169 5.635 5.635 0 00-.075-.303c-.035-.145-.07-.281-.096-.42a.289.289 0 010-.061c.257-.2.522-.39.799-.59l.01-.007.958 4.262z"/><path d="M20.37 25.884c-.056-.015-.112-.026-.169-.038a3.496 3.496 0 01-.177-.041c-.78-.224-1.281-.875-1.34-1.734-.03-.424-.284-.695-.649-.693a.603.603 0 00-.44.184.759.759 0 00-.194.565c.004.19.025.378.064.564a3.158 3.158 0 002.69 2.463h.062a.645.645 0 00.663-.565c.047-.334-.152-.612-.51-.705zM8.528 21.096c-.922.027-1.593-.457-1.89-1.363-.137-.422-.472-.627-.83-.512-.358.116-.521.464-.405.886a3.164 3.164 0 003.053 2.304h.032c.032 0 .079 0 .125-.007.724-.067.762-.542.757-.686-.013-.195-.111-.641-.842-.622z"/></g><defs><clipPath id="clip0_841_18558"><path fill="#fff" d="M0 0h29v29H0z"/></clipPath></defs></svg>