<svg width="28" height="28" fill="none" xmlns="http://www.w3.org/2000/svg"><mask id="a" fill="#fff"><path d="M14 16.532a4.518 4.518 0 01-4.515-4.515A4.509 4.509 0 0114 7.514a4.519 4.519 0 014.515 4.515A4.509 4.509 0 0114 16.532zm0-7.268a2.77 2.77 0 00-2.765 2.765A2.763 2.763 0 0014 14.794a2.763 2.763 0 002.765-2.765A2.77 2.77 0 0014 9.264z"/></mask><path d="M14 16.532a4.518 4.518 0 01-4.515-4.515A4.509 4.509 0 0114 7.514a4.519 4.519 0 014.515 4.515A4.509 4.509 0 0114 16.532zm0-7.268a2.77 2.77 0 00-2.765 2.765A2.763 2.763 0 0014 14.794a2.763 2.763 0 002.765-2.765A2.77 2.77 0 0014 9.264z" fill="#141B31"/><path d="M14 10.532c.819 0 1.485.658 1.485 1.485h-12c0 5.82 4.726 10.515 10.515 10.515v-12zm1.485 1.485c0 .847-.687 1.497-1.485 1.497v-12c-5.768 0-10.515 4.662-10.515 10.503h12zM14 13.514a1.482 1.482 0 01-1.485-1.485h12c0-5.82-4.726-10.515-10.515-10.515v12zm-1.485-1.485c0-.848.687-1.497 1.485-1.497v12c5.768 0 10.515-4.663 10.515-10.503h-12zM14 3.264c-4.814 0-8.765 3.906-8.765 8.765h12A3.23 3.23 0 0114 15.264v-12zm-8.765 8.765A8.763 8.763 0 0014 20.794v-12a3.237 3.237 0 013.235 3.235h-12zM14 20.794a8.763 8.763 0 008.765-8.765h-12A3.237 3.237 0 0114 8.794v12zm8.765-8.765c0-4.859-3.951-8.765-8.765-8.765v12a3.23 3.23 0 01-3.235-3.235h12z" fill="#000" mask="url(#a)"/><mask id="b" fill="#fff"><path d="M14 26.553a6.966 6.966 0 01-4.818-1.948C5.74 21.29 1.937 16.006 3.372 9.718 4.667 4.013 9.648 1.458 14 1.458h.012c4.351 0 9.333 2.555 10.628 8.272 1.423 6.288-2.38 11.561-5.822 14.875A6.966 6.966 0 0114 26.553zm0-23.345c-3.395 0-7.758 1.808-8.913 6.895-1.26 5.495 2.193 10.232 5.32 13.23a5.163 5.163 0 007.198 0c3.115-2.998 6.568-7.735 5.332-13.23C21.77 5.016 17.395 3.208 14 3.208z"/></mask><path d="M14 26.553a6.966 6.966 0 01-4.818-1.948C5.74 21.29 1.937 16.006 3.372 9.718 4.667 4.013 9.648 1.458 14 1.458h.012c4.351 0 9.333 2.555 10.628 8.272 1.423 6.288-2.38 11.561-5.822 14.875A6.966 6.966 0 0114 26.553zm0-23.345c-3.395 0-7.758 1.808-8.913 6.895-1.26 5.495 2.193 10.232 5.32 13.23a5.163 5.163 0 007.198 0c3.115-2.998 6.568-7.735 5.332-13.23C21.77 5.016 17.395 3.208 14 3.208z" fill="#141B31"/><path d="M9.182 24.605L5.02 28.927l.007.006.006.007 4.149-4.335zM3.372 9.718l5.85 1.335v-.007l-5.85-1.328zm21.268.012l5.852-1.325L24.64 9.73zm-5.822 14.875l4.148 4.335.007-.007.007-.006-4.162-4.322zM5.087 10.103l5.848 1.341.003-.012-5.851-1.329zm5.32 13.23l4.167-4.317-.007-.007-.008-.007-4.152 4.331zm7.198 0l-4.161-4.323-.006.006 4.167 4.317zm5.332-13.23l5.853-1.317-.002-.012-.003-.012-5.848 1.341zM14 20.553a.967.967 0 01-.67-.283l-8.297 8.67A12.965 12.965 0 0014 32.553v-12zm-.657-.27c-3.086-2.972-4.817-6.184-4.122-9.23l-11.699-2.67c-2.175 9.531 3.7 16.888 7.498 20.544l8.323-8.645zm-4.12-9.237c.299-1.316.953-2.125 1.733-2.665.864-.599 1.983-.923 3.044-.923v-12C7.57-4.542-.417-.696-2.48 8.39l11.703 2.656zM14 1.458v6h.012v-12H14v6zm.012 6c1.06 0 2.178.324 3.04.922.78.54 1.436 1.351 1.736 2.675l11.704-2.65C28.432-.693 20.445-4.543 14.012-4.543v12zm4.776 3.596c.69 3.05-1.042 6.255-4.131 9.228l8.323 8.645c3.794-3.653 9.668-10.994 7.512-20.522l-11.704 2.65zM14.67 20.27a.967.967 0 01-.67.283v12c3.238 0 6.472-1.226 8.966-3.613l-8.296-8.67zM14-2.792C8.815-2.792 1.21.078-.764 8.774l11.702 2.658c.219-.965.638-1.393 1.055-1.666.537-.352 1.292-.558 2.007-.558v-12zM-.762 8.762c-2.018 8.802 3.605 15.63 7.016 18.902l8.306-8.662c-1.267-1.214-2.387-2.588-3.067-3.98-.647-1.327-.812-2.473-.558-3.578L-.762 8.762zM6.24 27.65a11.163 11.163 0 0015.532 0l-8.334-8.634a.838.838 0 011.136 0L6.24 27.65zm15.526.006c3.395-3.268 9.002-10.084 7.024-18.87L17.083 11.42c.496 2.204-.804 4.862-3.639 7.59l8.322 8.646zm7.019-18.894C26.792.072 19.18-2.792 14-2.792v12c.715 0 1.476.206 2.02.562.425.277.847.71 1.069 1.674l11.696-2.682z" fill="#000" mask="url(#b)"/></svg>