<svg width="41" height="30" fill="none" xmlns="http://www.w3.org/2000/svg"><path d="M21.125 11.375h6m-19-4h24m-5 7v-10a3 3 0 10-6 0m0 10v-10a3 3 0 10-6 0" stroke="#3C3C3C" stroke-width="2"/><mask id="a" style="mask-type:alpha" maskUnits="userSpaceOnUse" x="0" y="9" width="41" height="21"><path d="M40.018 9.25v20.148H0V9.25h40.018z" fill="#000"/></mask><g mask="url(#a)" stroke="#3C3C3C" stroke-width="2"><path d="M8.136 25.852c-.724 0-1.448-.25-2-.75a2.976 2.976 0 00-2-.75c-.724 0-1.448.25-2 .75s-1.276.75-2 .75-1.448-.25-2-.75a2.976 2.976 0 00-2-.75c-.724 0-1.448.25-2 .75s-1.276.75-2 .75-1.448-.25-2-.75a2.976 2.976 0 00-2-.75c-.724 0-1.448.25-2 .75s-1.276.75-2 .75m71.988.014c-.724 0-1.448-.25-2-.75a2.976 2.976 0 00-2-.75c-.724 0-1.448.25-2 .75s-1.276.75-2 .75-1.448-.25-2-.75a2.976 2.976 0 00-2-.75c-.724 0-1.448.25-2 .75s-1.276.75-2 .75-1.448-.25-2-.75a2.976 2.976 0 00-2-.75c-.724 0-1.448.25-2 .75s-1.276.75-2 .75m.001.009c-.724 0-1.448-.25-2-.75a2.976 2.976 0 00-2-.75c-.724 0-1.448.25-2 .75s-1.276.75-2 .75-1.448-.25-2-.75a2.976 2.976 0 00-2-.75c-.724 0-1.448.25-2 .75s-1.276.75-2 .75-1.448-.25-2-.75a2.976 2.976 0 00-2-.75c-.724 0-1.448.25-2 .75s-1.276.75-2 .75m.011-5.023c-.724 0-1.448-.25-2-.75a2.976 2.976 0 00-2-.75c-.724 0-1.448.25-2 .75s-1.276.75-2 .75-1.448-.25-2-.75a2.976 2.976 0 00-2-.75c-.724 0-1.448.25-2 .75s-1.276.75-2 .75-1.448-.25-2-.75a2.976 2.976 0 00-2-.75c-.724 0-1.448.25-2 .75s-1.276.75-2 .75m71.988.014c-.724 0-1.448-.25-2-.75a2.976 2.976 0 00-2-.75c-.724 0-1.448.25-2 .75s-1.276.75-2 .75-1.448-.25-2-.75a2.976 2.976 0 00-2-.75c-.724 0-1.448.25-2 .75s-1.276.75-2 .75-1.448-.25-2-.75a2.976 2.976 0 00-2-.75c-.724 0-1.448.25-2 .75s-1.276.75-2 .75m.001.009c-.724 0-1.448-.25-2-.75a2.976 2.976 0 00-2-.75c-.724 0-1.448.25-2 .75s-1.276.75-2 .75-1.448-.25-2-.75a2.976 2.976 0 00-2-.75c-.724 0-1.448.25-2 .75s-1.276.75-2 .75-1.448-.25-2-.75a2.976 2.976 0 00-2-.75c-.724 0-1.448.25-2 .75s-1.276.75-2 .75m.011-5.023c-.724 0-1.448-.25-2-.75a2.976 2.976 0 00-2-.75c-.724 0-1.448.25-2 .75s-1.276.75-2 .75-1.448-.25-2-.75a2.976 2.976 0 00-2-.75c-.724 0-1.448.25-2 .75s-1.276.75-2 .75-1.448-.25-2-.75a2.976 2.976 0 00-2-.75c-.724 0-1.448.25-2 .75s-1.276.75-2 .75m71.988.014c-.724 0-1.448-.25-2-.75a2.976 2.976 0 00-2-.75c-.724 0-1.448.25-2 .75s-1.276.75-2 .75-1.448-.25-2-.75a2.976 2.976 0 00-2-.75c-.724 0-1.448.25-2 .75s-1.276.75-2 .75-1.448-.25-2-.75a2.976 2.976 0 00-2-.75c-.724 0-1.448.25-2 .75s-1.276.75-2 .75m.001.009c-.724 0-1.448-.25-2-.75a2.976 2.976 0 00-2-.75c-.724 0-1.448.25-2 .75s-1.276.75-2 .75-1.448-.25-2-.75a2.976 2.976 0 00-2-.75c-.724 0-1.448.25-2 .75s-1.276.75-2 .75-1.448-.25-2-.75a2.976 2.976 0 00-2-.75c-.724 0-1.448.25-2 .75s-1.276.75-2 .75"/></g></svg>