<svg width="37" height="31" fill="none" xmlns="http://www.w3.org/2000/svg"><g clip-path="url(#clip0_863_20124)" fill="#141B31"><path d="M18.27.01h15.52c1.85 0 2.67.82 2.67 2.69v20.89a2.27 2.27 0 01-1.69 2.55.78.78 0 00-.34.58v2.42c0 .81-.41 1.34-1.35 1.35-.94.01-1.61 0-2.42 0-.81 0-1.17-.25-1.42-1.09-.25-.84-.54-1.77-.78-2.66a.589.589 0 00-.67-.53H8.5a.55.55 0 00-.64.48c-.27 1-.58 1.9-.85 2.86a1.18 1.18 0 01-1.25.94h-2.7a1.08 1.08 0 01-1.18-1.21v-2.56a.59.59 0 00-.43-.68 2.13 2.13 0 01-1.43-2.16V2.39A2.22 2.22 0 012.48.06C7.74 0 13.01.01 18.27.01zM6.45 19.72h18.54V7.24c0-.64-.16-.84-.82-.83H6.45v13.31zm27.83 4.27V2.19H27.2v21.8h7.08zM2.18 2.19v21.8h22.76v-2.08H5.81c-1.19 0-1.53-.34-1.53-1.51V5.87c0-1.28.31-1.59 1.59-1.59h19.07V2.19H2.18zm3.55 24H3.99v2.06h1.08c.06-.13.12-.23.16-.34.16-.51.31-1.05.5-1.69v-.03zm26.49 0h-1.68c.13.45.24.86.36 1.26.28.94.28.94 1.32.72v-1.98z"/><path d="M30.75 7.76c-.6 0-1.23 0-1.38-.72a1.63 1.63 0 01.29-1.14 1.85 1.85 0 012-.1c.291.286.463.672.48 1.08 0 .59-.54.88-1.39.88zm-.03 2.13a1.06 1.06 0 01.06 2.12 1.1 1.1 0 01-1.13-1 1.11 1.11 0 011.07-1.12zm1.06 5.39a1 1 0 01-1.13 1 1.06 1.06 0 11.12-2.11 1 1 0 011.01 1.11zm0 4.24a1 1 0 01-1.09 1 1.06 1.06 0 010-2.12 1 1 0 011.09 1.12z"/></g><defs><clipPath id="clip0_863_20124"><path fill="#fff" d="M0 0h36.46v30.45H0z"/></clipPath></defs></svg>