<svg width="27" height="32" fill="none" xmlns="http://www.w3.org/2000/svg"><g clip-path="url(#clip0_837_18604)" fill="#141B31"><path d="M19.66 31.54H1.47a1 1 0 01-1-1V1a1 1 0 011-1h18.19a1 1 0 011 1v29.54a1 1 0 01-1 1zm-17.19-2h16.19V2H2.47v27.54z"/><path d="M23.99 31.54h-4.31a1 1 0 01-1-1V1.88a1 1 0 011-1h4.31a1 1 0 011 1v28.66a1 1 0 01-1 1zm-3.31-2h2.31V2.88h-2.31v26.66z"/><path d="M26.12 29.57H0v2.35h26.12v-2.35zm-9.58-13.8h-1.08v1.08h1.08v-1.08z"/></g><defs><clipPath id="clip0_837_18604"><path fill="#fff" d="M0 0h26.12v31.91H0z"/></clipPath></defs></svg>