<svg width="28" height="28" fill="none" xmlns="http://www.w3.org/2000/svg"><g clip-path="url(#clip0_836_18559)"><path d="M2.188 8.288h4.374c0-.362-.009-.703 0-1.043.02-.656.478-1.121 1.093-1.119.616.002 1.069.463 1.094 1.123.01.328 0 .656 0 1.023h8.31V7.257c.01-1.88 1.444-3.314 3.327-3.32h5.422V1.303c0-.806.407-1.291 1.077-1.301.693-.009 1.11.486 1.11 1.325v25.372c0 .804-.409 1.292-1.078 1.302-.69.01-1.108-.486-1.11-1.324v-3.022H8.75v1.664c0 .529.012 1.058 0 1.586-.02.649-.502 1.11-1.117 1.094a1.079 1.079 0 01-1.063-1.094c-.016-.875 0-1.75 0-2.625v-.623H2.23c-.012.117-.038.254-.039.392v2.679c0 .787-.437 1.28-1.109 1.27-.656-.008-1.07-.49-1.078-1.246V7.286c.019-.697.47-1.169 1.109-1.16.614.008 1.058.47 1.077 1.136.006.325-.001.651-.001 1.026zm6.575 13.106h8.3v-.939c.005-1.958 1.421-3.384 3.364-3.39h5.35v-6.524H8.763v10.853zm17.021-15.26c-1.876 0-3.725-.02-5.576.013-.5.009-.85.37-.927.86-.065.417-.014.852-.014 1.264h6.514l.003-2.137zm-.016 15.285v-2.167c-1.843 0-3.642-.008-5.44 0a1.045 1.045 0 00-1.057.919c-.044.406-.008.82-.008 1.242l6.505.006zM6.55 10.546H2.225v2.099H6.55v-2.099zM2.212 17.02h4.325v-2.114H2.212v2.114zm0 4.387h4.32V19.29h-4.32v2.116z" fill="#141B31"/></g><defs><clipPath id="clip0_836_18559"><path fill="#fff" d="M0 0h28v28H0z"/></clipPath></defs></svg>