<svg width="34" height="34" fill="none" xmlns="http://www.w3.org/2000/svg"><path d="M7.848 31.653c-.864 0-1.671-.297-2.252-.85-.737-.694-1.091-1.742-.964-2.876l.525-4.59c.099-.864.623-2.011 1.232-2.634L18.02 8.392c2.904-3.074 5.936-3.16 9.01-.255 3.074 2.904 3.16 5.935.255 9.01l-11.63 12.31c-.596.638-1.7 1.233-2.565 1.375l-4.562.779c-.24.014-.453.042-.68.042zm14.72-23.53c-1.091 0-2.04.68-3.004 1.7L7.934 22.148c-.284.297-.61 1.005-.667 1.416l-.524 4.59c-.056.468.057.85.312 1.091.255.24.637.326 1.105.255l4.562-.78c.41-.07 1.09-.438 1.374-.736l11.63-12.31c1.757-1.87 2.395-3.599-.17-6.007-1.133-1.091-2.11-1.544-2.989-1.544z" fill="#292D32"/><path d="M24.565 19.513h-.1a9.717 9.717 0 01-8.655-8.189 1.08 1.08 0 01.892-1.218 1.08 1.08 0 011.219.892 7.61 7.61 0 006.771 6.404c.581.056 1.006.58.95 1.161-.071.539-.539.95-1.077.95z" fill="#292D32"/></svg>