<svg width="34" height="34" fill="none" xmlns="http://www.w3.org/2000/svg"><path d="M15.314 24.012a1.05 1.05 0 01-.75-.311l-2.126-2.125a1.07 1.07 0 010-1.502 1.07 1.07 0 011.502 0l1.374 1.374 4.916-4.916a1.07 1.07 0 011.502 0 1.07 1.07 0 010 1.502l-5.667 5.667a1.028 1.028 0 01-.75.311zm4.52-14.45h-5.667c-1.36 0-3.896 0-3.896-3.895 0-3.896 2.536-3.896 3.896-3.896h5.667c1.36 0 3.895 0 3.895 3.896 0 1.36 0 3.895-3.895 3.895zm-5.667-5.666c-1.403 0-1.771 0-1.771 1.77 0 1.771.368 1.771 1.77 1.771h5.668c1.77 0 1.77-.368 1.77-1.77 0-1.771-.368-1.771-1.77-1.771h-5.667z" fill="#292D32"/><path d="M21.25 32.23h-8.5c-7.962 0-9.563-3.656-9.563-9.563v-8.5c0-6.46 2.338-9.223 8.09-9.52.58-.029 1.09.41 1.119 1.006a1.05 1.05 0 01-1.006 1.105c-4.023.226-6.078 1.43-6.078 7.409v8.5c0 5.241 1.035 7.437 7.438 7.437h8.5c6.403 0 7.438-2.196 7.438-7.437v-8.5c0-5.979-2.055-7.183-6.078-7.41a1.063 1.063 0 11.113-2.125c5.752.312 8.09 3.075 8.09 9.52v8.5c0 5.922-1.601 9.577-9.563 9.577z" fill="#292D32"/></svg>