<svg width="34" height="34" fill="none" xmlns="http://www.w3.org/2000/svg"><path d="M11.334 8.146a1.07 1.07 0 01-1.063-1.063v-4.25c0-.58.482-1.062 1.063-1.062.58 0 1.062.481 1.062 1.062v4.25a1.07 1.07 0 01-1.063 1.063zm11.332 0a1.07 1.07 0 01-1.062-1.063v-4.25c0-.58.482-1.062 1.063-1.062.58 0 1.062.481 1.062 1.062v4.25a1.07 1.07 0 01-1.063 1.063z" fill="#292D32"/><path d="M22.667 32.23H11.333c-5.17 0-8.146-2.976-8.146-8.147V12.042c0-5.171 2.975-8.146 8.146-8.146h11.334c5.17 0 8.145 2.975 8.145 8.146v12.041c0 5.171-2.975 8.146-8.145 8.146zM11.333 6.02c-4.051 0-6.02 1.97-6.02 6.022v12.041c0 4.052 1.969 6.021 6.02 6.021h11.334c4.051 0 6.02-1.97 6.02-6.02V12.041c0-4.052-1.969-6.021-6.02-6.021H11.333z" fill="#292D32"/><path d="M22.667 16.646H11.333a1.07 1.07 0 01-1.062-1.063c0-.58.482-1.062 1.063-1.062h11.333c.58 0 1.062.481 1.062 1.062a1.07 1.07 0 01-1.062 1.063zM17 23.73h-5.666a1.07 1.07 0 01-1.063-1.063 1.07 1.07 0 011.063-1.063H17a1.07 1.07 0 011.063 1.063A1.07 1.07 0 0117 23.729z" fill="#292D32"/></svg>