<svg width="1488" height="687" fill="none" xmlns="http://www.w3.org/2000/svg"><path d="M726.484 686.036c-124.307 4.268-248.284-16.069-364.645-59.819-116.361-43.749-222.76-110.028-312.947-194.942-15.303-14.005-27.534-30.969-35.93-49.834a148.76 148.76 0 01-12.866-59.82 148.325 148.325 0 0112.33-59.871 149.514 149.514 0 0135.479-49.979c15.177-14.067 33.13-24.886 52.737-31.785a153.173 153.173 0 0161.234-8.312 153.31 153.31 0 0159.563 16.54c18.505 9.494 34.843 22.649 47.998 38.646 120.628 106.283 277.594 163.195 438.919 159.141 182.06-10.523 349.984-117.079 500.744-318.676 11.36-16.93 26.1-31.389 43.31-42.497s36.54-18.633 56.8-22.118a153.482 153.482 0 0161.08 1.847 152.932 152.932 0 0155.44 25.513c16.54 12.129 30.43 27.453 40.81 45.041a148.994 148.994 0 0119.58 57.265c2.53 20.195.89 40.677-4.84 60.203a149.176 149.176 0 01-28.47 53.376c-202.36 276.459-450.2 423.804-726.326 440.081z" fill="url(#paint0_linear_425_4016)"/><defs><linearGradient id="paint0_linear_425_4016" x1="1128.12" y1="688.813" x2="339.267" y2="392.43" gradientUnits="userSpaceOnUse"><stop stop-color="#FF4D00"/><stop offset=".5" stop-color="#FE986C" stop-opacity=".54"/><stop offset="1" stop-color="#F5F5F5"/></linearGradient></defs></svg>