<svg width="12" height="12" fill="none" xmlns="http://www.w3.org/2000/svg"><path d="M8.5 10.625h-5c-1.825 0-2.875-1.05-2.875-2.875v-3.5c0-1.825 1.05-2.875 2.875-2.875h5c1.825 0 2.875 1.05 2.875 2.875v3.5c0 1.825-1.05 2.875-2.875 2.875zm-5-8.5c-1.43 0-2.125.695-2.125 2.125v3.5c0 1.43.695 2.125 2.125 2.125h5c1.43 0 2.125-.695 2.125-2.125v-3.5c0-1.43-.695-2.125-2.125-2.125h-5z" fill="#2D77E8"/><path d="M6 6.435c-.42 0-.846-.13-1.17-.395L3.263 4.79a.374.374 0 01.465-.585l1.565 1.25c.38.305 1.025.305 1.405 0l1.565-1.25c.16-.13.4-.105.525.06.13.16.105.4-.06.525L7.164 6.04c-.32.265-.745.395-1.165.395z" fill="#2D77E8"/></svg>