<svg width="18" height="18" fill="none" xmlns="http://www.w3.org/2000/svg"><path d="M13.245 17.003c-.397 0-.907-.128-1.545-.503l-2.243-1.328c-.232-.135-.682-.135-.907 0L6.3 16.5c-1.328.788-2.108.473-2.46.218-.345-.256-.885-.908-.533-2.408l.533-2.303c.06-.24-.06-.652-.24-.832l-1.86-1.86C.81 8.385.885 7.59 1.012 7.2c.128-.39.533-1.08 1.823-1.298l2.392-.397c.225-.038.548-.278.645-.48L7.2 2.377C7.8 1.17 8.587.99 9 .99c.412 0 1.2.18 1.8 1.387l1.32 2.64c.105.203.428.443.653.48l2.392.398c1.297.217 1.703.907 1.823 1.297.12.39.195 1.185-.728 2.115l-1.86 1.868c-.18.18-.293.585-.24.832l.533 2.303c.345 1.5-.188 2.152-.533 2.408a1.534 1.534 0 01-.915.285zM9 13.943c.367 0 .735.09 1.027.262l2.243 1.328c.652.39 1.065.39 1.223.277.157-.113.27-.51.104-1.245l-.532-2.303c-.143-.622.09-1.425.54-1.882l1.86-1.86c.367-.368.533-.728.457-.975-.082-.248-.427-.45-.937-.533l-2.393-.397c-.577-.098-1.207-.563-1.47-1.088l-1.32-2.64c-.24-.48-.54-.765-.802-.765-.263 0-.563.285-.795.765l-1.328 2.64c-.262.525-.892.99-1.47 1.088l-2.385.397c-.51.083-.855.285-.937.533-.083.247.09.615.457.975l1.86 1.86c.45.45.683 1.26.54 1.882l-.532 2.303c-.173.742-.053 1.133.105 1.245.157.112.562.105 1.222-.277l2.243-1.328A2.005 2.005 0 019 13.943z" fill="#2D77E8"/></svg>