<svg width="23" height="22" fill="none" xmlns="http://www.w3.org/2000/svg"><path d="M11.582 15.741c-.752 0-1.512-.194-2.104-.575l-5.322-3.473a3.468 3.468 0 01-1.582-2.917c0-1.185.592-2.272 1.582-2.917l5.33-3.465c1.185-.77 3.032-.77 4.208.009l5.295 3.473a3.477 3.477 0 010 5.817l-5.295 3.473c-.592.39-1.352.575-2.113.575zm0-12.596c-.504 0-1.008.115-1.37.362L4.89 6.972a2.127 2.127 0 00-.981 1.804c0 .742.354 1.396.981 1.803l5.321 3.474c.734.477 2.025.477 2.758 0l5.295-3.474a2.12 2.12 0 00.972-1.803 2.12 2.12 0 00-.972-1.804L12.969 3.5c-.371-.23-.875-.354-1.387-.354z" fill="#fff"/><path d="M11.572 20.824c-.389 0-.787-.053-1.105-.16l-2.82-.937c-1.334-.441-2.386-1.9-2.377-3.305l.008-4.146c0-.362.301-.663.663-.663.363 0 .663.3.663.663l-.009 4.146c0 .83.69 1.785 1.477 2.05l2.82.937c.353.115 1.007.115 1.36 0l2.82-.937c.787-.265 1.477-1.22 1.477-2.042v-4.1c0-.363.3-.664.663-.664.362 0 .662.3.662.663v4.101c0 1.406-1.043 2.856-2.377 3.306l-2.82.937a3.9 3.9 0 01-1.105.15zm8.31-6.188a.668.668 0 01-.663-.663V8.67c0-.363.3-.663.663-.663.362 0 .663.3.663.663v5.303c0 .363-.3.663-.663.663z" fill="#fff"/></svg>