<svg width="392" height="162" fill="none" xmlns="http://www.w3.org/2000/svg"><path d="M170.478 160.008a245.4 245.4 0 01-90.815-32.277c-27.82-16.649-52.022-38.637-71.185-64.672a39.264 39.264 0 01-6.882-14.493 38.979 38.979 0 01-.49-15.996 38.974 38.974 0 015.982-14.843c3-4.485 6.902-8.306 11.46-11.225A39.642 39.642 0 0133.584.76a39.886 39.886 0 0130.63 7.708A39.521 39.521 0 0174.721 20.64c25.974 32.946 63.601 54.863 105.215 61.286 47.242 5.717 95.371-13.944 143.562-58.868a39.426 39.426 0 0113.122-8.936 39.77 39.77 0 0115.624-3.065 39.909 39.909 0 0115.595 3.302 39.745 39.745 0 0113.035 9.134 39.365 39.365 0 018.362 13.485 39.02 39.02 0 012.333 15.65 38.95 38.95 0 01-4.074 15.274 39.15 39.15 0 01-9.822 12.424c-64.962 61.809-135.529 88.272-207.195 79.683z" fill="#FF4D00"/></svg>