<svg width="58" height="58" fill="none" xmlns="http://www.w3.org/2000/svg"><path d="M36.25 54.98h-14.5c-13.123 0-18.73-5.608-18.73-18.73v-14.5c0-13.123 5.607-18.73 18.73-18.73h14.5c13.122 0 18.73 5.607 18.73 18.73v14.5c0 13.122-5.608 18.73-18.73 18.73zM21.75 6.645c-11.14 0-15.104 3.963-15.104 15.104v14.5c0 11.14 3.963 15.104 15.104 15.104h14.5c11.14 0 15.104-3.963 15.104-15.104v-14.5c0-11.14-3.963-15.104-15.104-15.104h-14.5z" fill="#292D32"/><path d="M21.75 25.98a6.642 6.642 0 01-6.646-6.647 6.642 6.642 0 016.646-6.645 6.642 6.642 0 016.646 6.645 6.642 6.642 0 01-6.646 6.646zm0-9.668a3.022 3.022 0 000 6.042 3.022 3.022 0 000-6.041zM6.453 47.608c-.58 0-1.16-.29-1.499-.797a1.804 1.804 0 01.508-2.514l11.914-7.999c2.61-1.764 6.21-1.546 8.579.46l.798.7c1.208 1.04 3.262 1.04 4.446 0l10.053-8.627c2.562-2.2 6.598-2.2 9.184 0l3.939 3.383c.75.653.846 1.788.193 2.562a1.828 1.828 0 01-2.561.193l-3.94-3.383c-1.208-1.04-3.262-1.04-4.47 0l-10.054 8.627c-2.561 2.2-6.597 2.2-9.183 0l-.797-.7c-1.112-.943-2.949-1.04-4.181-.194l-11.914 8a1.97 1.97 0 01-1.015.29z" fill="#292D32"/></svg>