<svg width="415" height="162" fill="none" xmlns="http://www.w3.org/2000/svg"><mask id="a" style="mask-type:alpha" maskUnits="userSpaceOnUse" x="0" y="0" width="382" height="162"><rect opacity=".52" width="382" height="162" rx="27" fill="#FFFCAB"/></mask><g mask="url(#a)" fill="#fff" fill-opacity=".37"><path d="M163.061 159L102 22h26.641l45.31 105.13L219.26 22h25.669l-61.061 137h-20.807zm94.682 0V22h24.891v137h-24.891zm54.692 0V22h59.505c15.039 0 26.642 3.757 34.809 11.27C414.916 40.786 419 51.279 419 64.753c0 13.473-4.084 24.032-12.251 31.675-8.167 7.514-19.77 11.271-34.809 11.271h-34.614V159h-24.891zm24.891-70.93h30.725c17.891 0 26.836-7.772 26.836-23.318 0-15.417-8.945-23.125-26.836-23.125h-30.725v46.444z"/></g></svg>